SplineFontDB: 3.2
FontName: ProggyVector
FullName: ProggyVector
FamilyName: ProggyVector
Weight: Book
Copyright: Copyright (c) 2019, 2023 Tristan Grimmer\nCopyright (c) 2018 Source Foundry Authors\nCopyright (c) 2003 by Bitstream, Inc. All Rights Reserved.\n\n
Version: 1.1.7
ItalicAngle: 0
UnderlinePosition: -118
UnderlineWidth: 35
Ascent: 819
Descent: 205
InvalidEm: 0
sfntRevision: 0x00010000
LayerCount: 2
Layer: 0 0 "Back" 1
Layer: 1 0 "Fore" 0
XUID: [1021 343 -1807853913 5930]
StyleMap: 0x0040
FSType: 0
OS2Version: 3
OS2_WeightWidthSlopeOnly: 0
OS2_UseTypoMetrics: 0
CreationTime: 1697355633
ModificationTime: 1697388575
PfmFamily: 81
TTFWeight: 400
TTFWidth: 5
LineGap: 143
VLineGap: 0
Panose: 0 0 0 9 0 0 0 0 0 0
OS2TypoAscent: 950
OS2TypoAOffset: 0
OS2TypoDescent: -328
OS2TypoDOffset: 0
OS2TypoLinegap: 143
OS2WinAscent: 950
OS2WinAOffset: 0
OS2WinDescent: 328
OS2WinDOffset: 0
HheadAscent: 950
HheadAOffset: 0
HheadDescent: -328
HheadDOffset: 0
OS2SubXSize: 650
OS2SubYSize: 700
OS2SubXOff: 47
OS2SubYOff: 140
OS2SupXSize: 650
OS2SupYSize: 700
OS2SupXOff: -164
OS2SupYOff: 480
OS2StrikeYSize: 49
OS2StrikeYPos: 258
OS2CapHeight: 950
OS2XHeight: 526
OS2Vendor: 'Bird'
OS2CodePages: 203f00ff.dffd0000
OS2UnicodeRanges: 00000001.00000000.00000000.00000000
DEI: 91125

StartChar: .notdef
Encoding: 65536 -1 0
Width: 614
GlyphClass: 1
Flags: W
LayerCount: 2
Fore
SplineSet
150 97 m 1
 450 97 l 1
 450 582 l 1
 150 582 l 1
 150 97 l 1
100 632 m 1
 500 632 l 1
 500 47 l 1
 100 47 l 1
 100 632 l 1
EndSplineSet
EndChar

StartChar: exclam
Encoding: 33 33 4
Width: 614
GlyphClass: 1
Flags: W
LayerCount: 2
Fore
SplineSet
267 265 m 1
 265.666992188 293.666992188 264.000976562 329.666992188 262.000976562 373 c 0
 259.333984375 416.333007812 257.000976562 458.666015625 255.000976562 499.999023438 c 0
 254.333984375 522.666015625 253.333984375 543.999023438 252.000976562 563.999023438 c 0
 250.66796875 583.999023438 249.66796875 601.666015625 249.000976562 616.999023438 c 2
 249.000976562 739.999023438 l 1
 362.000976562 739.999023438 l 1
 362.000976562 616.999023438 l 2
 361.333984375 601.666015625 360.666992188 583.999023438 360 563.999023438 c 0
 359.333007812 543.999023438 358.333007812 522.666015625 357 499.999023438 c 0
 355.666992188 458.666015625 354 416.333007812 352 373 c 0
 350 329.666992188 348.333007812 293.666992188 347 265 c 1
 267 265 l 1
360.000976562 18 m 0
 352.66796875 11.3330078125 345.000976562 6.666015625 337.000976562 3.9990234375 c 0
 328.333984375 0.666015625 319.000976562 -1.0009765625 309.000976562 -1.0009765625 c 0
 299.000976562 -1.0009765625 289.66796875 0.666015625 281.000976562 3.9990234375 c 0
 272.333984375 6.666015625 264.666992188 11.3330078125 258 18 c 0
 250.666992188 24.6669921875 245.333984375 32.333984375 242.000976562 41.0009765625 c 0
 238.66796875 49.66796875 237.000976562 59.0009765625 237.000976562 69.0009765625 c 0
 237.000976562 79.66796875 238.66796875 89.3349609375 242.000976562 98.001953125 c 0
 245.333984375 106.668945312 250.666992188 114.3359375 258 121.002929688 c 0
 264.666992188 127.669921875 272.333984375 132.336914062 281.000976562 135.00390625 c 0
 289.66796875 138.336914062 299.000976562 140.00390625 309.000976562 140.00390625 c 0
 319.000976562 140.00390625 328.333984375 138.336914062 337.000976562 135.00390625 c 0
 345.000976562 132.336914062 352.66796875 127.669921875 360.000976562 121.002929688 c 0
 367.333984375 114.3359375 372.666992188 106.668945312 376 98.001953125 c 0
 380 89.3349609375 382 79.66796875 382 69.0009765625 c 0
 382 59.0009765625 380 49.66796875 376 41.0009765625 c 0
 372.666992188 32.333984375 367.333984375 24.6669921875 360.000976562 18 c 0
EndSplineSet
EndChar

StartChar: quotedbl
Encoding: 34 34 5
Width: 614
GlyphClass: 1
Flags: W
LayerCount: 2
Fore
SplineSet
169 441 m 1
 169 701 l 1
 256 701 l 1
 256 441 l 1
 169 441 l 1
360 441 m 1
 360 701 l 1
 447 701 l 1
 447 441 l 1
 360 441 l 1
EndSplineSet
EndChar

StartChar: numbersign
Encoding: 35 35 6
Width: 614
GlyphClass: 1
Flags: W
LayerCount: 2
Fore
SplineSet
78 5 m 1
 84.6669921875 29.6669921875 93.33203125 62 103.999023438 102 c 0
 114.666015625 142.666992188 123.333007812 175.333984375 130 200.000976562 c 1
 1 200.000976562 l 1
 1 271.000976562 l 1
 150 271.000976562 l 1
 154.666992188 291.000976562 161.333984375 317.333984375 170.000976562 350.000976562 c 0
 179.333984375 382.66796875 186.333984375 408.66796875 191.000976562 428.000976562 c 1
 58.0009765625 428.000976562 l 1
 58.0009765625 501.000976562 l 1
 210.000976562 501.000976562 l 1
 216.66796875 525.66796875 225.334960938 558.000976562 236.001953125 598.000976562 c 0
 246.668945312 638.000976562 255.3359375 670.333984375 262.002929688 695.000976562 c 1
 342.002929688 695.000976562 l 1
 335.3359375 670.333984375 326.668945312 638.000976562 316.001953125 598.000976562 c 0
 305.334960938 558.000976562 296.66796875 525.66796875 290.000976562 501.000976562 c 1
 413.000976562 501.000976562 l 1
 419.66796875 525.66796875 428.334960938 558.000976562 439.001953125 598.000976562 c 0
 449.668945312 638.000976562 458.3359375 670.333984375 465.002929688 695.000976562 c 1
 545.002929688 695.000976562 l 1
 538.3359375 670.333984375 529.668945312 638.000976562 519.001953125 598.000976562 c 0
 508.334960938 558.000976562 499.66796875 525.66796875 493.000976562 501.000976562 c 1
 614.000976562 501.000976562 l 1
 614.000976562 428.000976562 l 1
 474.000976562 428.000976562 l 1
 468.66796875 408.66796875 461.66796875 382.66796875 453.000976562 350.000976562 c 0
 444.333984375 317.333984375 437.333984375 291.000976562 432.000976562 271.000976562 c 1
 557.000976562 271.000976562 l 1
 557.000976562 200.000976562 l 1
 413.000976562 200.000976562 l 1
 406.333984375 175.333984375 397.666992188 142.666992188 387 102 c 0
 375.666992188 62 366.666992188 29.6669921875 360 5 c 1
 281 5 l 1
 287.666992188 29.6669921875 296.333984375 62 307.000976562 102 c 0
 317.66796875 142.666992188 326.334960938 175.333984375 333.001953125 200.000976562 c 1
 210.001953125 200.000976562 l 1
 203.334960938 175.333984375 194.66796875 142.666992188 184.000976562 102 c 0
 173.333984375 62 164.666992188 29.6669921875 158 5 c 1
 78 5 l 1
228.998046875 266 m 1
 351.998046875 266 l 1
 357.331054688 285.333007812 364.331054688 311.666015625 372.998046875 344.999023438 c 0
 382.331054688 378.33203125 389.331054688 404.665039062 393.998046875 423.998046875 c 1
 270.998046875 423.998046875 l 1
 266.331054688 404.665039062 259.331054688 378.33203125 249.998046875 344.999023438 c 0
 241.331054688 311.666015625 234.331054688 285.333007812 228.998046875 266 c 1
EndSplineSet
EndChar

StartChar: dollar
Encoding: 36 36 7
Width: 614
GlyphClass: 1
Flags: W
LayerCount: 2
Fore
SplineSet
279 -19 m 1
 278.333007812 -12.3330078125 278.001953125 -2.666015625 278.001953125 10.0009765625 c 0
 277.334960938 22.0009765625 276.66796875 31.66796875 276.000976562 39.0009765625 c 0
 274.000976562 39.66796875 270.333984375 40.3349609375 265.000976562 41.001953125 c 0
 260.333984375 41.001953125 253.333984375 41.6689453125 244.000976562 43.001953125 c 0
 234.66796875 44.3349609375 225.66796875 45.66796875 217.000976562 47.0009765625 c 0
 208.333984375 49.0009765625 199.333984375 50.66796875 190.000976562 52.0009765625 c 0
 174.66796875 55.333984375 158.66796875 59.333984375 142.000976562 64.0009765625 c 0
 125.333984375 69.333984375 108.333984375 75.333984375 91.0009765625 82.0009765625 c 1
 91.0009765625 167.000976562 l 1
 100.333984375 161.66796875 109.333984375 156.66796875 118.000976562 152.000976562 c 2
 142.000976562 140.000976562 l 2
 150.66796875 136.66796875 159.000976562 133.334960938 167.000976562 130.001953125 c 0
 174.333984375 127.334960938 182.333984375 124.66796875 191.000976562 122.000976562 c 0
 204.333984375 116.66796875 218.000976562 112.66796875 232.000976562 110.000976562 c 0
 246.000976562 107.333984375 260.66796875 105.666992188 276.000976562 105 c 1
 276.000976562 322 l 1
 261.333984375 324 247.666992188 326.666992188 235 330 c 0
 222.333007812 333.333007812 210.666015625 337.333007812 199.999023438 342 c 0
 189.33203125 346.666992188 178.999023438 352 168.999023438 358 c 0
 158.999023438 364 149.666015625 370.666992188 140.999023438 378 c 0
 124.33203125 392 111.999023438 408.666992188 103.999023438 428 c 0
 95.33203125 446.666992188 90.9990234375 468 90.9990234375 492 c 0
 90.9990234375 516 95.33203125 538 103.999023438 558 c 0
 113.33203125 577.333007812 126.665039062 594.333007812 143.998046875 609 c 0
 163.331054688 625 183.998046875 637.666992188 205.998046875 647 c 0
 227.998046875 657 251.331054688 663 275.998046875 665 c 1
 275.998046875 722 l 1
 357.998046875 722 l 1
 357.998046875 665 l 2
 357.998046875 664.333007812 359.998046875 663.333007812 363.998046875 662 c 0
 367.331054688 661.333007812 372.998046875 660 380.998046875 658 c 2
 402.998046875 654 l 2
 410.331054688 652.666992188 416.998046875 651.333984375 422.998046875 650.000976562 c 0
 429.665039062 649.333984375 436.33203125 648.333984375 442.999023438 647.000976562 c 0
 450.33203125 645.000976562 457.33203125 643.333984375 463.999023438 642.000976562 c 0
 470.666015625 640.66796875 477.333007812 639.000976562 484 637.000976562 c 0
 490.666992188 635.000976562 497.666992188 633.000976562 505 631.000976562 c 1
 505 550.000976562 l 1
 483 560.000976562 l 2
 475 563.333984375 467.333007812 566.333984375 460 569.000976562 c 0
 452 572.333984375 445 575.000976562 439 577.000976562 c 0
 433 578.333984375 427.666992188 579.666992188 423 581 c 0
 417 582.333007812 411.333007812 583.666015625 406 584.999023438 c 2
 390 588.999023438 l 1
 374 590.999023438 l 2
 368.666992188 590.999023438 363.333984375 591.33203125 358.000976562 591.999023438 c 1
 358.000976562 389.999023438 l 1
 391.333984375 384.666015625 419.666992188 376.999023438 443 366.999023438 c 0
 466.333007812 356.999023438 485 344.999023438 499 330.999023438 c 0
 517 315.666015625 530.333007812 298.333007812 539 279 c 0
 548.333007812 259 553 237.333007812 553 214 c 0
 553 190 548 167.666992188 538 147 c 0
 528.666992188 127 514.333984375 108.666992188 495.000976562 92 c 0
 474.333984375 76 452.666992188 63.3330078125 430 54 c 0
 407.333007812 45.3330078125 383.333007812 40.3330078125 358 39 c 1
 358 -19 l 1
 279 -19 l 1
276.001953125 401 m 1
 276.001953125 594.998046875 l 1
 260.668945312 593.665039062 247.001953125 589.665039062 235.001953125 582.998046875 c 0
 223.001953125 576.998046875 213.001953125 568.665039062 205.001953125 557.998046875 c 0
 198.334960938 547.998046875 193.001953125 537.998046875 189.001953125 527.998046875 c 0
 183.668945312 514.665039062 181.001953125 504.33203125 181.001953125 496.999023438 c 2
 181.001953125 491.999023438 l 2
 180.334960938 483.33203125 182.001953125 473.999023438 186.001953125 463.999023438 c 0
 190.001953125 454.666015625 196.334960938 444.333007812 205.001953125 433 c 0
 215.001953125 425 226.001953125 418.333007812 238.001953125 413 c 0
 250.001953125 407.666992188 262.668945312 403.666992188 276.001953125 401 c 1
358.001953125 309.998046875 m 1
 358.000976562 104.997070312 l 1
 376.66796875 108.330078125 393.000976562 112.663085938 407.000976562 117.99609375 c 0
 420.333984375 122.663085938 431.333984375 128.330078125 440.000976562 134.997070312 c 0
 450.66796875 147.6640625 458.334960938 161.331054688 463.001953125 175.998046875 c 0
 468.334960938 189.998046875 471.001953125 204.998046875 471.001953125 220.998046875 c 0
 471.001953125 233.665039062 468.334960938 245.665039062 463.001953125 256.998046875 c 0
 458.334960938 268.331054688 450.66796875 278.998046875 440.000976562 288.998046875 c 0
 430.000976562 295.665039062 418.000976562 300.665039062 404.000976562 303.998046875 c 0
 390.66796875 307.998046875 375.334960938 309.998046875 358.001953125 309.998046875 c 1
EndSplineSet
EndChar

StartChar: percent
Encoding: 37 37 8
Width: 614
GlyphClass: 1
Flags: W
LayerCount: 2
Fore
SplineSet
209 437 m 0
 201 433.666992188 192.334960938 430.999023438 183.001953125 428.999023438 c 0
 173.668945312 427.666015625 164.3359375 426.999023438 155.002929688 426.999023438 c 0
 145.002929688 426.999023438 135.669921875 427.999023438 127.002929688 429.999023438 c 0
 118.3359375 431.999023438 109.668945312 434.33203125 101.001953125 436.999023438 c 0
 93.001953125 440.33203125 85.3349609375 444.33203125 78.001953125 448.999023438 c 0
 71.3349609375 452.999023438 64.66796875 457.999023438 58.0009765625 463.999023438 c 0
 44.66796875 475.999023438 35.0009765625 489.666015625 29.0009765625 504.999023438 c 0
 22.333984375 519.666015625 19.0009765625 536.333007812 19.0009765625 555 c 0
 19.0009765625 567 20.66796875 578.666992188 24.0009765625 590 c 0
 26.66796875 601.333007812 31.0009765625 612 37.0009765625 622 c 0
 43.0009765625 631.333007812 50.0009765625 640 58.0009765625 648 c 0
 66.66796875 655.333007812 76.0009765625 662 86.0009765625 668 c 0
 96.0009765625 673.333007812 107.000976562 677.333007812 119.000976562 680 c 0
 130.333984375 682.666992188 142.666992188 684 156 684 c 0
 164.666992188 684 173.666992188 683 183 681 c 0
 191.666992188 679 200 676.666992188 208 674 c 0
 216 670.666992188 223.666992188 666.666992188 231 662 c 0
 238.333007812 657.333007812 245.333007812 652 252 646 c 0
 258.666992188 640 264.333984375 633.666992188 269.000976562 627 c 0
 273.66796875 620.333007812 278.000976562 613 282.000976562 605 c 0
 285.333984375 597.666992188 287.666992188 589.666992188 289 581 c 0
 291 573 292 564.666992188 292 556 c 0
 292 537.333007812 288.666992188 520.333007812 282 505 c 0
 276 489.666992188 266.333007812 476 253 464 c 0
 247 458 240 453 232 449 c 0
 224.666992188 445 217 441 209 437 c 0
127.001953125 496.999023438 m 0
 131.001953125 494.999023438 135.334960938 493.6640625 140.001953125 492.997070312 c 0
 144.668945312 492.330078125 149.668945312 491.997070312 155.001953125 491.997070312 c 0
 163.668945312 491.997070312 172.001953125 493.330078125 180.001953125 495.997070312 c 0
 188.001953125 499.330078125 195.334960938 503.997070312 202.001953125 509.997070312 c 0
 204.668945312 512.6640625 207.001953125 515.6640625 209.001953125 518.997070312 c 0
 211.668945312 522.330078125 214.001953125 525.663085938 216.001953125 528.99609375 c 0
 218.001953125 532.99609375 219.668945312 536.99609375 221.001953125 540.99609375 c 0
 221.668945312 545.663085938 222.001953125 550.330078125 222.001953125 554.997070312 c 0
 222.001953125 563.6640625 220.334960938 571.6640625 217.001953125 578.997070312 c 0
 213.668945312 586.330078125 208.668945312 592.997070312 202.001953125 598.997070312 c 0
 195.334960938 604.997070312 188.001953125 609.6640625 180.001953125 612.997070312 c 0
 172.001953125 615.6640625 163.668945312 616.997070312 155.001953125 616.997070312 c 0
 145.668945312 616.997070312 137.001953125 615.6640625 129.001953125 612.997070312 c 0
 121.668945312 610.330078125 114.668945312 605.997070312 108.001953125 599.997070312 c 0
 101.334960938 593.997070312 96.3349609375 587.330078125 93.001953125 579.997070312 c 0
 89.6689453125 572.6640625 88.001953125 564.331054688 88.001953125 554.998046875 c 0
 88.001953125 545.665039062 89.6689453125 537.33203125 93.001953125 529.999023438 c 0
 96.3349609375 522.666015625 101.334960938 515.999023438 108.001953125 509.999023438 c 0
 110.001953125 507.33203125 112.668945312 504.999023438 116.001953125 502.999023438 c 0
 119.334960938 500.33203125 123.001953125 498.33203125 127.001953125 496.999023438 c 0
514.001953125 27.9970703125 m 0
 506.001953125 23.9970703125 497.334960938 21.33203125 488.001953125 19.9990234375 c 0
 478.668945312 17.9990234375 469.3359375 16.9990234375 460.002929688 16.9990234375 c 0
 450.002929688 16.9990234375 440.3359375 17.9990234375 431.002929688 19.9990234375 c 0
 422.3359375 21.9990234375 414.002929688 24.666015625 406.002929688 27.9990234375 c 0
 397.3359375 30.666015625 389.3359375 34.3330078125 382.002929688 39 c 0
 375.3359375 43.6669921875 368.668945312 48.6669921875 362.001953125 54 c 0
 349.334960938 66.6669921875 339.66796875 80.333984375 333.000976562 95.0009765625 c 0
 327.000976562 110.333984375 324.000976562 127.000976562 324.000976562 145.000976562 c 0
 324.000976562 157.66796875 325.333984375 169.66796875 328.000976562 181.000976562 c 0
 331.333984375 191.66796875 336.000976562 202.000976562 342.000976562 212.000976562 c 0
 348.000976562 222.000976562 355.000976562 230.66796875 363.000976562 238.000976562 c 0
 371.000976562 246.000976562 380.000976562 252.66796875 390.000976562 258.000976562 c 0
 400.66796875 263.333984375 411.66796875 267.333984375 423.000976562 270.000976562 c 0
 435.000976562 272.66796875 447.333984375 274.000976562 460.000976562 274.000976562 c 0
 469.333984375 274.000976562 478.333984375 273.333984375 487.000976562 272.000976562 c 0
 495.66796875 270.000976562 504.000976562 267.333984375 512.000976562 264.000976562 c 0
 520.000976562 261.333984375 527.66796875 257.666992188 535.000976562 253 c 0
 542.333984375 248.333007812 549.333984375 243 556.000976562 237 c 0
 562.66796875 230.333007812 568.334960938 223.666015625 573.001953125 216.999023438 c 0
 577.668945312 210.33203125 582.001953125 203.33203125 586.001953125 195.999023438 c 0
 589.334960938 187.999023438 592.001953125 179.999023438 594.001953125 171.999023438 c 0
 595.334960938 163.33203125 596.001953125 154.665039062 596.001953125 145.998046875 c 0
 596.001953125 127.998046875 592.668945312 111.331054688 586.001953125 95.998046875 c 0
 580.001953125 81.3310546875 570.334960938 67.6640625 557.001953125 54.9970703125 c 0
 551.001953125 49.6640625 544.334960938 44.6640625 537.001953125 39.9970703125 c 0
 529.668945312 35.330078125 522.001953125 31.330078125 514.001953125 27.9970703125 c 0
431.001953125 86.9990234375 m 0
 435.001953125 85.666015625 439.3359375 84.3310546875 444.002929688 82.998046875 c 0
 448.669921875 82.3310546875 453.669921875 81.998046875 459.002929688 81.998046875 c 0
 468.3359375 81.998046875 476.668945312 83.6650390625 484.001953125 86.998046875 c 0
 492.001953125 89.6650390625 499.334960938 93.998046875 506.001953125 99.998046875 c 0
 508.668945312 102.665039062 511.001953125 105.665039062 513.001953125 108.998046875 c 0
 515.668945312 112.331054688 518.001953125 115.998046875 520.001953125 119.998046875 c 0
 522.001953125 123.331054688 523.668945312 127.331054688 525.001953125 131.998046875 c 0
 525.668945312 135.998046875 526.001953125 140.331054688 526.001953125 144.998046875 c 0
 526.001953125 153.665039062 524.334960938 161.665039062 521.001953125 168.998046875 c 0
 517.668945312 176.331054688 512.668945312 182.998046875 506.001953125 188.998046875 c 0
 499.334960938 195.665039062 492.001953125 200.33203125 484.001953125 202.999023438 c 0
 476.001953125 206.33203125 467.668945312 207.999023438 459.001953125 207.999023438 c 0
 449.668945312 207.999023438 441.001953125 206.666015625 433.001953125 203.999023438 c 0
 425.668945312 201.33203125 418.668945312 196.665039062 412.001953125 189.998046875 c 0
 405.334960938 183.998046875 400.334960938 177.331054688 397.001953125 169.998046875 c 0
 393.668945312 162.665039062 392.001953125 154.33203125 392.001953125 144.999023438 c 0
 392.001953125 136.33203125 393.668945312 128.33203125 397.001953125 120.999023438 c 0
 400.334960938 113.666015625 405.334960938 106.666015625 412.001953125 99.9990234375 c 0
 414.001953125 97.9990234375 416.668945312 95.666015625 420.001953125 92.9990234375 c 0
 423.334960938 90.33203125 427.001953125 88.33203125 431.001953125 86.9990234375 c 0
63.0029296875 17.9970703125 m 1
 80.3359375 47.330078125 100.334960938 80.9970703125 123.001953125 118.997070312 c 0
 145.668945312 157.6640625 169.3359375 197.997070312 194.002929688 239.997070312 c 0
 240.669921875 318.6640625 288.002929688 398.6640625 336.002929688 479.997070312 c 0
 384.669921875 561.997070312 425.002929688 629.997070312 457.002929688 683.997070312 c 1
 552.002929688 683.997070312 l 1
 534.669921875 654.6640625 514.669921875 620.997070312 492.002929688 582.997070312 c 0
 470.002929688 544.997070312 446.3359375 504.6640625 421.002929688 461.997070312 c 0
 374.3359375 383.330078125 327.002929688 303.330078125 279.002929688 221.997070312 c 0
 231.002929688 140.6640625 191.002929688 72.6640625 159.002929688 17.9970703125 c 1
 63.0029296875 17.9970703125 l 1
EndSplineSet
EndChar

StartChar: ampersand
Encoding: 38 38 9
Width: 614
GlyphClass: 1
Flags: W
LayerCount: 2
Fore
SplineSet
400 603 m 2
 399.998046875 575.99609375 l 2
 399.998046875 567.329101562 398.665039062 557.99609375 395.998046875 547.99609375 c 0
 391.998046875 530.663085938 381.998046875 511.330078125 365.998046875 489.997070312 c 0
 349.998046875 469.330078125 322.331054688 445.330078125 282.998046875 417.997070312 c 1
 304.998046875 389.997070312 324.665039062 364.330078125 341.998046875 340.997070312 c 0
 359.998046875 318.330078125 375.665039062 298.330078125 388.998046875 280.997070312 c 0
 402.331054688 262.997070312 416.6640625 244.6640625 431.997070312 225.997070312 c 0
 447.330078125 206.6640625 463.663085938 185.997070312 480.99609375 163.997070312 c 1
 490.99609375 175.997070312 498.663085938 189.330078125 503.99609375 203.997070312 c 0
 509.99609375 217.997070312 513.99609375 233.330078125 515.99609375 249.997070312 c 0
 517.99609375 265.997070312 518.99609375 282.997070312 518.99609375 300.997070312 c 2
 518.99609375 317.997070312 l 1
 518.99609375 326.997070312 l 2
 519.663085938 330.997070312 519.330078125 339.997070312 517.997070312 353.997070312 c 0
 517.997070312 355.997070312 518.330078125 356.997070312 518.997070312 356.997070312 c 2
 520.997070312 356.997070312 l 1
 599.997070312 356.997070312 l 1
 599.997070312 320.997070312 598.330078125 289.6640625 594.997070312 262.997070312 c 0
 591.6640625 236.330078125 586.6640625 214.330078125 579.997070312 196.997070312 c 0
 573.330078125 178.997070312 565.330078125 162.6640625 555.997070312 147.997070312 c 0
 546.6640625 133.330078125 536.331054688 119.997070312 524.998046875 107.997070312 c 1
 535.665039062 94.6640625 548.998046875 77.6640625 564.998046875 56.9970703125 c 0
 580.998046875 36.9970703125 595.998046875 17.9970703125 609.998046875 -0.0029296875 c 1
 581.331054688 -0.0029296875 558.998046875 -0.3359375 542.998046875 -1.0029296875 c 2
 514.998046875 -1.0029296875 l 2
 511.665039062 -1.0029296875 505.998046875 3.330078125 497.998046875 11.9970703125 c 0
 489.331054688 20.6640625 478.331054688 33.6640625 464.998046875 50.9970703125 c 1
 438.998046875 30.330078125 410.665039062 14.6630859375 379.998046875 3.99609375 c 0
 348.665039062 -7.3369140625 315.33203125 -13.00390625 279.999023438 -13.00390625 c 2
 271.999023438 -13.00390625 l 2
 237.999023438 -13.00390625 206.666015625 -7.6708984375 177.999023438 2.99609375 c 0
 149.33203125 13.6630859375 122.999023438 29.330078125 98.9990234375 49.9970703125 c 0
 75.666015625 71.330078125 57.9990234375 94.330078125 45.9990234375 118.997070312 c 0
 34.666015625 143.6640625 28.9990234375 170.331054688 28.9990234375 198.998046875 c 2
 28.9990234375 218.998046875 l 2
 29.666015625 225.665039062 30.666015625 232.665039062 31.9990234375 239.998046875 c 0
 38.666015625 277.331054688 53.3330078125 311.6640625 76 342.997070312 c 0
 98 374.997070312 128.333007812 403.997070312 167 429.997070312 c 1
 138.333007812 451.997070312 116.666015625 473.997070312 101.999023438 495.997070312 c 0
 87.9990234375 517.997070312 80.9990234375 539.997070312 80.9990234375 561.997070312 c 0
 81.666015625 594.6640625 88.3330078125 622.331054688 101 644.998046875 c 0
 113.666992188 667.665039062 132.666992188 685.33203125 158 697.999023438 c 0
 172.666992188 705.999023438 188 711.666015625 204 714.999023438 c 0
 219.333007812 718.999023438 235.333007812 720.999023438 252 720.999023438 c 0
 262.666992188 720.999023438 273.666992188 719.999023438 285 717.999023438 c 0
 297 716.666015625 308.333007812 714.333007812 319 711 c 0
 349.666992188 702.333007812 371 688 383 668 c 0
 394.333007812 648 400 626.333007812 400 603 c 2
221.998046875 71.99609375 m 0
 232.665039062 67.99609375 243.998046875 64.6591796875 255.998046875 61.9921875 c 0
 267.998046875 59.3251953125 280.331054688 57.9921875 292.998046875 57.9921875 c 0
 300.331054688 57.9921875 307.6640625 58.6591796875 314.997070312 59.9921875 c 0
 322.330078125 60.6591796875 329.997070312 62.326171875 337.997070312 64.9931640625 c 0
 346.6640625 66.9931640625 354.6640625 69.326171875 361.997070312 71.9931640625 c 0
 369.997070312 74.66015625 376.997070312 77.66015625 382.997070312 80.9931640625 c 2
 394.997070312 86.9931640625 l 2
 398.330078125 88.9931640625 401.997070312 90.9931640625 405.997070312 92.9931640625 c 0
 409.330078125 94.9931640625 411.997070312 96.66015625 413.997070312 97.9931640625 c 2
 416.997070312 100.993164062 l 2
 416.997070312 101.66015625 417.330078125 102.327148438 417.997070312 102.994140625 c 0
 419.330078125 102.994140625 420.663085938 103.327148438 421.99609375 103.994140625 c 1
 404.663085938 126.661132812 389.330078125 146.661132812 375.997070312 163.994140625 c 0
 361.997070312 180.661132812 349.997070312 195.661132812 339.997070312 208.994140625 c 0
 330.6640625 220.994140625 322.331054688 231.994140625 314.998046875 241.994140625 c 0
 307.665039062 251.327148438 300.665039062 259.66015625 293.998046875 266.993164062 c 0
 279.998046875 285.66015625 267.331054688 302.327148438 255.998046875 316.994140625 c 0
 244.665039062 330.994140625 229.998046875 349.994140625 211.998046875 373.994140625 c 1
 195.998046875 361.994140625 181.998046875 350.327148438 169.998046875 338.994140625 c 0
 157.998046875 327.661132812 147.665039062 316.328125 138.998046875 304.995117188 c 0
 131.665039062 292.328125 125.998046875 278.995117188 121.998046875 264.995117188 c 0
 118.665039062 250.995117188 116.998046875 236.662109375 116.998046875 221.995117188 c 0
 116.998046875 198.662109375 120.998046875 177.329101562 128.998046875 157.99609375 c 0
 136.998046875 138.663085938 149.331054688 120.99609375 165.998046875 104.99609375 c 0
 173.331054688 98.3291015625 181.998046875 91.99609375 191.998046875 85.99609375 c 0
 201.331054688 80.6630859375 211.331054688 75.99609375 221.998046875 71.99609375 c 0
292.998046875 516.9921875 m 0
 313.665039062 534.9921875 323.997070312 558.325195312 323.997070312 586.9921875 c 0
 323.997070312 616.325195312 313.330078125 634.658203125 291.997070312 641.991210938 c 0
 278.6640625 646.658203125 265.6640625 648.991210938 252.997070312 648.991210938 c 0
 248.330078125 648.991210938 244.330078125 648.658203125 240.997070312 647.991210938 c 0
 221.6640625 644.658203125 206.331054688 637.991210938 194.998046875 627.991210938 c 0
 184.331054688 618.658203125 177.331054688 607.658203125 173.998046875 594.991210938 c 0
 172.665039062 589.658203125 171.998046875 583.658203125 171.998046875 576.991210938 c 0
 172.665039062 568.32421875 173.665039062 560.32421875 174.998046875 552.991210938 c 0
 177.665039062 538.32421875 185.998046875 524.657226562 199.998046875 511.990234375 c 0
 212.665039062 500.657226562 224.998046875 488.990234375 236.998046875 476.990234375 c 1
 244.998046875 481.657226562 253.665039062 487.32421875 262.998046875 493.991210938 c 0
 272.998046875 500.658203125 282.998046875 508.325195312 292.998046875 516.9921875 c 0
EndSplineSet
EndChar

StartChar: quotesingle
Encoding: 39 39 10
Width: 614
GlyphClass: 1
Flags: W
LayerCount: 2
Fore
SplineSet
266 442 m 1
 266 703 l 1
 358 703 l 1
 358 442 l 1
 266 442 l 1
EndSplineSet
EndChar

StartChar: parenleft
Encoding: 40 40 11
Width: 614
GlyphClass: 1
Flags: W
LayerCount: 2
Fore
SplineSet
397 -82 m 1
 316.998046875 -82.00390625 l 1
 291.665039062 -44.00390625 269.665039062 -7.00390625 250.998046875 28.99609375 c 0
 231.665039062 65.6630859375 216.33203125 101.330078125 204.999023438 135.997070312 c 0
 192.33203125 171.997070312 182.999023438 207.330078125 176.999023438 241.997070312 c 0
 170.999023438 277.330078125 167.999023438 312.330078125 167.999023438 346.997070312 c 0
 167.999023438 381.6640625 170.999023438 416.331054688 176.999023438 450.998046875 c 0
 182.999023438 486.331054688 192.33203125 521.998046875 204.999023438 557.998046875 c 0
 210.999023438 575.998046875 217.999023438 593.998046875 225.999023438 611.998046875 c 0
 233.999023438 629.998046875 242.666015625 647.998046875 251.999023438 665.998046875 c 0
 261.33203125 683.331054688 271.33203125 701.331054688 281.999023438 719.998046875 c 0
 292.666015625 737.998046875 304.333007812 756.331054688 317 774.998046875 c 1
 397 774.998046875 l 1
 385.666992188 756.331054688 375 737.998046875 365 719.998046875 c 0
 355 701.998046875 346.333007812 684.331054688 339 666.998046875 c 0
 331 649.665039062 323.666992188 631.998046875 317 613.998046875 c 0
 310.333007812 596.665039062 304.333007812 579.33203125 299 561.999023438 c 0
 288.333007812 525.999023438 280 489.999023438 274 453.999023438 c 0
 268 417.999023438 265 382.33203125 265 346.999023438 c 0
 265 275.666015625 276 204.333007812 298 133 c 0
 320 61.6669921875 353 -10 397 -82 c 1
EndSplineSet
EndChar

StartChar: parenright
Encoding: 41 41 12
Width: 614
GlyphClass: 1
Flags: W
LayerCount: 2
Fore
SplineSet
285 -77 m 1
 205.000976562 -76.99609375 l 1
 227.000976562 -40.99609375 246.333984375 -4.99609375 263.000976562 31.00390625 c 0
 279.000976562 66.3369140625 292.66796875 102.00390625 304.000976562 138.00390625 c 0
 309.333984375 155.336914062 314.000976562 172.669921875 318.000976562 190.002929688 c 0
 322.000976562 207.3359375 325.66796875 225.002929688 329.000976562 243.002929688 c 0
 331.66796875 261.002929688 333.66796875 279.002929688 335.000976562 297.002929688 c 0
 336.333984375 315.669921875 337.000976562 334.002929688 337.000976562 352.002929688 c 0
 337.000976562 388.002929688 334.333984375 424.002929688 329.000976562 460.002929688 c 0
 323.000976562 495.3359375 314.66796875 530.668945312 304.000976562 566.001953125 c 0
 298.66796875 583.334960938 292.66796875 600.66796875 286.000976562 618.000976562 c 0
 279.333984375 635.333984375 272.000976562 653.000976562 264.000976562 671.000976562 c 0
 256.000976562 689.000976562 247.000976562 707.000976562 237.000976562 725.000976562 c 0
 227.000976562 743.66796875 216.333984375 762.000976562 205.000976562 780.000976562 c 1
 285.000976562 780.000976562 l 1
 310.333984375 742.66796875 332.333984375 706.000976562 351.000976562 670.000976562 c 0
 370.333984375 634.000976562 385.666992188 598.333984375 397 563.000976562 c 0
 409.666992188 527.000976562 419 491.66796875 425 457.000976562 c 0
 431 421.66796875 434 386.66796875 434 352.000976562 c 0
 434 317.333984375 431 282.333984375 425 247.000976562 c 0
 419 211.66796875 409.666992188 176.000976562 397 140.000976562 c 0
 385 104.66796875 369.666992188 69.0009765625 351 33.0009765625 c 0
 331.666992188 -3.666015625 309.666992188 -40.3330078125 285 -77 c 1
EndSplineSet
EndChar

StartChar: asterisk
Encoding: 42 42 13
Width: 614
GlyphClass: 1
Flags: W
LayerCount: 2
Fore
SplineSet
46 452 m 1
 52 460.666992188 59.333984375 471.998046875 68.0009765625 485.998046875 c 0
 77.333984375 499.998046875 84.6669921875 511.331054688 90 519.998046875 c 1
 176 473.331054688 233.333007812 441.998046875 262 425.998046875 c 1
 262 611.998046875 l 1
 349 611.998046875 l 1
 349 425.998046875 l 1
 437 473.998046875 l 2
 473.666992188 493.998046875 503 509.665039062 525 520.998046875 c 1
 531 512.331054688 538.333007812 500.6640625 547 485.997070312 c 0
 556.333007812 471.997070312 563.666015625 460.6640625 568.999023438 451.997070312 c 1
 480.999023438 403.997070312 l 1
 392.999023438 355.997070312 l 1
 480.999023438 307.997070312 l 2
 516.999023438 287.997070312 545.999023438 271.6640625 567.999023438 258.997070312 c 1
 562.666015625 250.330078125 555.333007812 238.997070312 546 224.997070312 c 0
 537.333007812 211.6640625 530 200.331054688 524 190.998046875 c 1
 502 202.998046875 473 218.998046875 437 238.998046875 c 0
 400.333007812 258.331054688 371 273.998046875 349 285.998046875 c 1
 349 89.998046875 l 1
 318 89.998046875 l 1
 305 89.998046875 l 1
 262 89.998046875 l 1
 262 170.998046875 l 1
 262 285.998046875 l 1
 232.666992188 270.665039062 202 254.33203125 170 236.999023438 c 0
 137.333007812 219.666015625 110 205.333007812 88 194 c 1
 82.6669921875 202.666992188 75.6669921875 213.666992188 67 227 c 0
 58.3330078125 241 51.3330078125 252.333007812 46 261 c 1
 67.3330078125 273 96.3330078125 289 133 309 c 0
 169 329 197.666992188 344.666992188 219 356 c 1
 197.666992188 368 169 384 133 404 c 0
 96.3330078125 424 67.3330078125 440 46 452 c 1
EndSplineSet
EndChar

StartChar: plus
Encoding: 43 43 14
Width: 614
GlyphClass: 1
Flags: W
LayerCount: 2
Fore
SplineSet
264 100 m 1
 264 308 l 1
 41 308 l 1
 41 388 l 1
 264 388 l 1
 264 597 l 1
 348 597 l 1
 348 388 l 1
 573 388 l 1
 573 308 l 1
 348 308 l 1
 348 100 l 1
 264 100 l 1
EndSplineSet
EndChar

StartChar: comma
Encoding: 44 44 15
Width: 614
GlyphClass: 1
Flags: W
LayerCount: 2
Fore
SplineSet
265 -59 m 0
 271 -51.6669921875 276.334960938 -43.0029296875 281.001953125 -33.0029296875 c 0
 285.668945312 -23.0029296875 290.3359375 -12.0029296875 295.002929688 -0.0029296875 c 1
 289.002929688 -0.0029296875 282.669921875 1.6640625 276.002929688 4.9970703125 c 0
 269.3359375 7.6640625 262.668945312 12.3310546875 256.001953125 18.998046875 c 0
 249.334960938 25.6650390625 244.334960938 33.33203125 241.001953125 41.9990234375 c 0
 238.334960938 50.666015625 237.001953125 60.3330078125 237.001953125 71 c 0
 237.001953125 81 238.334960938 90.3330078125 241.001953125 99 c 0
 244.334960938 107.666992188 249.66796875 115.333984375 257.000976562 122.000976562 c 0
 264.333984375 128.66796875 272.000976562 133.66796875 280.000976562 137.000976562 c 0
 288.66796875 139.66796875 298.000976562 141.000976562 308.000976562 141.000976562 c 0
 318.66796875 141.000976562 328.000976562 139.66796875 336.000976562 137.000976562 c 0
 344.66796875 133.66796875 352.334960938 128.66796875 359.001953125 122.000976562 c 0
 366.334960938 115.333984375 372.001953125 107.666992188 376.001953125 99 c 0
 379.334960938 90.3330078125 381.001953125 81 381.001953125 71 c 2
 381.001953125 65 l 2
 381.001953125 57.6669921875 380.668945312 50.6669921875 380.001953125 44 c 0
 379.334960938 37.3330078125 378.66796875 31.3330078125 378.000976562 26 c 0
 376.66796875 19.3330078125 375.66796875 13.3330078125 375.000976562 8 c 0
 373.66796875 2.6669921875 372.334960938 -2 371.001953125 -6 c 0
 363.668945312 -25.3330078125 355.001953125 -43.666015625 345.001953125 -60.9990234375 c 0
 334.334960938 -77.666015625 322.66796875 -93.3330078125 310.000976562 -108 c 0
 297.333984375 -122 285.333984375 -134.333007812 274.000976562 -145 c 0
 262.66796875 -155.666992188 251.66796875 -164.333984375 241.000976562 -171.000976562 c 1
 237.000976562 -165.66796875 233.66796875 -161.000976562 231.000976562 -157.000976562 c 0
 227.66796875 -153.000976562 224.66796875 -149.000976562 222.000976562 -145.000976562 c 0
 219.333984375 -141.66796875 216.666992188 -138.000976562 214 -134.000976562 c 0
 211.333007812 -130.000976562 208.333007812 -125.66796875 205 -121.000976562 c 1
 219.666992188 -108.333984375 232 -96.6669921875 242 -86 c 0
 252 -76 259.666992188 -67 265 -59 c 0
EndSplineSet
EndChar

StartChar: hyphen
Encoding: 45 45 16
Width: 614
GlyphClass: 1
Flags: W
LayerCount: 2
Fore
SplineSet
83 308 m 1
 83 389.000976562 l 1
 534 389.000976562 l 1
 534 349.000976562 l 2
 534.666992188 332.333984375 535 318.666992188 535 308 c 1
 83 308 l 1
EndSplineSet
EndChar

StartChar: period
Encoding: 46 46 17
Width: 614
GlyphClass: 1
Flags: W
LayerCount: 2
Fore
SplineSet
360 18 m 0
 353.333007812 11.3330078125 345.666015625 6.666015625 336.999023438 3.9990234375 c 0
 328.999023438 0.666015625 319.666015625 -1.0009765625 308.999023438 -1.0009765625 c 0
 298.999023438 -1.0009765625 289.666015625 0.666015625 280.999023438 3.9990234375 c 0
 272.999023438 6.666015625 265.33203125 11.3330078125 257.999023438 18 c 0
 250.666015625 24.6669921875 245.333007812 32.333984375 242 41.0009765625 c 0
 238.666992188 49.66796875 237 59.3349609375 237 70.001953125 c 0
 237 80.001953125 238.666992188 89.3349609375 242 98.001953125 c 0
 245.333007812 106.668945312 250.666015625 114.3359375 257.999023438 121.002929688 c 0
 265.33203125 127.669921875 272.999023438 132.669921875 280.999023438 136.002929688 c 0
 289.666015625 139.3359375 298.999023438 141.002929688 308.999023438 141.002929688 c 0
 319.666015625 141.002929688 328.999023438 139.3359375 336.999023438 136.002929688 c 0
 345.666015625 132.669921875 353.333007812 127.669921875 360 121.002929688 c 0
 367.333007812 114.3359375 373 106.668945312 377 98.001953125 c 0
 380.333007812 89.3349609375 382 80.001953125 382 70.001953125 c 0
 382 59.3349609375 380.333007812 49.66796875 377 41.0009765625 c 0
 373 32.333984375 367.333007812 24.6669921875 360 18 c 0
EndSplineSet
EndChar

StartChar: slash
Encoding: 47 47 18
Width: 614
GlyphClass: 1
Flags: W
LayerCount: 2
Fore
SplineSet
65 -48 m 1
 261 347.333007812 392 610.666992188 458 742 c 1
 553 742 l 1
 356.333007812 347.333007812 225.333007812 84 160 -48 c 1
 65 -48 l 1
EndSplineSet
EndChar

StartChar: zero
Encoding: 48 48 19
Width: 614
GlyphClass: 1
Flags: W
LayerCount: 2
Fore
SplineSet
489 79 m 0
 469 48.3330078125 443.666992188 25.3388671875 413 10.005859375 c 0
 383 -5.3271484375 348 -12.994140625 308 -12.994140625 c 0
 268 -12.994140625 233 -5.3271484375 203 10.005859375 c 0
 173 25.3388671875 148 48.3388671875 128 79.005859375 c 0
 107.333007812 109.672851562 92 147.672851562 82 193.005859375 c 0
 72 237.672851562 67 290.005859375 67 350.005859375 c 0
 67 410.005859375 72 462.672851562 82 508.005859375 c 0
 92 554.005859375 107.333007812 592.338867188 128 623.005859375 c 0
 148 653.672851562 173 676.672851562 203 692.005859375 c 0
 233 707.338867188 268 715.005859375 308 715.005859375 c 0
 348 715.005859375 383 707.338867188 413 692.005859375 c 0
 443.666992188 676.672851562 469 653.672851562 489 623.005859375 c 0
 499.666992188 607.672851562 508.666992188 590.672851562 516 572.005859375 c 0
 523.333007812 553.338867188 529.666015625 532.671875 534.999023438 510.004882812 c 0
 539.666015625 487.337890625 543.333007812 462.670898438 546 436.00390625 c 0
 548.666992188 409.336914062 550 380.669921875 550 350.002929688 c 0
 550 319.3359375 548.666992188 290.668945312 546 264.001953125 c 0
 543.333007812 237.334960938 539.666015625 212.66796875 534.999023438 190.000976562 c 0
 529.666015625 168.000976562 523.333007812 147.66796875 516 129.000976562 c 0
 508.666992188 110.333984375 499.666992188 93.6669921875 489 79 c 0
167 247.005859375 m 1
 209 299.672851562 251 352.004882812 293 404.004882812 c 2
 419 560.004882812 l 1
 407.666992188 584.671875 392.666992188 602.671875 374 614.004882812 c 0
 355.333007812 626.004882812 333.333007812 632.004882812 308 632.004882812 c 0
 282.666992188 632.004882812 260.666992188 626.004882812 242 614.004882812 c 0
 223.333007812 602.671875 208 584.671875 196 560.004882812 c 0
 190 548.671875 184.666992188 535.671875 180 521.004882812 c 0
 176 506.337890625 172.333007812 490.004882812 169 472.004882812 c 0
 165.666992188 454.004882812 163 434.004882812 161 412.004882812 c 0
 159.666992188 390.671875 159 367.338867188 159 342.005859375 c 0
 159 326.005859375 159.666992188 310.005859375 161 294.005859375 c 0
 162.333007812 278.005859375 164.333007812 262.338867188 167 247.005859375 c 1
452 456.004882812 m 1
 410 403.337890625 368.000976562 351.005859375 326.000976562 299.005859375 c 0
 284.000976562 247.672851562 241.66796875 196.005859375 199.000976562 144.005859375 c 1
 211.000976562 119.338867188 226.333984375 101.338867188 245.000976562 90.005859375 c 0
 264.333984375 78.005859375 286.666992188 72.005859375 312 72.005859375 c 0
 336.666992188 72.005859375 358.333984375 78.005859375 377.000976562 90.005859375 c 0
 395.66796875 101.338867188 411.000976562 119.338867188 423.000976562 144.005859375 c 0
 429.000976562 156.005859375 434.333984375 169.005859375 439.000976562 183.005859375 c 0
 443.66796875 197.672851562 447.66796875 214.005859375 451.000976562 232.005859375 c 0
 454.333984375 250.005859375 456.666992188 270.005859375 458 292.005859375 c 0
 459.333007812 313.338867188 460 336.671875 460 362.004882812 c 0
 460 378.004882812 459.333007812 393.671875 458 409.004882812 c 0
 456.666992188 425.004882812 454.666992188 440.671875 452 456.004882812 c 1
EndSplineSet
EndChar

StartChar: one
Encoding: 49 49 20
Width: 614
GlyphClass: 1
Flags: W
LayerCount: 2
Fore
SplineSet
132 0 m 1
 132.000976562 82.0009765625 l 1
 276.000976562 82.0009765625 l 1
 276.000976562 594.000976562 l 1
 254.66796875 577.333984375 207.000976562 539.333984375 133.000976562 480.000976562 c 1
 132.333984375 534.66796875 132.000976562 573.000976562 132.000976562 595.000976562 c 1
 203.333984375 648.333984375 250.666992188 683.666992188 274 701 c 1
 368 701 l 1
 368 82 l 1
 510 82 l 1
 510 0 l 1
 132 0 l 1
EndSplineSet
EndChar

StartChar: two
Encoding: 50 50 21
Width: 614
GlyphClass: 1
Flags: W
LayerCount: 2
Fore
SplineSet
76 0 m 1
 75.9990234375 62.998046875 l 2
 75.9990234375 68.998046875 76.9990234375 74.3310546875 78.9990234375 78.998046875 c 0
 80.9990234375 83.6650390625 83.9990234375 87.998046875 87.9990234375 91.998046875 c 0
 97.9990234375 101.331054688 108.666015625 111.6640625 119.999023438 122.997070312 c 0
 130.666015625 134.330078125 142.666015625 146.330078125 155.999023438 158.997070312 c 2
 195.999023438 198.997070312 l 2
 209.999023438 213.6640625 224.666015625 228.6640625 239.999023438 243.997070312 c 0
 251.33203125 255.330078125 260.999023438 265.330078125 268.999023438 273.997070312 c 2
 290.999023438 295.997070312 l 2
 302.33203125 308.6640625 310.999023438 317.6640625 316.999023438 322.997070312 c 0
 320.33203125 325.6640625 323.665039062 328.997070312 326.998046875 332.997070312 c 0
 329.665039062 336.997070312 332.665039062 340.6640625 335.998046875 343.997070312 c 0
 344.665039062 353.997070312 352.665039062 363.330078125 359.998046875 371.997070312 c 0
 366.665039062 380.6640625 372.665039062 388.331054688 377.998046875 394.998046875 c 0
 383.331054688 402.331054688 387.998046875 409.331054688 391.998046875 415.998046875 c 0
 395.998046875 422.665039062 399.665039062 429.33203125 402.998046875 435.999023438 c 0
 408.998046875 448.666015625 413.331054688 460.999023438 415.998046875 472.999023438 c 0
 419.331054688 485.666015625 420.998046875 497.999023438 420.998046875 509.999023438 c 0
 420.998046875 529.33203125 417.998046875 546.665039062 411.998046875 561.998046875 c 0
 405.998046875 576.665039062 396.665039062 589.665039062 383.998046875 600.998046875 c 0
 373.331054688 610.998046875 358.6640625 619.331054688 339.997070312 625.998046875 c 0
 323.330078125 631.998046875 305.997070312 634.998046875 287.997070312 634.998046875 c 2
 282.997070312 634.998046875 l 2
 254.997070312 634.998046875 222.997070312 627.665039062 186.997070312 612.998046875 c 0
 153.6640625 599.665039062 118.331054688 582.665039062 80.998046875 561.998046875 c 1
 80.3310546875 600.665039062 79.998046875 629.665039062 79.998046875 648.998046875 c 1
 92.6650390625 655.665039062 106.998046875 662.998046875 122.998046875 670.998046875 c 0
 148.331054688 682.998046875 168.331054688 691.665039062 182.998046875 696.998046875 c 0
 199.665039062 702.331054688 215.998046875 706.331054688 231.998046875 708.998046875 c 0
 256.665039062 712.331054688 278.33203125 713.998046875 296.999023438 713.998046875 c 0
 309.666015625 713.998046875 321.333007812 713.331054688 332 711.998046875 c 0
 346 709.998046875 361.666992188 706.331054688 379 700.998046875 c 0
 394.333007812 696.998046875 408.666015625 691.331054688 421.999023438 683.998046875 c 0
 435.33203125 676.665039062 447.665039062 668.33203125 458.998046875 658.999023438 c 0
 468.998046875 650.999023438 477.998046875 641.999023438 485.998046875 631.999023438 c 0
 493.998046875 621.999023438 500.998046875 610.999023438 506.998046875 598.999023438 c 0
 512.998046875 586.999023438 517.331054688 574.33203125 519.998046875 560.999023438 c 0
 522.665039062 546.999023438 523.998046875 532.666015625 523.998046875 517.999023438 c 0
 523.998046875 502.666015625 522.331054688 487.333007812 518.998046875 472 c 0
 515.665039062 456 510.33203125 440.333007812 502.999023438 425 c 0
 496.999023438 413 492.666015625 405.333007812 489.999023438 402 c 0
 484.666015625 395.333007812 479.333007812 388 474 380 c 0
 468.666992188 372 462.333984375 363.666992188 455.000976562 355 c 0
 447.66796875 346.333007812 439.334960938 337 430.001953125 327 c 0
 425.334960938 321.666992188 420.001953125 316 414.001953125 310 c 0
 408.001953125 304 401.668945312 297.333007812 395.001953125 290 c 0
 388.334960938 282.666992188 381.334960938 275 374.001953125 267 c 2
 349.001953125 242 l 2
 343.001953125 235.333007812 337.001953125 229 331.001953125 223 c 2
 313.001953125 207 l 2
 307.001953125 202.333007812 301.668945312 197 297.001953125 191 c 0
 292.334960938 185 286.66796875 179.333007812 280.000976562 174 c 0
 273.333984375 168.666992188 266.666992188 163 260 157 c 0
 254 151 247.666992188 144.333007812 241 137 c 0
 234.333007812 129.666992188 226.333007812 121.666992188 217 113 c 2
 186 82 l 1
 542 82 l 1
 542 0 l 1
 76 0 l 1
EndSplineSet
EndChar

StartChar: three
Encoding: 51 51 22
Width: 614
GlyphClass: 1
Flags: W
LayerCount: 2
Fore
SplineSet
394 0 m 0
 378 -4.6669921875 360.6640625 -8 341.997070312 -10 c 0
 323.330078125 -12 303.663085938 -13 282.99609375 -13 c 2
 257.99609375 -13 l 2
 249.99609375 -12.3330078125 241.329101562 -11.666015625 231.99609375 -10.9990234375 c 2
 205.99609375 -8.9990234375 l 2
 197.329101562 -7.666015625 188.329101562 -6.3330078125 178.99609375 -5 c 0
 171.663085938 -4.3330078125 163.663085938 -2.666015625 154.99609375 0.0009765625 c 0
 146.99609375 2.0009765625 138.329101562 4.0009765625 128.99609375 6.0009765625 c 0
 119.663085938 8.0009765625 110.663085938 10.333984375 101.99609375 13.0009765625 c 0
 93.3291015625 15.66796875 84.3291015625 18.66796875 74.99609375 22.0009765625 c 1
 74.99609375 117.000976562 l 1
 83.6630859375 113.000976562 91.99609375 109.000976562 99.99609375 105.000976562 c 0
 108.663085938 101.66796875 116.99609375 98.3349609375 124.99609375 95.001953125 c 0
 132.99609375 92.3349609375 141.329101562 89.3349609375 149.99609375 86.001953125 c 0
 157.99609375 83.3349609375 166.329101562 81.001953125 174.99609375 79.001953125 c 0
 182.99609375 77.001953125 191.329101562 75.001953125 199.99609375 73.001953125 c 0
 207.99609375 71.6689453125 215.99609375 70.6689453125 223.99609375 70.001953125 c 0
 232.663085938 68.6689453125 240.99609375 67.6689453125 248.99609375 67.001953125 c 2
 272.99609375 67.001953125 l 2
 300.99609375 67.001953125 325.663085938 69.6689453125 346.99609375 75.001953125 c 0
 368.329101562 81.001953125 386.329101562 89.6689453125 400.99609375 101.001953125 c 0
 416.329101562 113.001953125 427.662109375 127.334960938 434.995117188 144.001953125 c 0
 441.662109375 160.668945312 444.995117188 180.001953125 444.995117188 202.001953125 c 0
 444.995117188 222.668945312 441.662109375 241.3359375 434.995117188 258.002929688 c 0
 427.662109375 274.002929688 416.329101562 288.002929688 400.99609375 300.002929688 c 0
 386.329101562 312.002929688 368.99609375 321.002929688 348.99609375 327.002929688 c 0
 328.99609375 333.002929688 306.329101562 336.002929688 280.99609375 336.002929688 c 2
 203.99609375 336.002929688 l 1
 203.99609375 414.002929688 l 1
 280.99609375 414.002929688 l 2
 304.329101562 414.002929688 324.99609375 416.3359375 342.99609375 421.002929688 c 0
 360.99609375 425.669921875 376.329101562 432.669921875 388.99609375 442.002929688 c 0
 401.663085938 451.3359375 411.330078125 463.002929688 417.997070312 477.002929688 c 0
 424.6640625 490.3359375 427.997070312 506.002929688 427.997070312 524.002929688 c 0
 427.997070312 542.002929688 424.997070312 557.669921875 418.997070312 571.002929688 c 0
 412.997070312 585.002929688 403.997070312 596.669921875 391.997070312 606.002929688 c 0
 380.6640625 616.002929688 365.997070312 623.3359375 347.997070312 628.002929688 c 0
 330.6640625 632.669921875 310.331054688 635.002929688 286.998046875 635.002929688 c 0
 272.998046875 635.002929688 258.665039062 634.002929688 243.998046875 632.002929688 c 0
 228.665039062 630.002929688 212.998046875 627.669921875 196.998046875 625.002929688 c 0
 180.998046875 621.669921875 164.665039062 618.002929688 147.998046875 614.002929688 c 0
 131.331054688 609.3359375 114.331054688 603.668945312 96.998046875 597.001953125 c 1
 96.998046875 684.001953125 l 1
 117.665039062 689.334960938 136.665039062 693.66796875 153.998046875 697.000976562 c 0
 171.998046875 701.000976562 188.998046875 704.333984375 204.998046875 707.000976562 c 0
 219.665039062 709.000976562 233.998046875 711.000976562 247.998046875 713.000976562 c 0
 262.665039062 714.333984375 276.665039062 715.000976562 289.998046875 715.000976562 c 0
 307.331054688 715.000976562 323.998046875 713.66796875 339.998046875 711.000976562 c 0
 355.998046875 709.000976562 371.331054688 705.66796875 385.998046875 701.000976562 c 0
 400.665039062 697.000976562 414.665039062 692.000976562 427.998046875 686.000976562 c 0
 441.331054688 680.000976562 453.331054688 672.66796875 463.998046875 664.000976562 c 0
 485.331054688 646.66796875 501.331054688 626.66796875 511.998046875 604.000976562 c 0
 522.665039062 581.333984375 527.998046875 555.666992188 527.998046875 527 c 0
 527.998046875 517 527.331054688 507.666992188 525.998046875 499 c 0
 524.665039062 489.666992188 522.33203125 481 518.999023438 473 c 0
 516.33203125 465 512.665039062 457.333007812 507.998046875 450 c 0
 503.998046875 442.666992188 499.331054688 436 493.998046875 430 c 0
 482.665039062 417.333007812 468.665039062 406.666015625 451.998046875 397.999023438 c 0
 435.331054688 388.666015625 415.998046875 381.333007812 393.998046875 376 c 1
 418.665039062 370 440.33203125 361.333007812 458.999023438 350 c 0
 478.33203125 338.666992188 494.33203125 325.333984375 506.999023438 310.000976562 c 0
 513.666015625 302.000976562 519.333007812 293.66796875 524 285.000976562 c 0
 529.333007812 276.333984375 533.666015625 267.000976562 536.999023438 257.000976562 c 0
 539.666015625 247.000976562 541.666015625 236.66796875 542.999023438 226.000976562 c 0
 544.999023438 215.333984375 545.999023438 204.666992188 545.999023438 194 c 0
 545.999023438 162 540.33203125 133.333007812 528.999023438 108 c 0
 517.666015625 82.6669921875 500.333007812 60.6669921875 477 42 c 0
 465.666992188 32.6669921875 453 24.6669921875 439 18 c 0
 425 10.6669921875 410 4.6669921875 394 0 c 0
EndSplineSet
EndChar

StartChar: four
Encoding: 52 52 23
Width: 614
GlyphClass: 1
Flags: W
LayerCount: 2
Fore
SplineSet
367 0 m 1
 367 167.000976562 l 1
 40 167.000976562 l 1
 40 265.000976562 l 1
 63.3330078125 301.000976562 92 345.66796875 126 399.000976562 c 0
 160.666992188 452.333984375 194.666992188 504.666992188 228 556 c 0
 246 584 263 610.333007812 279 635 c 0
 295 660.333007812 309.333007812 682.333007812 322 701 c 1
 457 701 l 1
 457 245 l 1
 576 245 l 1
 576 167 l 1
 457 167 l 1
 457 0 l 1
 367 0 l 1
136 245.000976562 m 1
 378.000976562 245.002929688 l 1
 378.000976562 615.002929688 l 1
 365.333984375 597.002929688 348.666992188 572.3359375 328 541.002929688 c 0
 307.333007812 510.3359375 291 485.668945312 279 467.001953125 c 0
 267 449.001953125 252.333007812 426.334960938 235 399.001953125 c 0
 217.666992188 371.668945312 200.666992188 345.001953125 184 319.001953125 c 0
 174.666992188 304.334960938 166 290.66796875 158 278.000976562 c 0
 150 265.333984375 142.666992188 254.333984375 136 245.000976562 c 1
EndSplineSet
EndChar

StartChar: five
Encoding: 53 53 24
Width: 614
GlyphClass: 1
Flags: W
LayerCount: 2
Fore
SplineSet
380 3 m 0
 363.333007812 -2.3330078125 345.340820312 -6.3359375 326.0078125 -9.0029296875 c 0
 306.0078125 -11.669921875 284.674804688 -13.0029296875 262.0078125 -13.0029296875 c 2
 238.0078125 -13.0029296875 l 2
 230.0078125 -12.3359375 221.340820312 -11.6689453125 212.0078125 -11.001953125 c 0
 202.674804688 -10.3349609375 193.674804688 -9.66796875 185.0078125 -9.0009765625 c 0
 176.340820312 -8.333984375 168.0078125 -7.333984375 160.0078125 -6.0009765625 c 0
 151.340820312 -5.333984375 143.0078125 -4.0009765625 135.0078125 -2.0009765625 c 0
 127.0078125 -0.66796875 119.674804688 0.9990234375 113.0078125 2.9990234375 c 0
 105.674804688 4.9990234375 98.6748046875 6.9990234375 92.0078125 8.9990234375 c 0
 85.3408203125 11.666015625 78.673828125 13.9990234375 72.0068359375 15.9990234375 c 1
 72.0068359375 112.999023438 l 1
 87.33984375 104.999023438 102.672851562 97.9990234375 118.005859375 91.9990234375 c 0
 133.338867188 85.9990234375 148.671875 81.33203125 164.004882812 77.9990234375 c 0
 179.337890625 73.9990234375 194.670898438 70.9990234375 210.00390625 68.9990234375 c 0
 225.336914062 67.666015625 240.669921875 66.9990234375 256.002929688 66.9990234375 c 0
 285.3359375 66.9990234375 311.002929688 70.33203125 333.002929688 76.9990234375 c 0
 355.002929688 83.666015625 373.3359375 93.9990234375 388.002929688 107.999023438 c 0
 402.669921875 121.33203125 414.002929688 137.665039062 422.002929688 156.998046875 c 0
 429.3359375 176.998046875 433.002929688 199.331054688 433.002929688 223.998046875 c 0
 433.002929688 237.998046875 432.002929688 250.665039062 430.002929688 261.998046875 c 0
 428.002929688 273.331054688 425.002929688 283.998046875 421.002929688 293.998046875 c 0
 417.002929688 303.331054688 412.002929688 312.331054688 406.002929688 320.998046875 c 0
 400.002929688 328.998046875 393.3359375 336.331054688 386.002929688 342.998046875 c 0
 378.669921875 348.998046875 370.669921875 354.665039062 362.002929688 359.998046875 c 0
 353.3359375 364.665039062 343.668945312 368.998046875 333.001953125 372.998046875 c 0
 322.334960938 376.331054688 310.334960938 378.998046875 297.001953125 380.998046875 c 0
 283.668945312 382.998046875 269.3359375 383.998046875 254.002929688 383.998046875 c 0
 241.3359375 383.998046875 228.668945312 383.331054688 216.001953125 381.998046875 c 0
 202.668945312 380.665039062 189.668945312 378.665039062 177.001953125 375.998046875 c 0
 164.334960938 372.665039062 151.66796875 368.665039062 139.000976562 363.998046875 c 0
 126.333984375 359.998046875 114.333984375 354.998046875 103.000976562 348.998046875 c 1
 103.000976562 700.998046875 l 1
 494.000976562 700.998046875 l 1
 494.000976562 621.998046875 l 1
 196.000976562 621.998046875 l 1
 196.000976562 449.998046875 l 1
 202.66796875 451.998046875 209.66796875 453.998046875 217.000976562 455.998046875 c 0
 224.333984375 457.998046875 231.666992188 459.665039062 239 460.998046875 c 0
 245 461.665039062 251.666992188 462.33203125 259 462.999023438 c 0
 266.333007812 463.666015625 274.333007812 463.999023438 283 463.999023438 c 0
 303 463.999023438 321.666992188 462.33203125 339 458.999023438 c 0
 357 456.33203125 373.666992188 451.999023438 389 445.999023438 c 0
 404.333007812 440.666015625 418.333007812 433.999023438 431 425.999023438 c 0
 444.333007812 417.999023438 456.333007812 408.999023438 467 398.999023438 c 0
 489.666992188 377.666015625 506.666992188 352.666015625 518 323.999023438 c 0
 529.333007812 295.33203125 535 262.665039062 535 225.998046875 c 0
 535 188.665039062 529 155.33203125 517 125.999023438 c 0
 505 96.666015625 487.333007812 71.3330078125 464 50 c 0
 452.666992188 40 440 31 426 23 c 0
 411.333007812 15.6669921875 396 9 380 3 c 0
EndSplineSet
EndChar

StartChar: six
Encoding: 54 54 25
Width: 614
GlyphClass: 1
Flags: W
LayerCount: 2
Fore
SplineSet
489 50 m 0
 469.666992188 29.3330078125 445.333007812 14.328125 416 4.9951171875 c 0
 386.666992188 -5.0048828125 353.333984375 -10.0048828125 316.000976562 -10.0048828125 c 0
 293.333984375 -10.0048828125 272.666992188 -8.337890625 254 -5.0048828125 c 0
 235.333007812 -1.0048828125 218.333007812 4.328125 203 10.9951171875 c 0
 187.666992188 18.328125 173.666992188 27.328125 161 37.9951171875 c 0
 149 47.9951171875 138 60.328125 128 74.9951171875 c 0
 117.333007812 90.328125 108 107.328125 100 125.995117188 c 0
 92.6669921875 144.662109375 86.333984375 164.995117188 81.0009765625 186.995117188 c 0
 75.66796875 208.995117188 72.0009765625 232.995117188 70.0009765625 258.995117188 c 0
 68.0009765625 284.328125 67.0009765625 311.328125 67.0009765625 339.995117188 c 0
 67.0009765625 403.328125 74.333984375 457.995117188 89.0009765625 503.995117188 c 0
 103.66796875 549.995117188 126.000976562 586.995117188 156.000976562 614.995117188 c 0
 185.333984375 643.662109375 216.333984375 665.329101562 249.000976562 679.99609375 c 0
 281.66796875 694.663085938 315.000976562 701.99609375 349.000976562 701.99609375 c 0
 355.000976562 701.99609375 361.000976562 702.329101562 367.000976562 702.99609375 c 2
 387.000976562 702.99609375 l 1
 393.000976562 702.99609375 l 1
 409.000976562 702.99609375 l 2
 414.333984375 702.329101562 419.333984375 701.329101562 424.000976562 699.99609375 c 0
 430.66796875 699.329101562 437.000976562 698.329101562 443.000976562 696.99609375 c 0
 449.66796875 695.663085938 456.000976562 693.99609375 462.000976562 691.99609375 c 0
 468.000976562 690.663085938 473.66796875 689.330078125 479.000976562 687.997070312 c 0
 485.000976562 686.6640625 490.66796875 684.997070312 496.000976562 682.997070312 c 1
 496.000976562 594.997070312 l 1
 484.66796875 600.997070312 473.66796875 606.330078125 463.000976562 610.997070312 c 0
 451.66796875 614.997070312 440.000976562 618.6640625 428.000976562 621.997070312 c 0
 422.66796875 623.330078125 416.66796875 624.330078125 410.000976562 624.997070312 c 0
 404.000976562 626.330078125 398.000976562 626.997070312 392.000976562 626.997070312 c 2
 373.000976562 626.997070312 l 2
 367.000976562 627.6640625 361.000976562 627.997070312 355.000976562 627.997070312 c 0
 330.333984375 627.330078125 306.000976562 620.997070312 282.000976562 608.997070312 c 0
 258.66796875 596.330078125 235.66796875 578.330078125 213.000976562 554.997070312 c 1
 196.333984375 531.6640625 183.666992188 504.331054688 175 472.998046875 c 0
 165.666992188 441.665039062 160.666992188 406.33203125 160 366.999023438 c 1
 168 382.33203125 177.333007812 395.999023438 188 407.999023438 c 0
 199.333007812 419.999023438 212 430.33203125 226 438.999023438 c 0
 240.666992188 447.666015625 256.333984375 453.999023438 273.000976562 457.999023438 c 0
 289.66796875 461.999023438 308.000976562 463.999023438 328.000976562 463.999023438 c 0
 362.000976562 463.999023438 392.66796875 458.666015625 420.000976562 447.999023438 c 0
 447.333984375 437.999023438 470.666992188 422.33203125 490 400.999023438 c 0
 510 380.33203125 525 355.33203125 535 325.999023438 c 0
 545 296.666015625 550 263.333007812 550 226 c 0
 550 188 545 154.333007812 535 125 c 0
 524.333007812 95.6669921875 509 70.6669921875 489 50 c 0
255.999023438 75.9951171875 m 0
 264.666015625 71.9951171875 273.998046875 68.99609375 283.998046875 66.99609375 c 0
 294.665039062 65.6630859375 305.33203125 64.99609375 315.999023438 64.99609375 c 0
 337.999023438 64.99609375 357.666015625 68.3291015625 374.999023438 74.99609375 c 0
 391.666015625 82.3291015625 405.666015625 92.662109375 416.999023438 105.995117188 c 0
 428.33203125 119.995117188 436.665039062 136.995117188 441.998046875 156.995117188 c 0
 447.998046875 176.995117188 450.998046875 199.662109375 450.998046875 224.995117188 c 0
 450.998046875 252.328125 447.998046875 276.328125 441.998046875 296.995117188 c 0
 436.665039062 316.995117188 428.33203125 333.995117188 416.999023438 347.995117188 c 0
 410.999023438 355.328125 404.666015625 361.661132812 397.999023438 366.994140625 c 0
 390.666015625 372.327148438 382.666015625 376.66015625 373.999023438 379.993164062 c 0
 365.33203125 383.326171875 356.33203125 385.659179688 346.999023438 386.9921875 c 0
 337.666015625 388.325195312 327.666015625 388.9921875 316.999023438 388.9921875 c 0
 305.666015625 388.9921875 294.666015625 387.9921875 283.999023438 385.9921875 c 0
 273.999023438 383.9921875 264.666015625 381.325195312 255.999023438 377.9921875 c 0
 247.33203125 373.9921875 239.665039062 369.325195312 232.998046875 363.9921875 c 0
 225.665039062 358.659179688 219.33203125 352.659179688 213.999023438 345.9921875 c 0
 208.666015625 339.325195312 203.333007812 331.658203125 198 322.991210938 c 0
 193.333007812 314.32421875 189.333007812 304.991210938 186 294.991210938 c 0
 183.333007812 284.991210938 181 273.991210938 179 261.991210938 c 0
 177.666992188 250.658203125 177 238.325195312 177 224.9921875 c 0
 177 211.659179688 177.666992188 199.326171875 179 187.993164062 c 0
 181 176.66015625 183.333007812 166.327148438 186 156.994140625 c 0
 189.333007812 146.994140625 193.333007812 137.994140625 198 129.994140625 c 0
 203.333007812 121.994140625 208.666015625 114.661132812 213.999023438 107.994140625 c 0
 219.33203125 101.327148438 225.665039062 94.994140625 232.998046875 88.994140625 c 0
 239.665039062 83.6611328125 247.33203125 79.328125 255.999023438 75.9951171875 c 0
EndSplineSet
EndChar

StartChar: seven
Encoding: 55 55 26
Width: 614
GlyphClass: 1
Flags: W
LayerCount: 2
Fore
SplineSet
167 0 m 1
 187.666992188 50.6669921875 214 114.001953125 246 190.001953125 c 0
 278 266.668945312 309.666992188 341.668945312 341 415.001953125 c 0
 357 454.334960938 372.666992188 491.66796875 388 527.000976562 c 0
 402.666992188 563.000976562 415.666992188 594.66796875 427 622.000976562 c 1
 70 622.000976562 l 1
 70 701.000976562 l 1
 540 701.000976562 l 1
 540 662.000976562 l 1
 518 608.000976562 490.666992188 540.333984375 458 459.000976562 c 0
 425.333007812 378.333984375 393 298.666992188 361 220 c 0
 344.333007812 178 328.333007812 138 313 100 c 0
 297.666992188 62 284 28.6669921875 272 0 c 1
 167 0 l 1
EndSplineSet
EndChar

StartChar: eight
Encoding: 56 56 27
Width: 614
GlyphClass: 1
Flags: W
LayerCount: 2
Fore
SplineSet
486 40 m 0
 464.666992188 22 438.995117188 8.6689453125 408.995117188 0.001953125 c 0
 378.995117188 -8.6650390625 344.995117188 -12.998046875 306.995117188 -12.998046875 c 0
 268.995117188 -12.998046875 235.328125 -8.6650390625 205.995117188 0.001953125 c 0
 176.662109375 8.6689453125 151.329101562 21.6689453125 129.99609375 39.001953125 c 0
 108.663085938 56.3349609375 92.6630859375 77.66796875 81.99609375 103.000976562 c 0
 71.3291015625 127.66796875 65.99609375 156.000976562 65.99609375 188.000976562 c 0
 65.99609375 213.333984375 69.3291015625 236.000976562 75.99609375 256.000976562 c 0
 82.6630859375 276.000976562 92.330078125 294.000976562 104.997070312 310.000976562 c 0
 112.997070312 326.000976562 125.330078125 339.333984375 141.997070312 350.000976562 c 0
 157.997070312 360.000976562 178.6640625 367.66796875 203.997070312 373.000976562 c 1
 193.330078125 375.66796875 184.330078125 378.66796875 176.997070312 382.000976562 c 0
 168.997070312 385.333984375 161.997070312 389.333984375 155.997070312 394.000976562 c 0
 149.330078125 398.66796875 143.330078125 404.000976562 137.997070312 410.000976562 c 0
 131.997070312 416.000976562 125.997070312 422.66796875 119.997070312 430.000976562 c 0
 113.997070312 437.333984375 108.6640625 445.000976562 103.997070312 453.000976562 c 0
 99.330078125 461.000976562 95.330078125 469.333984375 91.9970703125 478.000976562 c 0
 89.330078125 486.66796875 86.9970703125 496.000976562 84.9970703125 506.000976562 c 0
 83.6640625 515.333984375 82.9970703125 525.000976562 82.9970703125 535.000976562 c 0
 82.9970703125 561.66796875 87.9970703125 586.000976562 97.9970703125 608.000976562 c 0
 107.997070312 630.000976562 122.997070312 649.333984375 142.997070312 666.000976562 c 0
 152.997070312 674.000976562 163.997070312 681.000976562 175.997070312 687.000976562 c 0
 187.330078125 692.333984375 199.997070312 697.000976562 213.997070312 701.000976562 c 0
 227.997070312 705.66796875 242.6640625 709.000976562 257.997070312 711.000976562 c 0
 273.330078125 713.66796875 289.997070312 715.000976562 307.997070312 715.000976562 c 0
 342.6640625 715.000976562 373.997070312 710.66796875 401.997070312 702.000976562 c 0
 429.330078125 694.000976562 452.997070312 682.000976562 472.997070312 666.000976562 c 0
 492.997070312 649.333984375 507.997070312 630.000976562 517.997070312 608.000976562 c 0
 528.6640625 586.000976562 533.997070312 561.333984375 533.997070312 534.000976562 c 0
 533.997070312 513.333984375 531.6640625 494.333984375 526.997070312 477.000976562 c 0
 522.330078125 459.66796875 515.330078125 444.000976562 505.997070312 430.000976562 c 0
 496.6640625 416.000976562 484.331054688 404.333984375 468.998046875 395.000976562 c 0
 453.665039062 385.000976562 434.998046875 377.66796875 412.998046875 373.000976562 c 1
 437.665039062 367.66796875 459.33203125 360.000976562 477.999023438 350.000976562 c 0
 495.999023438 339.333984375 509.999023438 326.000976562 519.999023438 310.000976562 c 0
 530.666015625 294.000976562 538.333007812 276.000976562 543 256.000976562 c 0
 548.333007812 236.000976562 551 213.66796875 551 189.000976562 c 0
 551 173.000976562 549.666992188 157.66796875 547 143.000976562 c 0
 544.333007812 128.333984375 540.333007812 114.666992188 535 102 c 0
 529 90 522 78.6669921875 514 68 c 0
 506 58 496.666992188 48.6669921875 486 40 c 0
214.995117188 437.001953125 m 0
 225.662109375 427.668945312 238.995117188 420.3359375 254.995117188 415.002929688 c 0
 270.328125 410.3359375 287.995117188 408.002929688 307.995117188 408.002929688 c 0
 328.662109375 408.002929688 346.662109375 410.3359375 361.995117188 415.002929688 c 0
 377.328125 420.3359375 390.328125 427.668945312 400.995117188 437.001953125 c 0
 412.328125 447.001953125 420.328125 459.001953125 424.995117188 473.001953125 c 0
 430.328125 487.668945312 432.995117188 504.3359375 432.995117188 523.002929688 c 0
 432.995117188 542.3359375 430.328125 559.3359375 424.995117188 574.002929688 c 0
 420.328125 588.669921875 412.328125 601.002929688 400.995117188 611.002929688 c 0
 390.328125 621.669921875 377.328125 629.336914062 361.995117188 634.00390625 c 0
 346.662109375 638.670898438 328.662109375 641.00390625 307.995117188 641.00390625 c 0
 287.995117188 641.00390625 270.328125 638.670898438 254.995117188 634.00390625 c 0
 238.995117188 629.336914062 225.662109375 621.669921875 214.995117188 611.002929688 c 0
 204.328125 601.002929688 196.328125 588.669921875 190.995117188 574.002929688 c 0
 185.662109375 559.3359375 182.995117188 542.3359375 182.995117188 523.002929688 c 0
 182.995117188 504.3359375 185.662109375 487.668945312 190.995117188 473.001953125 c 0
 196.328125 459.001953125 204.328125 447.001953125 214.995117188 437.001953125 c 0
203.995117188 97.001953125 m 0
 216.662109375 85.001953125 231.663085938 76.00390625 248.99609375 70.00390625 c 0
 266.329101562 63.3369140625 286.329101562 60.00390625 308.99609375 60.00390625 c 0
 330.99609375 60.00390625 350.663085938 63.3369140625 367.99609375 70.00390625 c 0
 385.329101562 76.00390625 400.329101562 84.6708984375 412.99609375 96.00390625 c 0
 424.99609375 108.00390625 433.99609375 122.336914062 439.99609375 139.00390625 c 0
 446.663085938 155.670898438 449.99609375 175.00390625 449.99609375 197.00390625 c 0
 449.99609375 208.336914062 448.99609375 219.00390625 446.99609375 229.00390625 c 0
 444.99609375 239.00390625 442.329101562 248.00390625 438.99609375 256.00390625 c 0
 436.329101562 264.00390625 432.662109375 271.670898438 427.995117188 279.00390625 c 0
 423.328125 286.336914062 418.328125 292.669921875 412.995117188 298.002929688 c 0
 400.328125 310.002929688 385.328125 318.669921875 367.995117188 324.002929688 c 0
 350.662109375 330.002929688 330.662109375 333.002929688 307.995117188 333.002929688 c 0
 285.328125 333.002929688 265.328125 330.002929688 247.995117188 324.002929688 c 0
 230.662109375 318.669921875 215.995117188 310.002929688 203.995117188 298.002929688 c 0
 191.328125 286.002929688 181.995117188 271.669921875 175.995117188 255.002929688 c 0
 169.995117188 238.3359375 166.995117188 219.3359375 166.995117188 198.002929688 c 0
 166.995117188 176.002929688 169.995117188 157.002929688 175.995117188 141.002929688 c 0
 181.995117188 124.3359375 191.328125 109.668945312 203.995117188 97.001953125 c 0
EndSplineSet
EndChar

StartChar: nine
Encoding: 57 57 28
Width: 614
GlyphClass: 1
Flags: W
LayerCount: 2
Fore
SplineSet
465 82 m 0
 445.666992188 55.3330078125 420.33203125 34.330078125 388.999023438 18.9970703125 c 0
 357.666015625 4.330078125 320.999023438 -4.3369140625 278.999023438 -7.00390625 c 0
 266.999023438 -6.3369140625 256.999023438 -5.669921875 248.999023438 -5.0029296875 c 2
 228.999023438 -5.0029296875 l 2
 224.33203125 -5.0029296875 219.33203125 -4.669921875 213.999023438 -4.0029296875 c 0
 207.999023438 -4.0029296875 201.666015625 -3.669921875 194.999023438 -3.0029296875 c 0
 180.999023438 -0.3359375 167.666015625 2.3310546875 154.999023438 4.998046875 c 0
 141.666015625 7.6650390625 129.333007812 10.33203125 118 12.9990234375 c 1
 118 90.9990234375 l 1
 129.333007812 86.33203125 141 82.33203125 153 78.9990234375 c 0
 164.333007812 74.9990234375 175 71.9990234375 185 69.9990234375 c 0
 197.666992188 69.33203125 210 68.6650390625 222 67.998046875 c 0
 234 67.3310546875 246 66.998046875 258 66.998046875 c 0
 286.666992188 67.6650390625 312.333984375 73.998046875 335.000976562 85.998046875 c 0
 358.333984375 97.3310546875 378.000976562 114.331054688 394.000976562 136.998046875 c 0
 410.66796875 160.331054688 424.000976562 188.331054688 434.000976562 220.998046875 c 0
 443.333984375 252.998046875 450.000976562 290.665039062 454.000976562 333.998046875 c 1
 450.000976562 325.998046875 445.66796875 318.331054688 441.000976562 310.998046875 c 0
 435.66796875 304.331054688 430.334960938 297.998046875 425.001953125 291.998046875 c 0
 419.668945312 285.998046875 413.668945312 280.331054688 407.001953125 274.998046875 c 0
 400.334960938 270.331054688 393.66796875 265.998046875 387.000976562 261.998046875 c 0
 373.000976562 253.998046875 357.66796875 247.665039062 341.000976562 242.998046875 c 0
 323.66796875 238.998046875 305.000976562 236.998046875 285.000976562 236.998046875 c 0
 251.000976562 236.998046875 220.333984375 241.998046875 193.000976562 251.998046875 c 0
 166.333984375 262.665039062 143.000976562 278.33203125 123.000976562 298.999023438 c 0
 103.000976562 319.666015625 88.0009765625 344.999023438 78.0009765625 374.999023438 c 0
 68.0009765625 404.33203125 63.0009765625 437.665039062 63.0009765625 474.998046875 c 0
 63.0009765625 493.665039062 64.333984375 511.33203125 67.0009765625 527.999023438 c 0
 69.0009765625 543.999023438 72.66796875 559.666015625 78.0009765625 574.999023438 c 0
 83.333984375 590.999023438 89.6669921875 605.33203125 97 617.999023438 c 0
 105 630.666015625 114.333007812 642.333007812 125 653 c 0
 145 673.666992188 169.333007812 689 198 699 c 0
 226 709.666992188 259 715 297 715 c 0
 320.333007812 715 341.333007812 713 360 709 c 0
 378.666992188 705 395.666992188 699 411 691 c 0
 426.333007812 683.666992188 440.333007812 674.333984375 453 663.000976562 c 0
 465.666992188 652.333984375 476.666992188 640.000976562 486 626.000976562 c 0
 497.333007812 610.000976562 506.666015625 592.66796875 513.999023438 574.000976562 c 0
 521.999023438 555.333984375 527.999023438 534.666992188 531.999023438 512 c 0
 536.666015625 489.333007812 540.333007812 465.333007812 543 440 c 0
 545.666992188 415.333007812 547 388.666015625 547 359.999023438 c 0
 547 329.33203125 545 300.33203125 541 272.999023438 c 0
 537.666992188 245.666015625 532 220.666015625 524 197.999023438 c 0
 516.666992188 174.666015625 508 153.333007812 498 134 c 0
 488 115.333007812 477 98 465 82 c 0
196.998046875 351.997070312 m 0
 207.665039062 338.6640625 221.330078125 328.330078125 237.997070312 320.997070312 c 0
 255.330078125 314.330078125 274.997070312 310.997070312 296.997070312 310.997070312 c 0
 308.997070312 310.997070312 319.6640625 311.997070312 328.997070312 313.997070312 c 0
 338.997070312 315.997070312 348.330078125 318.997070312 356.997070312 322.997070312 c 0
 365.6640625 326.330078125 373.6640625 330.663085938 380.997070312 335.99609375 c 0
 387.6640625 341.329101562 393.6640625 347.329101562 398.997070312 353.99609375 c 0
 411.6640625 368.663085938 420.997070312 385.99609375 426.997070312 405.99609375 c 0
 432.997070312 425.99609375 435.997070312 448.99609375 435.997070312 474.99609375 c 0
 435.997070312 500.99609375 432.997070312 524.329101562 426.997070312 544.99609375 c 0
 420.997070312 564.99609375 411.6640625 582.329101562 398.997070312 596.99609375 c 0
 393.6640625 603.663085938 387.6640625 609.663085938 380.997070312 614.99609375 c 0
 373.6640625 620.329101562 365.6640625 624.99609375 356.997070312 628.99609375 c 0
 348.330078125 632.329101562 338.997070312 634.99609375 328.997070312 636.99609375 c 0
 319.6640625 638.99609375 308.997070312 639.99609375 296.997070312 639.99609375 c 0
 286.997070312 639.99609375 276.997070312 638.99609375 266.997070312 636.99609375 c 0
 257.6640625 634.99609375 248.6640625 632.663085938 239.997070312 629.99609375 c 0
 231.330078125 626.663085938 223.330078125 622.330078125 215.997070312 616.997070312 c 0
 208.6640625 612.330078125 202.331054688 606.330078125 196.998046875 598.997070312 c 0
 185.665039062 584.997070312 176.998046875 567.6640625 170.998046875 546.997070312 c 0
 165.665039062 526.330078125 162.998046875 502.330078125 162.998046875 474.997070312 c 0
 162.998046875 447.6640625 165.665039062 423.997070312 170.998046875 403.997070312 c 0
 176.998046875 383.330078125 185.665039062 365.997070312 196.998046875 351.997070312 c 0
EndSplineSet
EndChar

StartChar: colon
Encoding: 58 58 29
Width: 614
GlyphClass: 1
Flags: W
LayerCount: 2
Fore
SplineSet
362 130 m 0
 355.333007812 123.333007812 347.66796875 118.333007812 339.000976562 115 c 0
 330.333984375 112.333007812 320.666992188 111 310 111 c 0
 300 111 290.666992188 112.333007812 282 115 c 0
 274 118.333007812 266.666992188 123.333007812 260 130 c 0
 253.333007812 136.666992188 248.333007812 144.333984375 245 153.000976562 c 0
 241 161.66796875 239 171.000976562 239 181.000976562 c 0
 239 191.66796875 240.666992188 201.334960938 244 210.001953125 c 0
 247.333007812 218.001953125 252.666015625 225.334960938 259.999023438 232.001953125 c 0
 267.33203125 238.668945312 274.999023438 243.668945312 282.999023438 247.001953125 c 0
 291.666015625 250.334960938 300.999023438 252.001953125 310.999023438 252.001953125 c 0
 321.666015625 252.001953125 331.333007812 250.334960938 340 247.001953125 c 0
 348.666992188 243.668945312 356.333984375 238.668945312 363.000976562 232.001953125 c 0
 370.333984375 225.334960938 375.666992188 218.001953125 379 210.001953125 c 0
 382.333007812 201.334960938 384 191.66796875 384 181.000976562 c 0
 384 171.000976562 382.333007812 161.66796875 379 153.000976562 c 0
 375 144.333984375 369.333007812 136.666992188 362 130 c 0
363.001953125 456 m 0
 356.334960938 449.333007812 348.66796875 444.333007812 340.000976562 441 c 0
 332.000976562 437.666992188 322.66796875 436 312.000976562 436 c 0
 302.000976562 436 292.66796875 437.666992188 284.000976562 441 c 0
 275.333984375 444.333007812 267.666992188 449.333007812 261 456 c 0
 253.666992188 462 248.333984375 469.333007812 245.000976562 478 c 0
 242.333984375 486.666992188 241.000976562 496.333984375 241.000976562 507.000976562 c 0
 241.000976562 517.000976562 242.333984375 526.333984375 245.000976562 535.000976562 c 0
 248.333984375 543.66796875 253.666992188 551.334960938 261 558.001953125 c 0
 267.666992188 564.668945312 275.333984375 569.668945312 284.000976562 573.001953125 c 0
 292.66796875 576.334960938 302.000976562 578.001953125 312.000976562 578.001953125 c 0
 322.66796875 578.001953125 332.000976562 576.334960938 340.000976562 573.001953125 c 0
 348.66796875 569.668945312 356.334960938 564.668945312 363.001953125 558.001953125 c 0
 370.334960938 551.334960938 376.001953125 544.001953125 380.001953125 536.001953125 c 0
 383.334960938 527.334960938 385.001953125 517.66796875 385.001953125 507.000976562 c 0
 385.001953125 496.333984375 383.334960938 486.666992188 380.001953125 478 c 0
 376.001953125 469.333007812 370.334960938 462 363.001953125 456 c 0
EndSplineSet
EndChar

StartChar: semicolon
Encoding: 59 59 30
Width: 614
GlyphClass: 1
Flags: W
LayerCount: 2
Fore
SplineSet
363 456 m 0
 356.333007812 449.333007812 348.666015625 444.333007812 339.999023438 441 c 0
 331.999023438 437.666992188 322.666015625 436 311.999023438 436 c 0
 301.999023438 436 292.666015625 437.666992188 283.999023438 441 c 0
 275.33203125 444.333007812 267.665039062 449.333007812 260.998046875 456 c 0
 253.665039062 462 248.33203125 469.333007812 244.999023438 478 c 0
 242.33203125 486.666992188 240.999023438 496.333984375 240.999023438 507.000976562 c 0
 240.999023438 517.000976562 242.33203125 526.333984375 244.999023438 535.000976562 c 0
 248.33203125 543.66796875 253.665039062 551.334960938 260.998046875 558.001953125 c 0
 267.665039062 564.668945312 275.33203125 569.668945312 283.999023438 573.001953125 c 0
 292.666015625 576.334960938 301.999023438 578.001953125 311.999023438 578.001953125 c 0
 322.666015625 578.001953125 331.999023438 576.334960938 339.999023438 573.001953125 c 0
 348.666015625 569.668945312 356.333007812 564.668945312 363 558.001953125 c 0
 370.333007812 551.334960938 376 544.001953125 380 536.001953125 c 0
 383.333007812 527.334960938 385 517.66796875 385 507.000976562 c 0
 385 496.333984375 383.333007812 486.666992188 380 478 c 0
 376 469.333007812 370.333007812 462 363 456 c 0
269 52 m 0
 275 60 280 68.6669921875 284 78 c 0
 288.666992188 88 293.333984375 99.3330078125 298.000976562 112 c 1
 292.000976562 112 285.66796875 113.333007812 279.000976562 116 c 0
 273.000976562 119.333007812 266.66796875 124.333007812 260.000976562 131 c 0
 253.333984375 137.666992188 248.333984375 145.333984375 245.000976562 154.000976562 c 0
 242.333984375 162.66796875 241.000976562 172.000976562 241.000976562 182.000976562 c 0
 241.000976562 192.66796875 242.333984375 202.334960938 245.000976562 211.001953125 c 0
 248.333984375 219.001953125 253.666992188 226.334960938 261 233.001953125 c 0
 268.333007812 239.668945312 276 244.668945312 284 248.001953125 c 0
 292.666992188 251.334960938 302 253.001953125 312 253.001953125 c 0
 322.666992188 253.001953125 332 251.334960938 340 248.001953125 c 0
 348.666992188 244.668945312 356.333984375 239.668945312 363.000976562 233.001953125 c 0
 370.333984375 226.334960938 376.000976562 219.001953125 380.000976562 211.001953125 c 0
 383.333984375 202.334960938 385.000976562 192.66796875 385.000976562 182.000976562 c 2
 385.000976562 176.000976562 l 2
 385.000976562 168.66796875 384.66796875 162.000976562 384.000976562 156.000976562 c 0
 383.333984375 149.333984375 382.666992188 143.000976562 382 137.000976562 c 0
 380.666992188 131.000976562 379.666992188 125.333984375 379 120.000976562 c 0
 377.666992188 114.66796875 376.333984375 109.66796875 375.000976562 105.000976562 c 0
 367.66796875 85.66796875 359.000976562 67.66796875 349.000976562 51.0009765625 c 0
 338.333984375 34.333984375 326.666992188 18.6669921875 314 4 c 0
 301.333007812 -10 289.333007812 -22.3330078125 278 -33 c 0
 266.666992188 -43.6669921875 255.666992188 -52.333984375 245 -59.0009765625 c 1
 241 -54.333984375 237.666992188 -49.6669921875 235 -45 c 0
 231.666992188 -41 228.666992188 -37.3330078125 226 -34 c 2
 218 -22 l 2
 215.333007812 -18 212.333007812 -13.6669921875 209 -9 c 1
 223.666992188 3.6669921875 236 15 246 25 c 0
 256 35.6669921875 263.666992188 44.6669921875 269 52 c 0
EndSplineSet
EndChar

StartChar: less
Encoding: 60 60 31
Width: 614
GlyphClass: 1
Flags: W
LayerCount: 2
Fore
SplineSet
569 116 m 1
 40.9990234375 312 l 1
 40.9990234375 390 l 1
 304.999023438 488.666992188 480.999023438 554.333984375 568.999023438 587.000976562 c 1
 568.999023438 501.000976562 l 1
 550.33203125 494.333984375 528.999023438 486.666992188 504.999023438 478 c 0
 480.33203125 469.333007812 454.665039062 460.333007812 427.998046875 451 c 0
 377.331054688 433 325.998046875 414.666992188 273.998046875 396 c 0
 221.998046875 378 178.665039062 362.666992188 143.998046875 350 c 1
 162.665039062 344 184.33203125 336.666992188 208.999023438 328 c 0
 233.666015625 319.333007812 259.333007812 310.333007812 286 301 c 0
 336 283 387 265 439 247 c 2
 569 202 l 1
 569 116 l 1
EndSplineSet
EndChar

StartChar: equal
Encoding: 61 61 32
Width: 614
GlyphClass: 1
Flags: W
LayerCount: 2
Fore
SplineSet
45 421 m 1
 45 501 l 1
 573 501 l 1
 573 421 l 1
 45 421 l 1
45 205 m 1
 45 286 l 1
 573 286 l 1
 573 205 l 1
 45 205 l 1
EndSplineSet
EndChar

StartChar: greater
Encoding: 62 62 33
Width: 614
GlyphClass: 1
Flags: W
LayerCount: 2
Fore
SplineSet
572 310 m 1
 44 114 l 1
 44 200 l 1
 62.6669921875 206 84.333984375 213.333007812 109.000976562 222 c 0
 133.000976562 230.666992188 158.66796875 239.666992188 186.000976562 249 c 0
 236.000976562 267 287.000976562 285.333007812 339.000976562 304 c 2
 469.000976562 349 l 1
 434.333984375 361.666992188 391.000976562 377 339.000976562 395 c 0
 287.000976562 413.666992188 236.000976562 432 186.000976562 450 c 0
 158.66796875 459.333007812 133.000976562 468.333007812 109.000976562 477 c 0
 84.333984375 485.666992188 62.6669921875 493.333984375 44 500.000976562 c 1
 44 585.000976562 l 1
 308 486.333984375 484 420.666992188 572 388 c 1
 572 310 l 1
EndSplineSet
EndChar

StartChar: question
Encoding: 63 63 34
Width: 614
GlyphClass: 1
Flags: W
LayerCount: 2
Fore
SplineSet
257 263 m 1
 257.001953125 316.998046875 l 2
 257.668945312 339.665039062 263.3359375 359.665039062 274.002929688 376.998046875 c 0
 284.669921875 394.331054688 298.002929688 409.998046875 314.002929688 423.998046875 c 0
 324.002929688 433.331054688 334.669921875 441.998046875 346.002929688 449.998046875 c 0
 357.3359375 458.665039062 368.668945312 466.998046875 380.001953125 474.998046875 c 0
 400.668945312 489.665039062 418.3359375 504.33203125 433.002929688 518.999023438 c 0
 448.3359375 534.33203125 456.3359375 551.999023438 457.002929688 571.999023438 c 0
 457.002929688 585.33203125 454.3359375 596.665039062 449.002929688 605.998046875 c 0
 444.3359375 615.331054688 437.668945312 623.331054688 429.001953125 629.998046875 c 0
 413.668945312 641.998046875 394.668945312 649.665039062 372.001953125 652.998046875 c 0
 353.334960938 655.665039062 336.334960938 656.998046875 321.001953125 656.998046875 c 2
 312.001953125 656.998046875 l 2
 287.334960938 656.998046875 258.334960938 646.998046875 225.001953125 626.998046875 c 0
 195.668945312 608.998046875 171.668945312 583.998046875 153.001953125 551.998046875 c 1
 135.668945312 563.331054688 123.668945312 570.998046875 117.001953125 574.998046875 c 0
 109.668945312 579.665039062 97.6689453125 587.33203125 81.001953125 597.999023438 c 1
 103.001953125 632.666015625 135.668945312 664.333007812 179.001953125 693 c 0
 222.334960938 721 270.001953125 735 322.001953125 735 c 0
 392.668945312 735 447.668945312 720.333007812 487.001953125 691 c 0
 525.668945312 663 545.001953125 624.666992188 545.001953125 576 c 2
 545.001953125 572 l 2
 544.334960938 547.333007812 538.66796875 526 528.000976562 508 c 0
 517.333984375 490.666992188 504.666992188 475 490 461 c 0
 480 451.666992188 469.333007812 443 458 435 c 2
 426 413 l 2
 406.666992188 399 389.666992188 384.666992188 375 370 c 0
 360.333007812 355.333007812 353 338 353 318 c 2
 353 290 l 1
 353 263 l 1
 257 263 l 1
360.001953125 17.998046875 m 0
 352.668945312 11.3310546875 345.001953125 6.6640625 337.001953125 3.9970703125 c 0
 328.334960938 0.6640625 319.001953125 -1.0029296875 309.001953125 -1.0029296875 c 0
 299.001953125 -1.0029296875 289.668945312 0.6640625 281.001953125 3.9970703125 c 0
 272.334960938 6.6640625 264.66796875 11.3310546875 258.000976562 17.998046875 c 0
 250.66796875 24.6650390625 245.334960938 32.33203125 242.001953125 40.9990234375 c 0
 238.668945312 49.666015625 237.001953125 58.9990234375 237.001953125 68.9990234375 c 0
 237.001953125 79.666015625 238.668945312 89.3330078125 242.001953125 98 c 0
 245.334960938 106.666992188 250.66796875 114.333984375 258.000976562 121.000976562 c 0
 264.66796875 127.66796875 272.334960938 132.334960938 281.001953125 135.001953125 c 0
 289.668945312 138.334960938 299.001953125 140.001953125 309.001953125 140.001953125 c 0
 319.001953125 140.001953125 328.334960938 138.334960938 337.001953125 135.001953125 c 0
 345.001953125 132.334960938 352.668945312 127.66796875 360.001953125 121.000976562 c 0
 367.334960938 114.333984375 372.66796875 106.666992188 376.000976562 98 c 0
 380.000976562 89.3330078125 382.000976562 79.666015625 382.000976562 68.9990234375 c 0
 382.000976562 58.9990234375 380.000976562 49.666015625 376.000976562 40.9990234375 c 0
 372.66796875 32.33203125 367.334960938 24.6650390625 360.001953125 17.998046875 c 0
EndSplineSet
EndChar

StartChar: at
Encoding: 64 64 35
Width: 614
GlyphClass: 1
Flags: W
LayerCount: 2
Fore
SplineSet
561 0 m 0
 542.333007812 -8.6669921875 517.995117188 -15.99609375 487.995117188 -21.99609375 c 0
 457.995117188 -27.99609375 428.328125 -30.99609375 398.995117188 -30.99609375 c 0
 370.995117188 -30.99609375 343.328125 -28.99609375 315.995117188 -24.99609375 c 0
 288.662109375 -20.3291015625 262.329101562 -13.99609375 236.99609375 -5.99609375 c 0
 210.99609375 2.00390625 186.99609375 13.00390625 164.99609375 27.00390625 c 0
 142.99609375 41.00390625 122.663085938 58.00390625 103.99609375 78.00390625 c 0
 86.6630859375 96.6708984375 71.330078125 115.670898438 57.9970703125 135.00390625 c 0
 44.6640625 153.670898438 33.3310546875 173.00390625 23.998046875 193.00390625 c 0
 13.998046875 212.336914062 6.6650390625 235.336914062 1.998046875 262.00390625 c 0
 -2.6689453125 288.670898438 -5.001953125 319.00390625 -5.001953125 353.00390625 c 0
 -5.001953125 385.00390625 -2.6689453125 414.336914062 1.998046875 441.00390625 c 0
 5.998046875 467.670898438 12.6650390625 492.00390625 21.998046875 514.00390625 c 0
 30.6650390625 536.00390625 41.33203125 557.00390625 53.9990234375 577.00390625 c 0
 66.666015625 597.00390625 81.3330078125 616.00390625 98 634.00390625 c 0
 114 650.670898438 131.333007812 665.337890625 150 678.004882812 c 0
 168.666992188 690.671875 188.666992188 701.338867188 210 710.005859375 c 0
 231.333007812 718.672851562 252 725.005859375 272 729.005859375 c 0
 292 733.672851562 310.666992188 736.005859375 328 736.005859375 c 0
 396.666992188 736.005859375 454 728.005859375 500 712.005859375 c 0
 545.333007812 695.338867188 582.666015625 670.671875 611.999023438 638.004882812 c 0
 625.33203125 622.004882812 633.999023438 605.337890625 637.999023438 588.004882812 c 0
 641.33203125 570.004882812 642.999023438 554.337890625 642.999023438 541.004882812 c 0
 642.999023438 529.004882812 640.33203125 514.337890625 634.999023438 497.004882812 c 0
 629.666015625 479.671875 620.666015625 464.671875 607.999023438 452.004882812 c 0
 600.666015625 444.671875 591.999023438 439.004882812 581.999023438 435.004882812 c 0
 572.666015625 430.337890625 561.666015625 428.004882812 548.999023438 428.004882812 c 1
 548.999023438 158.004882812 l 1
 511.666015625 158.671875 486.999023438 159.004882812 474.999023438 159.004882812 c 1
 474.999023438 204.004882812 l 1
 468.33203125 192.671875 459.999023438 182.671875 449.999023438 174.004882812 c 0
 440.666015625 166.004882812 429.666015625 159.337890625 416.999023438 154.004882812 c 0
 405.666015625 148.671875 395.333007812 145.004882812 386 143.004882812 c 0
 376 141.671875 367 141.338867188 359 142.005859375 c 0
 331.666992188 144.672851562 310.333984375 150.33984375 295.000976562 159.006835938 c 0
 279.66796875 168.33984375 261.000976562 182.672851562 239.000976562 202.005859375 c 0
 231.000976562 211.338867188 223.66796875 221.338867188 217.000976562 232.005859375 c 0
 210.333984375 242.672851562 204.666992188 253.672851562 200 265.005859375 c 0
 196 277.005859375 192.666992188 290.005859375 190 304.005859375 c 0
 187.333007812 318.005859375 186 333.338867188 186 350.005859375 c 0
 186 365.338867188 187 380.338867188 189 395.005859375 c 0
 191 409.005859375 194 422.672851562 198 436.005859375 c 0
 202.666992188 449.338867188 208.333984375 462.005859375 215.000976562 474.005859375 c 0
 222.333984375 486.005859375 230.333984375 497.005859375 239.000976562 507.005859375 c 0
 249.000976562 517.672851562 259.000976562 527.005859375 269.000976562 535.005859375 c 0
 279.000976562 543.672851562 289.66796875 550.672851562 301.000976562 556.005859375 c 0
 312.333984375 561.338867188 323.666992188 565.338867188 335 568.005859375 c 0
 347 570.672851562 359.333007812 572.005859375 372 572.005859375 c 0
 380.666992188 572.672851562 389.666992188 571.672851562 399 569.005859375 c 0
 409 567.005859375 419.333007812 563.338867188 430 558.005859375 c 0
 437.333007812 554.005859375 444 550.338867188 450 547.005859375 c 0
 455.333007812 543.672851562 460.333007812 540.672851562 465 538.005859375 c 2
 479 524.005859375 l 2
 485 518.005859375 492 510.672851562 500 502.005859375 c 1
 510 502.005859375 l 1
 518 502.005859375 l 1
 524 502.005859375 l 1
 529 502.005859375 l 1
 532 502.005859375 l 1
 534 502.005859375 l 2
 542 500.672851562 549.666992188 507.672851562 557 523.005859375 c 0
 560.333007812 529.672851562 562 536.672851562 562 544.005859375 c 2
 562 546.005859375 l 2
 562.666992188 553.338867188 559.333984375 563.338867188 552.000976562 576.005859375 c 0
 546.66796875 585.338867188 538.000976562 595.671875 526.000976562 607.004882812 c 0
 514.000976562 617.671875 499.333984375 627.004882812 482.000976562 635.004882812 c 0
 452.000976562 649.004882812 426.66796875 657.337890625 406.000976562 660.004882812 c 0
 391.333984375 662.004882812 375.000976562 663.004882812 357.000976562 663.004882812 c 0
 347.000976562 663.004882812 336.000976562 662.671875 324.000976562 662.004882812 c 0
 311.333984375 661.337890625 292.666992188 656.670898438 268 648.00390625 c 0
 250 641.336914062 233.666992188 633.669921875 219 625.002929688 c 0
 204.333007812 615.669921875 191 605.336914062 179 594.00390625 c 0
 166.333007812 582.670898438 155.666015625 570.670898438 146.999023438 558.00390625 c 0
 123.666015625 523.336914062 107.333007812 490.00390625 98 458.00390625 c 0
 89.3330078125 428.00390625 85 397.336914062 85 366.00390625 c 2
 85 354.00390625 l 2
 85 318.00390625 92.3330078125 280.336914062 107 241.00390625 c 0
 120.333007812 205.670898438 140.333007812 171.670898438 167 139.00390625 c 0
 179 126.336914062 192.333007812 114.669921875 207 104.002929688 c 0
 221 93.3359375 236 84.0029296875 252 76.0029296875 c 0
 268 68.0029296875 285.666992188 61.669921875 305 57.0029296875 c 0
 325 52.3359375 347 49.6689453125 371 49.001953125 c 0
 425 49.6689453125 471.333007812 56.6689453125 510 70.001953125 c 0
 549.333007812 84.001953125 586.333007812 107.334960938 621 140.001953125 c 1
 629.666992188 129.334960938 638.666992188 118.66796875 648 108.000976562 c 0
 657.333007812 97.333984375 666 87.333984375 674 78.0009765625 c 1
 666 71.333984375 653.666992188 60.6669921875 637 46 c 0
 621 32 595.666992188 16.6669921875 561 0 c 0
298.995117188 261.00390625 m 0
 309.662109375 250.336914062 320.665039062 242.336914062 331.998046875 237.00390625 c 0
 343.331054688 231.670898438 355.331054688 229.00390625 367.998046875 229.00390625 c 0
 380.665039062 229.00390625 392.665039062 232.00390625 403.998046875 238.00390625 c 0
 415.331054688 244.00390625 425.6640625 252.670898438 434.997070312 264.00390625 c 0
 444.997070312 275.336914062 452.330078125 289.00390625 456.997070312 305.00390625 c 0
 461.6640625 320.336914062 463.997070312 337.669921875 463.997070312 357.002929688 c 0
 463.997070312 377.669921875 461.6640625 396.002929688 456.997070312 412.002929688 c 0
 452.330078125 427.3359375 444.663085938 441.002929688 433.99609375 453.002929688 c 0
 423.99609375 463.669921875 413.329101562 471.669921875 401.99609375 477.002929688 c 0
 390.663085938 482.3359375 378.99609375 485.002929688 366.99609375 485.002929688 c 2
 362.99609375 485.002929688 l 1
 359.99609375 485.002929688 l 1
 356.99609375 485.002929688 l 2
 350.329101562 485.669921875 340.99609375 483.002929688 328.99609375 477.002929688 c 0
 318.329101562 471.669921875 307.662109375 462.336914062 296.995117188 449.00390625 c 0
 289.662109375 439.00390625 283.662109375 426.336914062 278.995117188 411.00390625 c 0
 274.995117188 395.670898438 272.328125 377.670898438 270.995117188 357.00390625 c 0
 272.995117188 335.670898438 276.328125 317.00390625 280.995117188 301.00390625 c 0
 285.662109375 285.00390625 291.662109375 271.670898438 298.995117188 261.00390625 c 0
EndSplineSet
EndChar

StartChar: A
Encoding: 65 65 36
Width: 614
GlyphClass: 1
Flags: W
LayerCount: 2
Fore
SplineSet
18 0 m 1
 36.6669921875 56.6669921875 60 127.999023438 88 213.999023438 c 0
 116 300.666015625 143.666992188 385.333007812 171 468 c 0
 185 512.666992188 198.666992188 555 212 595 c 0
 225.333007812 635 237 670.333007812 247 701 c 1
 370 701 l 1
 388.666992188 644.333007812 412 573 440 487 c 0
 467.333007812 401 494.666015625 316.333007812 521.999023438 233 c 0
 536.666015625 188.333007812 550.333007812 146 563 106 c 0
 576.333007812 66 588 30.6669921875 598 0 c 1
 494 -0 l 1
 487.333007812 23.3330078125 478 54 466 92 c 0
 454 130 444.666992188 160.333007812 438 183 c 1
 177 183 l 1
 170.333007812 160.333007812 161.333007812 130 150 92 c 0
 138.666992188 54 129.666992188 23.3330078125 123 0 c 1
 18 0 l 1
202 258.999023438 m 1
 415.001953125 258.999023438 l 1
 406.334960938 288.33203125 395.334960938 324.999023438 382.001953125 368.999023438 c 0
 369.334960938 412.999023438 356.66796875 456.33203125 344.000976562 498.999023438 c 0
 336.66796875 521.666015625 330.000976562 543.333007812 324.000976562 564 c 0
 318.000976562 584.666992188 312.66796875 602.666992188 308.000976562 618 c 1
 299.333984375 589.333007812 288.666992188 552.666015625 276 507.999023438 c 0
 262.666992188 463.999023438 249.666992188 420.999023438 237 378.999023438 c 0
 230.333007812 355.666015625 224 333.999023438 218 313.999023438 c 0
 212 293.33203125 206.666992188 274.999023438 202 258.999023438 c 1
EndSplineSet
EndChar

StartChar: B
Encoding: 66 66 37
Width: 614
GlyphClass: 1
Flags: W
LayerCount: 2
Fore
SplineSet
79 0 m 1
 79 701 l 1
 286 701 l 2
 324 701 357.333007812 697.333007812 386 690 c 0
 415.333007812 682 440.666015625 670.333007812 461.999023438 655 c 0
 481.999023438 639.666992188 496.999023438 621 506.999023438 599 c 0
 517.666015625 577 523.333007812 551.666992188 524 523 c 0
 524 512.333007812 523.333007812 502 522 492 c 0
 521.333007812 482 519.333007812 473 516 465 c 0
 512.666992188 457 509 449.333007812 505 442 c 0
 501 434.666992188 496.666992188 428 492 422 c 0
 486.666992188 416 482 410.666992188 478 406 c 0
 474 402 470.333007812 398.666992188 467 396 c 0
 463.666992188 393.333007812 457.666992188 390.666015625 449 387.999023438 c 0
 440.333007812 384.666015625 430.333007812 380.666015625 419 375.999023438 c 1
 446.333007812 368.666015625 469.333007812 359.999023438 488 349.999023438 c 0
 506 340.666015625 519.666992188 329.333007812 529 316 c 0
 543 300 553.333007812 281.666992188 560 261 c 0
 566.666992188 241 570 218.333007812 570 193 c 0
 570 161 564.333007812 133 553 109 c 0
 542.333007812 85.6669921875 526 65.6669921875 504 49 c 0
 481.333007812 33 453.333007812 20.6669921875 420 12 c 0
 387.333007812 4 349.333007812 0 306 0 c 2
 79 0 l 1
175 413 m 1
 302 412.999023438 l 2
 325.333007812 412.999023438 345.666015625 414.999023438 362.999023438 418.999023438 c 0
 379.666015625 423.666015625 393.333007812 430.333007812 404 439 c 0
 415.333007812 447.666992188 423.666015625 459 428.999023438 473 c 0
 434.33203125 487 436.999023438 503.333007812 436.999023438 522 c 0
 436.999023438 540.666992188 434.33203125 556.333984375 428.999023438 569.000976562 c 0
 423.666015625 582.333984375 415.333007812 592.666992188 404 600 c 0
 393.333007812 608 379.666015625 614 362.999023438 618 c 0
 345.666015625 622 325.333007812 624 302 624 c 2
 175 624 l 1
 175 413 l 1
175 77.9990234375 m 1
 324 77.9990234375 l 2
 352.666992188 77.9990234375 377 80.33203125 397 84.9990234375 c 0
 417.666992188 90.33203125 434 97.9990234375 446 107.999023438 c 0
 458.666992188 117.33203125 468 129.665039062 474 144.998046875 c 0
 480.666992188 160.998046875 484 179.998046875 484 201.998046875 c 0
 484 224.665039062 480.666992188 244.665039062 474 261.998046875 c 0
 467.333007812 278.665039062 457.333007812 292.33203125 444 302.999023438 c 0
 430.666992188 313.666015625 414 321.666015625 394 326.999023438 c 0
 374 332.33203125 350.666992188 334.999023438 324 334.999023438 c 2
 175 334.999023438 l 1
 175 77.9990234375 l 1
EndSplineSet
EndChar

StartChar: C
Encoding: 67 67 38
Width: 614
GlyphClass: 1
Flags: W
LayerCount: 2
Fore
SplineSet
458 -4 m 0
 444.666992188 -7.3330078125 430.668945312 -9.6669921875 416.001953125 -11 c 0
 401.334960938 -12.3330078125 386.334960938 -13 371.001953125 -13 c 0
 347.001953125 -13 324.668945312 -11 304.001953125 -7 c 0
 283.334960938 -3 263.66796875 2.6669921875 245.000976562 10 c 0
 225.66796875 18 208.000976562 28 192.000976562 40 c 0
 176.000976562 51.3330078125 161.333984375 65.3330078125 148.000976562 82 c 0
 122.000976562 114 102.333984375 152.333007812 89.0009765625 197 c 0
 76.333984375 241 70.0009765625 291.666992188 70.0009765625 349 c 0
 70.0009765625 387.666992188 73.0009765625 423.333984375 79.0009765625 456.000976562 c 0
 85.0009765625 488.66796875 93.66796875 518.66796875 105.000976562 546.000976562 c 0
 117.000976562 572.66796875 131.66796875 596.66796875 149.000976562 618.000976562 c 0
 166.333984375 638.66796875 186.333984375 656.334960938 209.000976562 671.001953125 c 0
 231.66796875 685.001953125 256.334960938 695.668945312 283.001953125 703.001953125 c 0
 310.334960938 711.001953125 339.66796875 715.001953125 371.000976562 715.001953125 c 0
 387.000976562 715.001953125 402.333984375 714.001953125 417.000976562 712.001953125 c 0
 432.333984375 710.668945312 446.333984375 708.668945312 459.000976562 706.001953125 c 0
 471.66796875 702.668945312 484.334960938 698.3359375 497.001953125 693.002929688 c 0
 510.334960938 688.3359375 523.66796875 682.668945312 537.000976562 676.001953125 c 1
 537.000976562 579.001953125 l 1
 524.333984375 588.334960938 511.333984375 596.66796875 498.000976562 604.000976562 c 0
 484.66796875 611.333984375 471.000976562 617.666992188 457.000976562 623 c 0
 442.333984375 627.666992188 428.000976562 631.333984375 414.000976562 634.000976562 c 0
 399.333984375 636.000976562 385.000976562 637.000976562 371.000976562 637.000976562 c 0
 338.333984375 637.000976562 310.000976562 631.333984375 286.000976562 620.000976562 c 0
 261.333984375 608.000976562 240.666992188 590.000976562 224 566.000976562 c 0
 208 542.000976562 195.666992188 512.000976562 187 476.000976562 c 0
 179 440.000976562 175 398.000976562 175 350.000976562 c 0
 175 254.66796875 191.333007812 183.000976562 224 135.000976562 c 0
 256.666992188 87.0009765625 306 63.0009765625 372 63.0009765625 c 0
 386 63.0009765625 400.333007812 64.333984375 415 67.0009765625 c 0
 429 69.66796875 443.333007812 73.66796875 458 79.0009765625 c 0
 471.333007812 84.333984375 484.666015625 90.333984375 497.999023438 97.0009765625 c 0
 511.33203125 103.66796875 524.33203125 112.000976562 536.999023438 122.000976562 c 1
 536.999023438 25.0009765625 l 1
 523.666015625 18.333984375 510.333007812 12.6669921875 497 8 c 0
 484.333007812 3.3330078125 471.333007812 -0.6669921875 458 -4 c 0
EndSplineSet
EndChar

StartChar: D
Encoding: 68 68 39
Width: 614
GlyphClass: 1
Flags: W
LayerCount: 2
Fore
SplineSet
69 0 m 1
 69.0009765625 701 l 1
 258.000976562 701 l 2
 314.66796875 701 362.66796875 694 402.000976562 680 c 0
 441.333984375 666 471.666992188 644.666992188 493 616 c 0
 513.666992188 587.333007812 529.333984375 551 540.000976562 507 c 0
 550.66796875 463 556.000976562 410.666992188 556.000976562 350 c 0
 556.000976562 290 549.333984375 238.333007812 536.000976562 195 c 0
 523.333984375 151 504.333984375 114.666992188 479.000976562 86 c 0
 452.333984375 57.3330078125 420.666992188 36 384 22 c 0
 347.333007812 7.3330078125 305.333007812 0 258 0 c 2
 69 0 l 1
170.000976562 78 m 1
 256.000976562 77.998046875 l 2
 288.66796875 77.998046875 317.334960938 82.998046875 342.001953125 92.998046875 c 0
 366.668945312 102.331054688 387.001953125 116.998046875 403.001953125 136.998046875 c 0
 420.334960938 156.331054688 433.001953125 183.998046875 441.001953125 219.998046875 c 0
 449.668945312 255.998046875 454.001953125 299.665039062 454.001953125 350.998046875 c 0
 454.001953125 402.998046875 450.001953125 446.665039062 442.001953125 481.998046875 c 0
 434.001953125 517.998046875 421.334960938 545.665039062 404.001953125 564.998046875 c 0
 395.334960938 575.665039062 386.334960938 584.33203125 377.001953125 590.999023438 c 0
 368.334960938 598.33203125 358.66796875 604.33203125 348.000976562 608.999023438 c 0
 338.000976562 613.666015625 325.333984375 617.333007812 310.000976562 620 c 0
 294.66796875 622.666992188 276.66796875 624 256.000976562 624 c 2
 170.000976562 624 l 1
 170.000976562 78 l 1
EndSplineSet
EndChar

StartChar: E
Encoding: 69 69 40
Width: 614
GlyphClass: 1
Flags: W
LayerCount: 2
Fore
SplineSet
94 0 m 1
 94 701 l 1
 546 701 l 1
 546 622 l 1
 195 622 l 1
 195 414 l 1
 504 414 l 1
 504 334 l 1
 195 334 l 1
 195 80 l 1
 547 80 l 1
 547 0 l 1
 94 0 l 1
EndSplineSet
EndChar

StartChar: F
Encoding: 70 70 41
Width: 614
GlyphClass: 1
Flags: W
LayerCount: 2
Fore
SplineSet
117 0 m 1
 117 701 l 1
 135.666992188 701 157.666992188 701.333007812 183 702 c 2
 262 702 l 1
 419 702 l 1
 553 702 l 1
 553 626 l 1
 215 626 l 1
 215 404 l 1
 461 404 l 1
 461 328 l 1
 215 328 l 1
 215 0 l 1
 117 0 l 1
EndSplineSet
EndChar

StartChar: G
Encoding: 71 71 42
Width: 614
GlyphClass: 1
Flags: W
LayerCount: 2
Fore
SplineSet
461 5 m 0
 443.666992188 -1 426.000976562 -5.66796875 408.000976562 -9.0009765625 c 0
 389.333984375 -11.66796875 370.000976562 -13.0009765625 350.000976562 -13.0009765625 c 0
 326.000976562 -13.0009765625 303.333984375 -11.0009765625 282.000976562 -7.0009765625 c 0
 261.333984375 -3.0009765625 241.666992188 2.9990234375 223 10.9990234375 c 0
 205 19.666015625 188 29.666015625 172 40.9990234375 c 0
 156 52.33203125 141.666992188 65.9990234375 129 81.9990234375 c 0
 103 113.999023438 83.6669921875 152.33203125 71 196.999023438 c 0
 57.6669921875 241.666015625 51 292.333007812 51 349 c 0
 51 407 57.6669921875 458.333007812 71 503 c 0
 84.3330078125 548.333007812 104.333007812 586.666015625 131 617.999023438 c 0
 157.666992188 649.999023438 189.333984375 673.999023438 226.000976562 689.999023438 c 0
 262.66796875 706.666015625 304.334960938 714.999023438 351.001953125 714.999023438 c 0
 367.668945312 714.999023438 383.668945312 713.999023438 399.001953125 711.999023438 c 0
 414.334960938 709.999023438 429.001953125 706.666015625 443.001953125 701.999023438 c 0
 458.334960938 697.999023438 472.66796875 692.666015625 486.000976562 685.999023438 c 0
 500.000976562 679.999023438 513.333984375 672.999023438 526.000976562 664.999023438 c 1
 526.000976562 566.999023438 l 1
 519.333984375 573.666015625 512.333984375 579.666015625 505.000976562 584.999023438 c 2
 483.000976562 598.999023438 l 2
 476.333984375 603.666015625 469.666992188 607.666015625 463 610.999023438 c 0
 456.333007812 614.999023438 449.666015625 618.33203125 442.999023438 620.999023438 c 0
 436.33203125 623.666015625 428.999023438 625.999023438 420.999023438 627.999023438 c 0
 413.666015625 629.999023438 405.999023438 631.666015625 397.999023438 632.999023438 c 0
 390.666015625 634.33203125 383.333007812 635.33203125 376 635.999023438 c 0
 368.666992188 636.666015625 361 636.999023438 353 636.999023438 c 0
 321 636.999023438 292.666992188 631.33203125 268 619.999023438 c 0
 242.666992188 607.999023438 222 589.999023438 206 565.999023438 c 0
 189.333007812 541.999023438 177 511.999023438 169 475.999023438 c 0
 161 439.999023438 157 397.666015625 157 348.999023438 c 0
 157 324.33203125 158 301.33203125 160 279.999023438 c 0
 162 258.666015625 165 239.333007812 169 222 c 0
 173 204.666992188 178 188.666992188 184 174 c 0
 190 159.333007812 197 146 205 134 c 0
 221 110.666992188 241 93 265 81 c 0
 289 69 317.666992188 63 351 63 c 0
 361.666992188 63 372 63.6669921875 382 65 c 0
 392 66.3330078125 401.333007812 68.3330078125 410 71 c 0
 414 71.6669921875 418 72.6669921875 422 74 c 0
 426 76 429.666992188 78 433 80 c 0
 437 82 440.666992188 84 444 86 c 0
 448 88 452 90.3330078125 456 93 c 1
 456 282 l 1
 322 282 l 1
 322 360 l 1
 552 360 l 1
 552 57 l 1
 538 45.6669921875 523.666992188 35.6669921875 509 27 c 0
 493.666992188 18.3330078125 477.666992188 11 461 5 c 0
EndSplineSet
EndChar

StartChar: H
Encoding: 72 72 43
Width: 614
GlyphClass: 1
Flags: W
LayerCount: 2
Fore
SplineSet
69 0 m 1
 69 701 l 1
 170 701 l 1
 170 414 l 1
 446 414 l 1
 446 701 l 1
 548 701 l 1
 548 0 l 1
 446 0 l 1
 446 334 l 1
 170 334 l 1
 170 0 l 1
 69 0 l 1
EndSplineSet
EndChar

StartChar: I
Encoding: 73 73 44
Width: 614
GlyphClass: 1
Flags: W
LayerCount: 2
Fore
SplineSet
100 0 m 1
 100 80 l 1
 257 80 l 1
 257 622 l 1
 100 622 l 1
 100 701 l 1
 515 701 l 1
 515 622 l 1
 358 622 l 1
 358 80 l 1
 515 80 l 1
 515 0 l 1
 100 0 l 1
EndSplineSet
EndChar

StartChar: J
Encoding: 74 74 45
Width: 614
GlyphClass: 1
Flags: W
LayerCount: 2
Fore
SplineSet
382 10 m 0
 370 3.3330078125 354.666015625 -1.3330078125 335.999023438 -4 c 0
 316.666015625 -7.3330078125 293.333007812 -9 266 -9 c 2
 154 -9 l 1
 61 -9 l 1
 61 68 l 1
 143 68 l 1
 246 68 l 2
 257.333007812 68 268 68.3330078125 278 69 c 0
 288 70.3330078125 297.666992188 72 307 74 c 0
 316.333007812 76 324.666015625 79 331.999023438 83 c 0
 338.666015625 87 344.333007812 92 349 98 c 0
 358.333007812 110 365.333007812 127 370 149 c 0
 374.666992188 171 377 197.666992188 377 229 c 2
 377 622 l 1
 186 622 l 1
 186 701 l 1
 478 701 l 1
 478 229 l 2
 478 199.666992188 476 173 472 149 c 0
 468 125.666992188 462.333007812 105 455 87 c 0
 447 69 437 53.6669921875 425 41 c 0
 413 29 398.666992188 18.6669921875 382 10 c 0
EndSplineSet
EndChar

StartChar: K
Encoding: 75 75 46
Width: 614
GlyphClass: 1
Flags: W
LayerCount: 2
Fore
SplineSet
69 0 m 1
 69 700.999023438 l 1
 170 700.999023438 l 1
 170 388.999023438 l 1
 195.333007812 414.33203125 227.333007812 445.999023438 266 483.999023438 c 2
 380 597.999023438 l 2
 400 617.33203125 419 635.999023438 437 653.999023438 c 0
 455.666992188 671.999023438 471.666992188 687.666015625 485 700.999023438 c 1
 604 700.999023438 l 1
 474.666992188 573.666015625 377.666992188 478.333007812 313 415 c 1
 337.666992188 381 368.333984375 338.666992188 405.000976562 288 c 0
 441.66796875 237.333007812 477.66796875 187.333007812 513.000976562 138 c 0
 531.66796875 112 549.66796875 87 567.000976562 63 c 0
 584.333984375 39 599.333984375 18 612.000976562 0 c 1
 490.000976562 0 l 1
 470.66796875 28.6669921875 446.000976562 64.333984375 416.000976562 107.000976562 c 0
 386.000976562 150.333984375 356.66796875 192.666992188 328.000976562 234 c 0
 312.66796875 256.666992188 298.000976562 278 284.000976562 298 c 0
 270.000976562 318 257.66796875 335.666992188 247.000976562 351 c 1
 208.333984375 313 182.666992188 287.333007812 170 274 c 1
 170 0 l 1
 69 0 l 1
EndSplineSet
EndChar

StartChar: L
Encoding: 76 76 47
Width: 614
GlyphClass: 1
Flags: W
LayerCount: 2
Fore
SplineSet
108 0 m 1
 108 701 l 1
 209 701 l 1
 209 80 l 1
 569 80 l 1
 569 0 l 1
 108 0 l 1
EndSplineSet
EndChar

StartChar: M
Encoding: 77 77 48
Width: 614
GlyphClass: 1
Flags: W
LayerCount: 2
Fore
SplineSet
38 0 m 1
 37.9990234375 701.000976562 l 1
 172.999023438 701.000976562 l 1
 232.999023438 548.333984375 277.999023438 433.666992188 307.999023438 357 c 1
 319.33203125 385 333.33203125 420.333007812 349.999023438 463 c 0
 366.666015625 505 382.999023438 546.333007812 398.999023438 587 c 0
 407.666015625 609 415.999023438 629.666992188 423.999023438 649 c 0
 431.999023438 669 438.666015625 686.333007812 443.999023438 701 c 1
 579.999023438 701 l 1
 579.999023438 0 l 1
 491.999023438 0 l 1
 491.999023438 614 l 1
 479.999023438 584.666992188 464.999023438 547 446.999023438 501 c 0
 429.666015625 455.666992188 412.333007812 411 395 367 c 0
 385.666992188 343.666992188 377 321.333984375 369 300.000976562 c 0
 361 278.66796875 353.666992188 260.000976562 347 244.000976562 c 1
 270 244.000976562 l 1
 249 300.000976562 l 2
 240.333007812 321.333984375 231.333007812 343.666992188 222 367 c 0
 205.333007812 411 188 455.666992188 170 501 c 0
 152 547 137.333007812 584.666992188 126 614 c 1
 126 0 l 1
 38 0 l 1
EndSplineSet
EndChar

StartChar: N
Encoding: 78 78 49
Width: 614
GlyphClass: 1
Flags: W
LayerCount: 2
Fore
SplineSet
70 0 m 1
 69.9990234375 700.998046875 l 1
 197.999023438 700.998046875 l 1
 218.666015625 654.998046875 244.333007812 596.998046875 275 526.998046875 c 0
 305.666992188 456.998046875 336 387.998046875 366 319.998046875 c 0
 382 283.998046875 397 249.665039062 411 216.998046875 c 0
 425.666992188 184.331054688 438.666992188 155.331054688 450 129.998046875 c 1
 450 700.998046875 l 1
 547 700.998046875 l 1
 547 -0.001953125 l 1
 419 -0.001953125 l 1
 398.333007812 46.6650390625 372.666015625 104.998046875 341.999023438 174.998046875 c 0
 310.666015625 244.998046875 280.333007812 313.665039062 251 380.998046875 c 0
 235 417.665039062 219.666992188 452.33203125 205 484.999023438 c 0
 191 517.666015625 178.333007812 546.333007812 167 571 c 1
 167 0 l 1
 70 0 l 1
EndSplineSet
EndChar

StartChar: O
Encoding: 79 79 50
Width: 614
GlyphClass: 1
Flags: W
LayerCount: 2
Fore
SplineSet
417 12 m 0
 401 5.3330078125 384 -0.001953125 366 -4.001953125 c 0
 348 -7.3349609375 328.666992188 -9.001953125 308 -9.001953125 c 0
 266 -9.001953125 229.333007812 -1.3349609375 198 13.998046875 c 0
 166.666992188 28.6650390625 140.666992188 50.998046875 120 80.998046875 c 0
 99.3330078125 110.331054688 84 147.6640625 74 192.997070312 c 0
 63.3330078125 237.6640625 58 289.997070312 58 349.997070312 c 0
 58 409.997070312 63.3330078125 462.6640625 74 507.997070312 c 0
 84.6669921875 552.6640625 100.333984375 589.997070312 121.000976562 619.997070312 c 0
 141.66796875 649.997070312 167.66796875 672.330078125 199.000976562 686.997070312 c 0
 230.333984375 702.330078125 266.666992188 709.997070312 308 709.997070312 c 0
 328.666992188 709.997070312 348 707.997070312 366 703.997070312 c 0
 384 700.6640625 401 695.331054688 417 687.998046875 c 0
 433 680.665039062 447.666992188 671.33203125 461 659.999023438 c 0
 474.333007812 648.666015625 486.333007812 635.333007812 497 620 c 0
 517 589.333007812 532.333007812 551.666015625 543 506.999023438 c 0
 553 462.33203125 558 409.999023438 558 349.999023438 c 0
 558 290.666015625 553 238.666015625 543 193.999023438 c 0
 532.333007812 148.666015625 517 110.999023438 497 80.9990234375 c 0
 486.333007812 64.9990234375 474.333007812 51.33203125 461 39.9990234375 c 0
 447.666992188 28.666015625 433 19.3330078125 417 12 c 0
198 133.998046875 m 0
 209.333007812 111.998046875 224.333007812 95.6650390625 243 84.998046875 c 0
 261.666992188 74.3310546875 283.333984375 68.998046875 308.000976562 68.998046875 c 0
 334.000976562 68.998046875 356.000976562 74.3310546875 374.000976562 84.998046875 c 0
 392.66796875 95.6650390625 407.66796875 111.998046875 419.000976562 133.998046875 c 0
 430.333984375 155.331054688 438.666992188 184.331054688 444 220.998046875 c 0
 450 256.998046875 453 299.998046875 453 349.998046875 c 0
 453 399.998046875 450 443.331054688 444 479.998046875 c 0
 438.666992188 515.998046875 430.333984375 544.665039062 419.000976562 565.998046875 c 0
 407.66796875 587.998046875 392.66796875 604.665039062 374.000976562 615.998046875 c 0
 356.000976562 627.331054688 334.000976562 632.998046875 308.000976562 632.998046875 c 0
 283.333984375 632.998046875 261.666992188 627.331054688 243 615.998046875 c 0
 224.333007812 604.665039062 209.333007812 587.998046875 198 565.998046875 c 0
 186.666992188 543.331054688 178 514.331054688 172 478.998046875 c 0
 166.666992188 442.998046875 164 399.998046875 164 349.998046875 c 0
 164 300.665039062 166.666992188 257.998046875 172 221.998046875 c 0
 178 185.998046875 186.666992188 156.665039062 198 133.998046875 c 0
EndSplineSet
EndChar

StartChar: P
Encoding: 80 80 51
Width: 614
GlyphClass: 1
Flags: W
LayerCount: 2
Fore
SplineSet
86 0 m 1
 85.998046875 700.999023438 l 1
 303.998046875 700.999023438 l 2
 345.331054688 700.999023438 381.6640625 696.666015625 412.997070312 687.999023438 c 0
 444.997070312 679.33203125 471.997070312 665.999023438 493.997070312 647.999023438 c 0
 504.6640625 638.666015625 514.331054688 628.666015625 522.998046875 617.999023438 c 0
 530.998046875 607.33203125 537.665039062 595.33203125 542.998046875 581.999023438 c 0
 547.665039062 568.666015625 551.33203125 554.333007812 553.999023438 539 c 0
 556.666015625 523.666992188 557.999023438 508 557.999023438 492 c 0
 557.999023438 457.333007812 552.666015625 427 541.999023438 401 c 0
 531.33203125 375 515.33203125 353 493.999023438 335 c 0
 472.666015625 317 446.333007812 303.666992188 415 295 c 0
 383 286.333007812 346 282 304 282 c 2
 187 282 l 1
 187 0 l 1
 86 0 l 1
186.998046875 359.999023438 m 1
 303.997070312 359.999023438 l 2
 316.6640625 359.999023438 328.331054688 360.999023438 338.998046875 362.999023438 c 0
 349.665039062 364.33203125 359.665039062 366.665039062 368.998046875 369.998046875 c 0
 377.665039062 372.665039062 385.665039062 376.33203125 392.998046875 380.999023438 c 0
 400.331054688 385.666015625 407.331054688 390.333007812 413.998046875 395 c 0
 426.665039062 407 436.33203125 421 442.999023438 437 c 0
 449.666015625 453 452.999023438 471.666992188 452.999023438 493 c 0
 452.999023438 513.666992188 449.666015625 532 442.999023438 548 c 0
 436.33203125 564 426.665039062 578 413.998046875 590 c 0
 400.665039062 601.333007812 384.998046875 609.666015625 366.998046875 614.999023438 c 0
 348.998046875 620.999023438 327.998046875 623.999023438 303.998046875 623.999023438 c 2
 186.998046875 623.999023438 l 1
 186.998046875 359.999023438 l 1
EndSplineSet
EndChar

StartChar: Q
Encoding: 81 81 52
Width: 614
GlyphClass: 1
Flags: W
LayerCount: 2
Fore
SplineSet
198 135 m 0
 209.333007812 113 224.333007812 96.33203125 243 84.9990234375 c 0
 261.666992188 74.33203125 283.333984375 68.9990234375 308.000976562 68.9990234375 c 0
 334.000976562 68.9990234375 356.000976562 74.33203125 374.000976562 84.9990234375 c 0
 392.66796875 96.33203125 407.66796875 112.999023438 419.000976562 134.999023438 c 0
 430.333984375 156.33203125 438.666992188 184.999023438 444 220.999023438 c 0
 450 256.999023438 453 299.999023438 453 349.999023438 c 0
 453 399.999023438 450 443.33203125 444 479.999023438 c 0
 438.666992188 515.999023438 430.333984375 544.666015625 419.000976562 565.999023438 c 0
 407.66796875 587.999023438 392.66796875 604.666015625 374.000976562 615.999023438 c 0
 356.000976562 627.33203125 334.000976562 632.999023438 308.000976562 632.999023438 c 0
 283.333984375 632.999023438 261.666992188 627.33203125 243 615.999023438 c 0
 224.333007812 604.666015625 209.333007812 587.999023438 198 565.999023438 c 0
 186.666992188 543.33203125 178 514.33203125 172 478.999023438 c 0
 166.666992188 442.999023438 164 399.999023438 164 349.999023438 c 0
 164 300.666015625 166.666992188 258.333007812 172 223 c 0
 178 187 186.666992188 157.666992188 198 135 c 0
504 91.9990234375 m 1
 521.333007812 72.666015625 538.666992188 52.6650390625 556 31.998046875 c 2
 616 -38.001953125 l 1
 616 -97.001953125 l 1
 552 -97.001953125 l 1
 490 -27.001953125 l 2
 474.666992188 -9.001953125 459 8.998046875 443 26.998046875 c 1
 435 21.6650390625 426.333007812 16.998046875 417 12.998046875 c 0
 401.666992188 6.3310546875 384.666992188 0.998046875 366 -3.001953125 c 0
 348 -6.3349609375 328.666992188 -8.001953125 308 -8.001953125 c 0
 266 -8.001953125 229.333007812 -0.6689453125 198 13.998046875 c 0
 166.666992188 28.6650390625 140.666992188 50.998046875 120 80.998046875 c 0
 99.3330078125 110.331054688 84 147.6640625 74 192.997070312 c 0
 63.3330078125 237.6640625 58 289.997070312 58 349.997070312 c 0
 58 409.997070312 63.3330078125 462.6640625 74 507.997070312 c 0
 84.6669921875 552.6640625 100.333984375 589.997070312 121.000976562 619.997070312 c 0
 141.66796875 649.997070312 167.66796875 672.330078125 199.000976562 686.997070312 c 0
 230.333984375 702.330078125 266.666992188 709.997070312 308 709.997070312 c 0
 328.666992188 709.997070312 348 707.997070312 366 703.997070312 c 0
 384 700.6640625 401 695.331054688 417 687.998046875 c 0
 433 680.665039062 447.666992188 671.33203125 461 659.999023438 c 0
 474.333007812 648.666015625 486.333007812 635.333007812 497 620 c 0
 517 589.333007812 532.333007812 551.666015625 543 506.999023438 c 0
 553 462.33203125 558 409.999023438 558 349.999023438 c 0
 558 287.999023438 553 235.999023438 543 193.999023438 c 0
 533.666992188 154.666015625 520.666992188 120.666015625 504 91.9990234375 c 1
EndSplineSet
EndChar

StartChar: R
Encoding: 82 82 53
Width: 614
GlyphClass: 1
Flags: W
LayerCount: 2
Fore
SplineSet
72 0 m 1
 71.998046875 700.998046875 l 1
 290.998046875 700.998046875 l 2
 331.665039062 700.998046875 366.998046875 696.665039062 396.998046875 687.998046875 c 0
 426.331054688 679.331054688 449.998046875 666.331054688 467.998046875 648.998046875 c 0
 489.998046875 628.998046875 506.331054688 606.665039062 516.998046875 581.998046875 c 0
 528.331054688 557.331054688 533.998046875 530.331054688 533.998046875 500.998046875 c 0
 533.998046875 470.998046875 529.998046875 445.998046875 521.998046875 425.998046875 c 0
 514.665039062 405.998046875 502.998046875 387.331054688 486.998046875 369.998046875 c 0
 474.331054688 357.998046875 460.6640625 346.998046875 445.997070312 336.998046875 c 0
 430.6640625 327.665039062 414.331054688 318.665039062 396.998046875 309.998046875 c 1
 407.665039062 290.665039062 416.33203125 275.33203125 422.999023438 263.999023438 c 0
 428.999023438 252.666015625 432.999023438 244.999023438 434.999023438 240.999023438 c 0
 436.999023438 236.33203125 440.33203125 229.999023438 444.999023438 221.999023438 c 0
 448.999023438 213.999023438 454.33203125 203.666015625 460.999023438 190.999023438 c 0
 477.666015625 159.666015625 495.666015625 125.999023438 514.999023438 89.9990234375 c 0
 533.666015625 53.9990234375 549.333007812 23.9990234375 562 -0.0009765625 c 1
 455 -0.0009765625 l 1
 443.666992188 21.9990234375 428.666992188 51.666015625 410 88.9990234375 c 0
 391.333007812 125.666015625 376.666015625 154.999023438 365.999023438 176.999023438 c 0
 359.33203125 189.666015625 353.33203125 201.333007812 347.999023438 212 c 0
 342.666015625 222 338.333007812 230.666992188 335 238 c 0
 331 244.666992188 326.666992188 253 322 263 c 0
 316.666992188 272.333007812 311 283 305 295 c 1
 268 295 l 1
 246 295 l 2
 238 295.666992188 230 296 222 296 c 2
 173 296 l 1
 173 0 l 1
 72 0 l 1
172.998046875 374.998046875 m 1
 284 375 l 2
 310.666992188 375 333.666992188 377.333007812 353 382 c 0
 372.333007812 387.333007812 387.666015625 395.333007812 398.999023438 406 c 0
 410.999023438 416 419.999023438 428.666992188 425.999023438 444 c 0
 431.999023438 459.333007812 434.999023438 477.333007812 434.999023438 498 c 0
 434.999023438 518 431.666015625 536 424.999023438 552 c 0
 418.999023438 568 409.666015625 581.333007812 396.999023438 592 c 0
 390.999023438 597.333007812 384.666015625 601.666015625 377.999023438 604.999023438 c 0
 370.666015625 608.999023438 362.666015625 612.33203125 353.999023438 614.999023438 c 0
 345.33203125 618.33203125 335.665039062 620.665039062 324.998046875 621.998046875 c 0
 314.331054688 623.331054688 302.998046875 623.998046875 290.998046875 623.998046875 c 2
 172.998046875 623.998046875 l 1
 172.998046875 374.998046875 l 1
EndSplineSet
EndChar

StartChar: S
Encoding: 83 83 54
Width: 614
GlyphClass: 1
Flags: W
LayerCount: 2
Fore
SplineSet
483 39 m 0
 461 21.6669921875 434.326171875 8.66796875 402.993164062 0.0009765625 c 0
 370.993164062 -8.666015625 333.993164062 -12.9990234375 291.993164062 -12.9990234375 c 0
 273.993164062 -12.9990234375 256.326171875 -12.33203125 238.993164062 -10.9990234375 c 0
 220.993164062 -8.9990234375 202.993164062 -6.33203125 184.993164062 -2.9990234375 c 0
 166.993164062 0.333984375 149.326171875 4.6669921875 131.993164062 10 c 0
 114.66015625 16 96.9931640625 22.3330078125 78.9931640625 29 c 1
 78.9931640625 130 l 1
 97.66015625 118.666992188 116.327148438 109 134.994140625 101 c 0
 152.994140625 92.3330078125 170.661132812 85.3330078125 187.994140625 80 c 0
 205.327148438 74.6669921875 222.327148438 70.6669921875 238.994140625 68 c 0
 256.327148438 64.6669921875 273.66015625 63 290.993164062 63 c 0
 316.326171875 63 338.993164062 65.6669921875 358.993164062 71 c 0
 378.326171875 76.3330078125 395.326171875 84.3330078125 409.993164062 95 c 0
 423.993164062 105.666992188 434.66015625 119 441.993164062 135 c 0
 449.326171875 150.333007812 452.993164062 168 452.993164062 188 c 0
 452.993164062 205.333007812 450.66015625 220.333007812 445.993164062 233 c 0
 441.326171875 245 433.993164062 255.666992188 423.993164062 265 c 0
 418.66015625 270.333007812 412.66015625 275.333007812 405.993164062 280 c 0
 398.66015625 284 390.993164062 287.666992188 382.993164062 291 c 0
 374.993164062 293.666992188 365.66015625 296.666992188 354.993164062 300 c 0
 344.993164062 303.333007812 333.993164062 306.333007812 321.993164062 309 c 0
 312.66015625 311 305.66015625 312.333007812 300.993164062 313 c 0
 296.326171875 313.666992188 284.993164062 316.333984375 266.993164062 321.000976562 c 0
 250.326171875 324.333984375 234.659179688 328.333984375 219.9921875 333.000976562 c 0
 205.325195312 337.000976562 191.658203125 341.66796875 178.991210938 347.000976562 c 0
 166.32421875 352.333984375 154.991210938 358.333984375 144.991210938 365.000976562 c 0
 134.32421875 371.66796875 124.991210938 379.000976562 116.991210938 387.000976562 c 0
 100.991210938 401.66796875 88.9912109375 419.000976562 80.9912109375 439.000976562 c 0
 73.658203125 459.000976562 69.9912109375 481.66796875 69.9912109375 507.000976562 c 0
 69.9912109375 538.333984375 75.658203125 567.000976562 86.9912109375 593.000976562 c 0
 97.658203125 618.333984375 114.325195312 640.000976562 136.9921875 658.000976562 c 0
 147.659179688 666.66796875 159.659179688 674.66796875 172.9921875 682.000976562 c 0
 185.659179688 688.66796875 199.326171875 694.334960938 213.993164062 699.001953125 c 0
 228.66015625 703.668945312 244.66015625 707.668945312 261.993164062 711.001953125 c 0
 278.66015625 713.668945312 296.327148438 715.001953125 314.994140625 715.001953125 c 0
 329.661132812 715.001953125 344.328125 714.001953125 358.995117188 712.001953125 c 0
 374.328125 710.668945312 389.995117188 708.668945312 405.995117188 706.001953125 c 0
 413.328125 704.001953125 421.328125 702.001953125 429.995117188 700.001953125 c 0
 437.995117188 698.001953125 446.328125 696.001953125 454.995117188 694.001953125 c 0
 462.995117188 692.001953125 471.328125 689.668945312 479.995117188 687.001953125 c 0
 488.662109375 683.668945312 497.329101562 680.668945312 505.99609375 678.001953125 c 1
 505.99609375 582.001953125 l 1
 497.99609375 586.668945312 489.99609375 591.001953125 481.99609375 595.001953125 c 0
 473.99609375 599.001953125 466.329101562 602.668945312 458.99609375 606.001953125 c 0
 450.99609375 610.001953125 443.329101562 613.334960938 435.99609375 616.001953125 c 2
 413.99609375 624.001953125 l 2
 398.663085938 628.668945312 382.99609375 632.001953125 366.99609375 634.001953125 c 0
 351.663085938 636.001953125 336.330078125 637.001953125 320.997070312 637.001953125 c 0
 296.330078125 637.001953125 274.997070312 634.668945312 256.997070312 630.001953125 c 0
 238.330078125 624.668945312 221.997070312 616.668945312 207.997070312 606.001953125 c 0
 193.997070312 595.334960938 183.6640625 582.66796875 176.997070312 568.000976562 c 0
 169.6640625 554.000976562 165.997070312 537.66796875 165.997070312 519.000976562 c 0
 165.997070312 511.000976562 166.6640625 503.66796875 167.997070312 497.000976562 c 0
 168.6640625 491.000976562 170.331054688 485.000976562 172.998046875 479.000976562 c 0
 175.665039062 473.66796875 178.665039062 468.66796875 181.998046875 464.000976562 c 0
 185.331054688 460.000976562 189.331054688 456.000976562 193.998046875 452.000976562 c 0
 203.331054688 443.333984375 216.331054688 435.333984375 232.998046875 428.000976562 c 0
 249.665039062 420.66796875 270.33203125 414.66796875 294.999023438 410.000976562 c 0
 303.666015625 408.000976562 310.333007812 406.333984375 315 405.000976562 c 0
 319 404.333984375 330 402.000976562 348 398.000976562 c 0
 382.666992188 391.333984375 412.666992188 382.000976562 438 370.000976562 c 0
 463.333007812 358.000976562 484.333007812 343.66796875 501 327.000976562 c 0
 517 310.333984375 529 290.666992188 537 268 c 0
 545 246 549 221 549 193 c 0
 549 175 547.333007812 158.333007812 544 143 c 0
 541.333007812 128.333007812 537 114.333007812 531 101 c 0
 525.666992188 88.3330078125 519 77 511 67 c 0
 503 56.3330078125 493.666992188 47 483 39 c 0
EndSplineSet
EndChar

StartChar: T
Encoding: 84 84 55
Width: 614
GlyphClass: 1
Flags: W
LayerCount: 2
Fore
SplineSet
258 0 m 1
 258 622 l 1
 24 622 l 1
 24 701 l 1
 593 701 l 1
 593 622 l 1
 359 622 l 1
 359 0 l 1
 258 0 l 1
EndSplineSet
EndChar

StartChar: U
Encoding: 85 85 56
Width: 614
GlyphClass: 1
Flags: W
LayerCount: 2
Fore
SplineSet
368 -10 m 0
 358 -11.3330078125 348.00390625 -12.333984375 338.00390625 -13.0009765625 c 2
 309.00390625 -13.0009765625 l 2
 295.00390625 -13.0009765625 278.670898438 -12.0009765625 260.00390625 -10.0009765625 c 0
 242.00390625 -8.0009765625 222.336914062 -4.66796875 201.00390625 -0.0009765625 c 0
 194.336914062 1.9990234375 187.669921875 4.666015625 181.002929688 7.9990234375 c 0
 175.002929688 10.666015625 168.3359375 13.666015625 161.002929688 16.9990234375 c 0
 153.669921875 20.9990234375 147.002929688 24.666015625 141.002929688 27.9990234375 c 0
 135.002929688 31.9990234375 129.3359375 36.33203125 124.002929688 40.9990234375 c 0
 118.669921875 45.666015625 113.669921875 50.666015625 109.002929688 55.9990234375 c 0
 104.3359375 60.666015625 100.002929688 66.3330078125 96.0029296875 73 c 0
 92.0029296875 79 88.3359375 85.6669921875 85.0029296875 93 c 0
 81.669921875 100.333007812 78.669921875 108.333007812 76.0029296875 117 c 0
 73.3359375 124.333007812 71.0029296875 133 69.0029296875 143 c 0
 67.0029296875 153 65.669921875 164 65.0029296875 176 c 0
 63.669921875 188 62.669921875 201.666992188 62.0029296875 217 c 0
 60.669921875 232.333007812 60.0029296875 249.666015625 60.0029296875 268.999023438 c 2
 60.0029296875 700.999023438 l 1
 163.002929688 700.999023438 l 1
 163.002929688 225.999023438 l 1
 163.002929688 182.999023438 l 2
 163.002929688 170.33203125 163.669921875 160.665039062 165.002929688 153.998046875 c 0
 165.669921875 146.665039062 167.002929688 139.998046875 169.002929688 133.998046875 c 0
 171.002929688 128.665039062 173.3359375 123.998046875 176.002929688 119.998046875 c 0
 181.3359375 110.665039062 187.668945312 102.33203125 195.001953125 94.9990234375 c 0
 203.001953125 88.33203125 212.001953125 82.6650390625 222.001953125 77.998046875 c 0
 232.668945312 73.3310546875 245.001953125 69.6640625 259.001953125 66.9970703125 c 0
 273.668945312 64.330078125 290.001953125 62.9970703125 308.001953125 62.9970703125 c 0
 327.334960938 62.9970703125 344.001953125 64.330078125 358.001953125 66.9970703125 c 0
 372.001953125 69.6640625 384.001953125 73.3310546875 394.001953125 77.998046875 c 0
 404.668945312 83.3310546875 413.668945312 89.3310546875 421.001953125 95.998046875 c 0
 429.001953125 103.331054688 435.334960938 111.331054688 440.001953125 119.998046875 c 0
 442.668945312 124.665039062 445.001953125 129.665039062 447.001953125 134.998046875 c 0
 449.001953125 140.331054688 450.668945312 146.331054688 452.001953125 152.998046875 c 0
 452.668945312 159.665039062 453.001953125 169.33203125 453.001953125 181.999023438 c 0
 453.668945312 193.999023438 454.001953125 208.33203125 454.001953125 224.999023438 c 2
 454.001953125 700.999023438 l 1
 555.001953125 700.999023438 l 1
 555.001953125 268.999023438 l 2
 555.001953125 248.999023438 554.668945312 230.666015625 554.001953125 213.999023438 c 0
 553.334960938 197.999023438 552.334960938 184.33203125 551.001953125 172.999023438 c 0
 549.668945312 161.666015625 548.001953125 151.333007812 546.001953125 142 c 0
 544.668945312 132 543.001953125 123.666992188 541.001953125 117 c 0
 536.334960938 101.666992188 530.001953125 87.6669921875 522.001953125 75 c 0
 514.001953125 62.3330078125 504.334960938 51 493.001953125 41 c 0
 487.001953125 36.3330078125 481.001953125 32 475.001953125 28 c 0
 469.001953125 24.6669921875 462.668945312 21 456.001953125 17 c 0
 449.334960938 13.6669921875 442.66796875 10.6669921875 436.000976562 8 c 0
 429.333984375 4.6669921875 422.666992188 2 416 0 c 0
 410 -2 402.666992188 -4 394 -6 c 0
 386 -8 377.333007812 -9.3330078125 368 -10 c 0
EndSplineSet
EndChar

StartChar: V
Encoding: 86 86 57
Width: 614
GlyphClass: 1
Flags: W
LayerCount: 2
Fore
SplineSet
247 0 m 1
 229 56.6669921875 206.666015625 128 179.999023438 214 c 0
 153.33203125 300 126.999023438 384.666992188 100.999023438 468 c 0
 86.9990234375 512.666992188 73.9990234375 555 61.9990234375 595 c 0
 49.33203125 635 38.33203125 670.333007812 28.9990234375 701 c 1
 126.999023438 701 l 1
 134.999023438 674.333007812 143.999023438 643.333007812 153.999023438 608 c 0
 164.666015625 572.666992188 175.666015625 535.666992188 186.999023438 497 c 0
 208.33203125 423.666992188 230.33203125 349.333984375 252.999023438 274.000976562 c 0
 274.999023438 198.66796875 293.33203125 136.000976562 307.999023438 86.0009765625 c 1
 322.666015625 136.000976562 341.333007812 198.66796875 364 274.000976562 c 0
 386 349.333984375 407.666992188 423.666992188 429 497 c 0
 441 535.666992188 452 572.666992188 462 608 c 0
 472.666992188 643.333007812 481.666992188 674.333007812 489 701 c 1
 588 701 l 1
 570 644.333007812 547.666992188 573 521 487 c 0
 494.333007812 401 468 316.333007812 442 233 c 0
 428 189 415 146.666992188 403 106 c 0
 390.333007812 66 379.333007812 30.6669921875 370 0 c 1
 247 0 l 1
EndSplineSet
EndChar

StartChar: W
Encoding: 87 87 58
Width: 614
GlyphClass: 1
Flags: W
LayerCount: 2
Fore
SplineSet
112 0 m 1
 102.666992188 56.6669921875 91.3330078125 128.001953125 78 214.001953125 c 0
 64.6669921875 300.001953125 51.6669921875 384.668945312 39 468.001953125 c 0
 31.6669921875 512.668945312 25 555.001953125 19 595.001953125 c 0
 12.3330078125 635.001953125 6.666015625 670.334960938 1.9990234375 701.001953125 c 1
 87.9990234375 701.001953125 l 1
 94.666015625 655.668945312 102.666015625 598.668945312 111.999023438 530.001953125 c 0
 121.33203125 461.334960938 130.665039062 394.001953125 139.998046875 328.001953125 c 0
 144.665039062 292.001953125 149.33203125 258.001953125 153.999023438 226.001953125 c 0
 158.666015625 194.001953125 162.666015625 165.668945312 165.999023438 141.001953125 c 1
 172.666015625 180.334960938 181.333007812 236.001953125 192 308.001953125 c 0
 202.666992188 380.001953125 213.333984375 450.334960938 224.000976562 519.001953125 c 0
 229.333984375 555.668945312 234.333984375 590.001953125 239.000976562 622.001953125 c 0
 244.333984375 653.334960938 248.666992188 679.66796875 252 701.000976562 c 1
 364 701.000976562 l 1
 370 661.66796875 378.666992188 606.000976562 390 534.000976562 c 0
 400.666992188 462.000976562 411.333984375 391.66796875 422.000976562 323.000976562 c 0
 427.333984375 286.333984375 432.666992188 252.000976562 438 220.000976562 c 0
 442.666992188 188.000976562 447 161.333984375 451 140.000976562 c 1
 489.666992188 420.66796875 515.333984375 607.66796875 528.000976562 701.000976562 c 1
 614.000976562 701.000976562 l 1
 609.333984375 670.333984375 604.000976562 635.000976562 598.000976562 595.000976562 c 0
 591.333984375 555.000976562 584.666992188 512.66796875 578 468.000976562 c 0
 564.666992188 384.66796875 551.333984375 300.000976562 538.000976562 214.000976562 c 0
 524.66796875 128.000976562 513.66796875 56.66796875 505.000976562 0.0009765625 c 1
 406.000976562 0.0009765625 l 1
 401.333984375 27.333984375 395.666992188 62.6669921875 389 106 c 0
 381.666992188 149.333007812 374 195.333007812 366 244 c 0
 362 270 358 296.333007812 354 323 c 0
 349.333007812 349.666992188 345 375.666992188 341 401 c 0
 334.333007812 440.333007812 328.333007812 477 323 511 c 2
 308 596 l 1
 305.333007812 581.333007812 302.333007812 564 299 544 c 0
 295.666992188 524.666992188 292 503.666992188 288 481 c 0
 281.333007812 437.666992188 274 391 266 341 c 0
 258 291 250 242.333007812 242 195 c 0
 236 155.666992188 230 119 224 85 c 0
 218.666992188 51 214 22.6669921875 210 0 c 1
 112 0 l 1
EndSplineSet
EndChar

StartChar: X
Encoding: 88 88 59
Width: 614
GlyphClass: 1
Flags: W
LayerCount: 2
Fore
SplineSet
9 0 m 1
 20.3330078125 16 33.001953125 34.6708984375 47.001953125 56.00390625 c 0
 61.6689453125 77.3369140625 76.6689453125 100.00390625 92.001953125 124.00390625 c 0
 122.001953125 168.00390625 152.334960938 212.670898438 183.001953125 258.00390625 c 0
 213.668945312 303.336914062 239.001953125 341.336914062 259.001953125 372.00390625 c 1
 247.668945312 387.336914062 235.3359375 404.336914062 222.002929688 423.00390625 c 0
 208.669921875 441.670898438 194.669921875 461.00390625 180.002929688 481.00390625 c 0
 153.3359375 518.336914062 126.3359375 556.336914062 99.0029296875 595.00390625 c 0
 71.0029296875 634.336914062 46.0029296875 669.669921875 24.0029296875 701.002929688 c 1
 132.002929688 701.002929688 l 1
 158.002929688 663.002929688 187.669921875 620.002929688 221.002929688 572.002929688 c 0
 254.3359375 524.669921875 285.668945312 479.669921875 315.001953125 437.002929688 c 1
 329.001953125 459.002929688 346.001953125 486.002929688 366.001953125 518.002929688 c 0
 386.668945312 550.002929688 407.001953125 581.669921875 427.001953125 613.002929688 c 0
 437.668945312 629.669921875 447.668945312 645.669921875 457.001953125 661.002929688 c 0
 466.334960938 676.3359375 474.66796875 689.668945312 482.000976562 701.001953125 c 1
 591.000976562 701.001953125 l 1
 572.333984375 674.334960938 549.666992188 641.001953125 523 601.001953125 c 0
 495.666992188 560.334960938 468.666992188 520.66796875 442 482.000976562 c 0
 428 460.66796875 414.666992188 440.66796875 402 422.000976562 c 0
 388.666992188 403.333984375 377.333984375 386.666992188 368.000976562 372 c 1
 387.333984375 341.333007812 411.666992188 303.333007812 441 258 c 0
 470.333007812 212.666992188 499.333007812 168 528 124 c 0
 542.666992188 100 557 77.3330078125 571 56 c 0
 585 34.6669921875 597 16 607 0 c 1
 499 -0 l 1
 491 13.3330078125 481.666992188 28.666015625 471 45.9990234375 c 0
 460.333007812 63.33203125 449.333007812 81.6650390625 438 100.998046875 c 0
 416 136.331054688 393.666992188 172.6640625 371 209.997070312 c 0
 349 246.6640625 330.333007812 277.331054688 315 301.998046875 c 1
 299 277.331054688 279 246.6640625 255 209.997070312 c 0
 231 172.6640625 207.333007812 136.331054688 184 100.998046875 c 0
 171.333007812 81.6650390625 159.333007812 63.33203125 148 45.9990234375 c 0
 136.666992188 28.666015625 126.666992188 13.3330078125 118 0 c 1
 9 0 l 1
EndSplineSet
EndChar

StartChar: Y
Encoding: 89 89 60
Width: 614
GlyphClass: 1
Flags: W
LayerCount: 2
Fore
SplineSet
257 0 m 1
 256.994140625 315 l 1
 237.661132812 346.333007812 213.328125 385.666015625 183.995117188 432.999023438 c 0
 154.662109375 480.33203125 125.995117188 526.999023438 97.9951171875 572.999023438 c 0
 82.662109375 597.666015625 68.3291015625 620.999023438 54.99609375 642.999023438 c 0
 40.99609375 664.999023438 28.6630859375 684.33203125 17.99609375 700.999023438 c 1
 125.99609375 700.999023438 l 1
 140.663085938 675.666015625 159.330078125 644.333007812 181.997070312 607 c 0
 203.997070312 569 225.997070312 531.666992188 247.997070312 495 c 0
 259.330078125 475.666992188 270.330078125 457 280.997070312 439 c 0
 290.997070312 421.666992188 299.997070312 406 307.997070312 392 c 1
 322.6640625 417.333007812 341.331054688 449 363.998046875 487 c 0
 385.998046875 525 407.665039062 562 428.998046875 598 c 0
 440.998046875 618 451.998046875 637 461.998046875 655 c 0
 472.665039062 672.333007812 481.665039062 687.666015625 488.998046875 700.999023438 c 1
 597.998046875 700.999023438 l 1
 578.665039062 670.33203125 554.33203125 630.999023438 524.999023438 582.999023438 c 0
 495.666015625 535.666015625 466.666015625 489.333007812 437.999023438 444 c 0
 422.666015625 419.333007812 408.333007812 396 395 374 c 0
 381 352 368.666992188 332.333007812 358 315 c 1
 358 0 l 1
 257 0 l 1
EndSplineSet
EndChar

StartChar: Z
Encoding: 90 90 61
Width: 614
GlyphClass: 1
Flags: W
LayerCount: 2
Fore
SplineSet
55 0 m 1
 55 72.9990234375 l 1
 86.3330078125 117.666015625 125 173.333007812 171 240 c 0
 217.666992188 307.333007812 263.333984375 373.666015625 308.000976562 438.999023438 c 0
 332.000976562 473.666015625 355.000976562 506.666015625 377.000976562 537.999023438 c 0
 398.333984375 569.999023438 417.333984375 597.999023438 434.000976562 621.999023438 c 1
 66.0009765625 621.999023438 l 1
 66.0009765625 700.999023438 l 1
 551.000976562 700.999023438 l 1
 551.000976562 629.999023438 l 1
 533.66796875 605.999023438 514.000976562 578.33203125 492.000976562 546.999023438 c 0
 469.333984375 514.999023438 445.666992188 481.666015625 421 446.999023438 c 0
 375 381.666015625 328 315.333007812 280 248 c 0
 232 180.666992188 192.333007812 124.666992188 161 80 c 1
 561 80 l 1
 561 0 l 1
 55 0 l 1
EndSplineSet
EndChar

StartChar: bracketleft
Encoding: 91 91 62
Width: 614
GlyphClass: 1
Flags: W
LayerCount: 2
Fore
SplineSet
148 -90 m 1
 148 792 l 1
 461 792 l 1
 461 718 l 1
 241 718 l 1
 241 -15 l 1
 461 -15 l 1
 461 -90 l 1
 148 -90 l 1
EndSplineSet
EndChar

StartChar: backslash
Encoding: 92 92 63
Width: 614
GlyphClass: 1
Flags: W
LayerCount: 2
Fore
SplineSet
158 745 m 1
 178.666992188 703.666992188 203.000976562 654.333984375 231.000976562 597.000976562 c 0
 259.66796875 540.333984375 289.66796875 481.000976562 321.000976562 419.000976562 c 0
 337.000976562 385.000976562 353.66796875 351.333984375 371.000976562 318.000976562 c 0
 387.66796875 284.000976562 404.334960938 250.333984375 421.001953125 217.000976562 c 0
 445.668945312 167.000976562 469.3359375 119.333984375 492.002929688 74.0009765625 c 2
 552.002929688 -45.9990234375 l 1
 456.002929688 -45.9990234375 l 1
 396.002929688 74.0009765625 l 2
 373.3359375 119.333984375 349.668945312 167.000976562 325.001953125 217.000976562 c 0
 308.334960938 249.66796875 291.66796875 283.000976562 275.000976562 317.000976562 c 2
 225.000976562 419.000976562 l 2
 194.333984375 481.000976562 164.666992188 540.333984375 136 597.000976562 c 0
 108 654.333984375 83.3330078125 703.666992188 62 745 c 1
 158 745 l 1
EndSplineSet
EndChar

StartChar: bracketright
Encoding: 93 93 64
Width: 614
GlyphClass: 1
Flags: W
LayerCount: 2
Fore
SplineSet
154 -89 m 1
 154 -14 l 1
 374 -14 l 1
 374 718 l 1
 154 718 l 1
 154 792 l 1
 466 792 l 1
 466 -89 l 1
 154 -89 l 1
EndSplineSet
EndChar

StartChar: asciicircum
Encoding: 94 94 65
Width: 614
GlyphClass: 1
Flags: W
LayerCount: 2
Fore
SplineSet
61 433 m 1
 77.6669921875 455 98.3330078125 482.334960938 123 515.001953125 c 0
 148.333007812 547.668945312 173 580.001953125 197 612.001953125 c 0
 209.666992188 629.334960938 222 645.66796875 234 661.000976562 c 0
 245.333007812 676.333984375 255.333007812 689.666992188 264 701 c 1
 352 701 l 1
 368.666992188 679.666992188 389.333984375 652.666992188 414.000976562 620 c 0
 438.66796875 586.666992188 463.334960938 554 488.001953125 522 c 0
 500.668945312 505.333007812 512.668945312 489.333007812 524.001953125 474 c 0
 536.001953125 458.666992188 546.334960938 445 555.001953125 433 c 1
 444.001953125 433 l 1
 438.668945312 441.666992188 432.001953125 451.333984375 424.001953125 462.000976562 c 0
 416.001953125 472.66796875 407.668945312 484.000976562 399.001953125 496.000976562 c 0
 383.001953125 518.66796875 366.668945312 542.000976562 350.001953125 566.000976562 c 0
 333.334960938 589.333984375 319.334960938 608.666992188 308.001953125 624 c 1
 297.334960938 608.666992188 283.66796875 589.333984375 267.000976562 566.000976562 c 0
 250.333984375 542.000976562 233.666992188 518.66796875 217 496.000976562 c 0
 208.333007812 484.000976562 200.333007812 472.66796875 193 462.000976562 c 0
 185 451.333984375 178 441.666992188 172 433 c 1
 61 433 l 1
EndSplineSet
EndChar

StartChar: underscore
Encoding: 95 95 66
Width: 614
GlyphClass: 1
Flags: W
LayerCount: 2
Fore
SplineSet
-9 -89 m 1
 -9 -13 l 1
 626 -13 l 1
 626 -89 l 1
 -9 -89 l 1
EndSplineSet
EndChar

StartChar: grave
Encoding: 96 96 67
Width: 614
GlyphClass: 1
Flags: W
LayerCount: 2
Fore
SplineSet
425 563 m 1
 313 563 l 1
 301 579.666992188 286 600.666992188 268 626 c 0
 250 652 232.666992188 677 216 701 c 0
 206.666992188 714.333007812 197.666992188 727 189 739 c 0
 181 751 173.666992188 761.333007812 167 770 c 1
 278 770 l 1
 284 761.333007812 291.333007812 751 300 739 c 0
 308.666992188 727 317.666992188 714.333007812 327 701 c 0
 344.333007812 676.333007812 362 651.333007812 380 626 c 0
 398 600.666992188 413 579.666992188 425 563 c 1
EndSplineSet
EndChar

StartChar: a
Encoding: 97 97 68
Width: 614
GlyphClass: 1
Flags: W
LayerCount: 2
Fore
SplineSet
366 4 m 0
 348 -2 329.998046875 -6.3359375 311.998046875 -9.0029296875 c 0
 293.331054688 -11.669921875 274.331054688 -13.0029296875 254.998046875 -13.0029296875 c 0
 227.665039062 -13.0029296875 202.998046875 -9.3359375 180.998046875 -2.0029296875 c 0
 158.331054688 4.6640625 138.331054688 15.6640625 120.998046875 30.9970703125 c 0
 103.665039062 45.6640625 90.33203125 63.3310546875 80.9990234375 83.998046875 c 0
 72.33203125 104.665039062 67.9990234375 128.998046875 67.9990234375 156.998046875 c 0
 67.9990234375 178.998046875 70.9990234375 198.998046875 76.9990234375 216.998046875 c 0
 82.9990234375 234.998046875 91.666015625 250.331054688 102.999023438 262.998046875 c 0
 114.999023438 275.665039062 128.666015625 286.665039062 143.999023438 295.998046875 c 0
 158.666015625 304.665039062 175.666015625 311.33203125 194.999023438 315.999023438 c 0
 213.666015625 321.33203125 232.999023438 325.33203125 252.999023438 327.999023438 c 0
 272.999023438 331.33203125 293.666015625 332.999023438 314.999023438 332.999023438 c 2
 437.999023438 332.999023438 l 1
 437.999023438 345.999023438 l 2
 437.999023438 368.666015625 435.33203125 387.666015625 429.999023438 402.999023438 c 0
 423.999023438 418.33203125 414.666015625 430.33203125 401.999023438 438.999023438 c 0
 389.999023438 447.666015625 375.666015625 454.333007812 358.999023438 459 c 0
 341.666015625 463.666992188 321.999023438 466 299.999023438 466 c 2
 215.999023438 466 l 2
 204.666015625 466 192.999023438 465.666992188 180.999023438 465 c 0
 168.33203125 465 155.33203125 464.666992188 141.999023438 464 c 1
 141.999023438 537 l 1
 181.999023438 537 l 2
 194.666015625 537 206.333007812 537.333007812 217 538 c 2
 253 538 l 2
 266.333007812 538.666992188 281.333007812 539 298 539 c 0
 314.666992188 539 331 538 347 536 c 0
 363 533.333007812 379 530 395 526 c 0
 411 522 426 516.333007812 440 509 c 0
 453.333007812 501.666992188 465.666015625 493 476.999023438 483 c 0
 488.33203125 473.666992188 497.999023438 462.333984375 505.999023438 449.000976562 c 0
 513.999023438 436.333984375 519.666015625 422.000976562 522.999023438 406.000976562 c 0
 525.666015625 394.000976562 527.666015625 379.333984375 528.999023438 362.000976562 c 0
 530.33203125 344.000976562 530.999023438 323.333984375 530.999023438 300.000976562 c 2
 530.999023438 193.000976562 l 1
 530.999023438 95.0009765625 l 1
 530.999023438 44.0009765625 l 2
 530.999023438 28.0009765625 530.666015625 13.0009765625 529.999023438 -0.9990234375 c 1
 498.999023438 -0.9990234375 l 2
 492.33203125 -0.9990234375 474.999023438 -0.666015625 446.999023438 0.0009765625 c 1
 447.666015625 10.0009765625 447.999023438 18.0009765625 447.999023438 24.0009765625 c 0
 448.666015625 30.66796875 448.999023438 35.66796875 448.999023438 39.0009765625 c 0
 448.999023438 42.333984375 448.666015625 46.333984375 447.999023438 51.0009765625 c 0
 447.33203125 56.333984375 446.999023438 62.6669921875 446.999023438 70 c 1
 437.666015625 54 425.999023438 40.6669921875 411.999023438 30 c 0
 398.666015625 18.6669921875 383.333007812 10 366 4 c 0
192.998046875 82.9970703125 m 0
 203.665039062 74.9970703125 215.999023438 68.99609375 229.999023438 64.99609375 c 0
 243.999023438 60.3291015625 259.999023438 57.99609375 277.999023438 57.99609375 c 0
 296.666015625 57.99609375 313.666015625 60.3291015625 328.999023438 64.99609375 c 0
 344.33203125 69.6630859375 357.999023438 76.330078125 369.999023438 84.9970703125 c 0
 381.33203125 93.6640625 391.33203125 103.6640625 399.999023438 114.997070312 c 0
 408.666015625 126.330078125 415.999023438 139.330078125 421.999023438 153.997070312 c 0
 427.33203125 167.997070312 431.33203125 182.6640625 433.999023438 197.997070312 c 0
 436.666015625 213.330078125 437.999023438 229.330078125 437.999023438 245.997070312 c 2
 437.999023438 263.997070312 l 1
 321.999023438 263.997070312 l 2
 308.666015625 263.997070312 295.666015625 263.330078125 282.999023438 261.997070312 c 0
 270.33203125 260.6640625 257.999023438 258.6640625 245.999023438 255.997070312 c 0
 233.33203125 253.330078125 221.999023438 249.330078125 211.999023438 243.997070312 c 0
 201.999023438 239.330078125 192.666015625 232.997070312 183.999023438 224.997070312 c 0
 175.999023438 217.6640625 169.999023438 208.331054688 165.999023438 196.998046875 c 0
 161.999023438 185.665039062 159.999023438 172.665039062 159.999023438 157.998046875 c 0
 159.999023438 141.331054688 162.666015625 126.6640625 167.999023438 113.997070312 c 0
 173.33203125 101.330078125 181.665039062 90.9970703125 192.998046875 82.9970703125 c 0
EndSplineSet
EndChar

StartChar: b
Encoding: 98 98 69
Width: 614
GlyphClass: 1
Flags: W
LayerCount: 2
Fore
SplineSet
443 11 m 0
 429.666992188 3 414.333007812 -2.998046875 397 -6.998046875 c 0
 380.333007812 -10.998046875 362 -12.998046875 342 -12.998046875 c 0
 306.666992188 -12.998046875 276.333984375 -6.3310546875 251.000976562 7.001953125 c 0
 225.000976562 20.3349609375 204.000976562 40.3349609375 188.000976562 67.001953125 c 1
 186.66796875 55.6689453125 185.000976562 43.6689453125 183.000976562 31.001953125 c 0
 181.66796875 18.3349609375 180.334960938 8.001953125 179.001953125 0.001953125 c 1
 96.001953125 0.001953125 l 1
 96.001953125 758.001953125 l 1
 188.001953125 758.001953125 l 1
 188.001953125 459.001953125 l 1
 196.001953125 472.334960938 205.334960938 484.001953125 216.001953125 494.001953125 c 0
 226.668945312 504.001953125 238.668945312 512.334960938 252.001953125 519.001953125 c 0
 265.334960938 525.668945312 279.66796875 530.668945312 295.000976562 534.001953125 c 0
 310.333984375 537.334960938 326.333984375 539.001953125 343.000976562 539.001953125 c 0
 363.000976562 539.001953125 381.333984375 537.001953125 398.000976562 533.001953125 c 0
 415.333984375 529.001953125 430.666992188 523.001953125 444 515.001953125 c 0
 458 507.001953125 470.333007812 497.668945312 481 487.001953125 c 0
 492.333007812 476.334960938 502 464.334960938 510 451.001953125 c 0
 518 437.668945312 525 423.3359375 531 408.002929688 c 0
 536.333007812 393.3359375 541 377.668945312 545 361.001953125 c 0
 548.333007812 345.001953125 551 328.668945312 553 312.001953125 c 0
 555 296.001953125 556 279.668945312 556 263.001953125 c 0
 556 247.001953125 555 230.668945312 553 214.001953125 c 0
 551 197.334960938 548.333007812 181.001953125 545 165.001953125 c 0
 541 148.334960938 536 132.66796875 530 118.000976562 c 0
 524 103.333984375 517 89.333984375 509 76.0009765625 c 0
 501 62.66796875 491.333007812 50.66796875 480 40.0009765625 c 0
 469.333007812 29.333984375 457 19.6669921875 443 11 c 0
262.999023438 79.001953125 m 0
 272.33203125 72.3349609375 282.998046875 67.333984375 294.998046875 64.0009765625 c 0
 307.665039062 60.66796875 321.665039062 59.0009765625 336.998046875 59.0009765625 c 0
 352.331054688 59.0009765625 366.331054688 60.66796875 378.998046875 64.0009765625 c 0
 391.665039062 67.333984375 402.665039062 72.333984375 411.998046875 79.0009765625 c 0
 421.331054688 85.66796875 429.6640625 93.0009765625 436.997070312 101.000976562 c 0
 444.330078125 109.66796875 450.330078125 119.000976562 454.997070312 129.000976562 c 0
 460.330078125 139.000976562 464.663085938 149.66796875 467.99609375 161.000976562 c 0
 471.329101562 172.333984375 473.662109375 184.000976562 474.995117188 196.000976562 c 2
 478.995117188 230.000976562 l 2
 479.662109375 241.333984375 479.995117188 252.333984375 479.995117188 263.000976562 c 0
 479.995117188 273.66796875 479.662109375 284.66796875 478.995117188 296.000976562 c 0
 477.662109375 306.66796875 476.329101562 318.000976562 474.99609375 330.000976562 c 0
 473.663085938 341.333984375 471.330078125 352.666992188 467.997070312 364 c 0
 464.6640625 375.333007812 460.331054688 386 454.998046875 396 c 0
 450.331054688 406.666992188 444.331054688 416 436.998046875 424 c 0
 429.665039062 432 421.33203125 439.333007812 411.999023438 446 c 0
 402.666015625 452.666992188 391.666015625 457.666992188 378.999023438 461 c 0
 366.33203125 464.333007812 352.33203125 466 336.999023438 466 c 0
 321.666015625 466 307.666015625 464.333007812 294.999023438 461 c 0
 282.999023438 457.666992188 272.33203125 452.666992188 262.999023438 446 c 0
 253.666015625 439.333007812 245.333007812 432 238 424 c 0
 230.666992188 416 224.333984375 406.666992188 219.000976562 396 c 0
 214.333984375 386 210.000976562 375.666992188 206.000976562 365 c 0
 202.66796875 353.666992188 200.334960938 342.333984375 199.001953125 331.000976562 c 0
 197.001953125 319.000976562 195.668945312 307.333984375 195.001953125 296.000976562 c 0
 193.668945312 284.66796875 193.001953125 273.66796875 193.001953125 263.000976562 c 0
 193.001953125 252.333984375 193.668945312 241.333984375 195.001953125 230.000976562 c 0
 195.668945312 218.66796875 197.001953125 207.334960938 199.001953125 196.001953125 c 0
 200.334960938 184.001953125 202.66796875 172.334960938 206.000976562 161.001953125 c 0
 210.000976562 149.668945312 214.333984375 139.001953125 219.000976562 129.001953125 c 0
 224.333984375 119.001953125 230.666992188 109.668945312 238 101.001953125 c 0
 245.333007812 93.001953125 253.666015625 85.6689453125 262.999023438 79.001953125 c 0
EndSplineSet
EndChar

StartChar: c
Encoding: 99 99 70
Width: 614
GlyphClass: 1
Flags: W
LayerCount: 2
Fore
SplineSet
515 27 m 1
 491 13.6669921875 465.333984375 3.6640625 438.000976562 -3.0029296875 c 0
 411.333984375 -9.669921875 382.666992188 -13.0029296875 352 -13.0029296875 c 0
 322.666992188 -13.0029296875 295.666992188 -10.3359375 271 -5.0029296875 c 0
 246.333007812 0.9970703125 224 9.9970703125 204 21.9970703125 c 0
 184 33.330078125 166.333007812 46.9970703125 151 62.9970703125 c 0
 135.666992188 78.9970703125 123 97.6640625 113 118.997070312 c 0
 102.333007812 139.6640625 94.666015625 161.997070312 89.9990234375 185.997070312 c 0
 84.666015625 209.997070312 81.9990234375 235.6640625 81.9990234375 262.997070312 c 0
 81.9990234375 290.330078125 84.666015625 315.663085938 89.9990234375 338.99609375 c 0
 94.666015625 362.99609375 102.333007812 385.663085938 113 406.99609375 c 0
 123 427.663085938 135.666992188 445.99609375 151 461.99609375 c 0
 167 477.99609375 185 491.99609375 205 503.99609375 c 0
 225 515.329101562 247.333007812 523.99609375 272 529.99609375 c 0
 297.333007812 535.99609375 324.666015625 538.99609375 353.999023438 538.99609375 c 0
 369.33203125 538.99609375 384.33203125 538.329101562 398.999023438 536.99609375 c 0
 412.999023438 535.663085938 425.999023438 532.99609375 437.999023438 528.99609375 c 0
 450.666015625 525.663085938 463.333007812 521.330078125 476 515.997070312 c 0
 489.333007812 511.330078125 502.333007812 505.663085938 515 498.99609375 c 1
 515 407.99609375 l 1
 503 417.329101562 491 425.662109375 479 432.995117188 c 0
 467 440.995117188 455 447.328125 443 451.995117188 c 0
 431.666992188 455.995117188 419.333984375 459.328125 406.000976562 461.995117188 c 0
 392.66796875 464.662109375 378.000976562 465.995117188 362.000976562 465.995117188 c 0
 340.000976562 465.995117188 320.000976562 463.662109375 302.000976562 458.995117188 c 0
 284.000976562 454.328125 268.333984375 447.328125 255.000976562 437.995117188 c 0
 241.66796875 428.662109375 230.000976562 418.329101562 220.000976562 406.99609375 c 0
 210.66796875 394.99609375 203.000976562 381.329101562 197.000976562 365.99609375 c 0
 191.000976562 350.663085938 186.66796875 334.330078125 184.000976562 316.997070312 c 0
 180.66796875 300.330078125 179.000976562 282.330078125 179.000976562 262.997070312 c 0
 179.000976562 244.997070312 180.333984375 227.330078125 183.000976562 209.997070312 c 0
 185.66796875 192.6640625 190.334960938 176.331054688 197.001953125 160.998046875 c 0
 203.001953125 145.665039062 210.668945312 131.665039062 220.001953125 118.998046875 c 0
 230.001953125 106.998046875 241.668945312 96.3310546875 255.001953125 86.998046875 c 0
 268.334960938 77.6650390625 284.001953125 70.6650390625 302.001953125 65.998046875 c 0
 320.001953125 61.3310546875 340.001953125 58.998046875 362.001953125 58.998046875 c 0
 377.334960938 58.998046875 391.66796875 60.3310546875 405.000976562 62.998046875 c 0
 418.333984375 65.6650390625 431.333984375 69.33203125 444.000976562 73.9990234375 c 0
 457.333984375 78.666015625 469.666992188 84.3330078125 481 91 c 0
 493 98.3330078125 504.333007812 107 515 117 c 1
 515 27 l 1
EndSplineSet
EndChar

StartChar: d
Encoding: 100 100 71
Width: 614
GlyphClass: 1
Flags: W
LayerCount: 2
Fore
SplineSet
429 67 m 1
 412.333007812 40.3330078125 391.666015625 20.33203125 366.999023438 6.9990234375 c 0
 341.666015625 -6.333984375 311.999023438 -13.0009765625 277.999023438 -13.0009765625 c 0
 257.33203125 -13.0009765625 238.33203125 -11.0009765625 220.999023438 -7.0009765625 c 0
 203.666015625 -3.0009765625 187.999023438 2.9990234375 173.999023438 10.9990234375 c 0
 159.999023438 19.666015625 147.666015625 28.9990234375 136.999023438 38.9990234375 c 0
 125.666015625 49.666015625 115.999023438 61.9990234375 107.999023438 75.9990234375 c 0
 99.33203125 89.9990234375 92.33203125 104.33203125 86.9990234375 118.999023438 c 0
 80.9990234375 134.33203125 76.33203125 150.33203125 72.9990234375 166.999023438 c 0
 68.9990234375 182.999023438 65.9990234375 199.33203125 63.9990234375 215.999023438 c 0
 61.9990234375 232.666015625 60.9990234375 249.333007812 60.9990234375 266 c 0
 60.9990234375 308 65.9990234375 345.666992188 75.9990234375 379 c 0
 85.9990234375 412.333007812 100.666015625 441.333007812 119.999023438 466 c 0
 139.33203125 490.666992188 162.33203125 509 188.999023438 521 c 0
 215.666015625 533 245.666015625 539 278.999023438 539 c 0
 294.999023438 539 310.33203125 537.333007812 324.999023438 534 c 0
 339.666015625 530.666992188 353.666015625 525.666992188 366.999023438 519 c 0
 379.666015625 512.333007812 391.333007812 504 402 494 c 0
 412.666992188 484 421.666992188 472.333007812 429 459 c 1
 429 757 l 1
 521 757 l 1
 521 0 l 1
 438 0 l 1
 437.333007812 8 436 19 434 33 c 0
 432 47 430.333007812 58.3330078125 429 67 c 1
223 78.9990234375 m 0
 231.666992188 72.33203125 241.998046875 67.33203125 253.998046875 63.9990234375 c 0
 265.998046875 60.666015625 279.331054688 58.9990234375 293.998046875 58.9990234375 c 0
 307.998046875 58.9990234375 320.998046875 60.666015625 332.998046875 63.9990234375 c 0
 344.331054688 67.33203125 354.6640625 72.33203125 363.997070312 78.9990234375 c 0
 372.6640625 85.666015625 380.331054688 92.9990234375 386.998046875 100.999023438 c 0
 394.331054688 109.666015625 399.998046875 118.999023438 403.998046875 128.999023438 c 0
 408.665039062 138.999023438 412.998046875 149.666015625 416.998046875 160.999023438 c 0
 420.331054688 172.33203125 422.6640625 183.999023438 423.997070312 195.999023438 c 2
 427.997070312 229.999023438 l 2
 428.6640625 241.33203125 428.997070312 252.33203125 428.997070312 262.999023438 c 0
 428.997070312 273.666015625 428.6640625 284.666015625 427.997070312 295.999023438 c 0
 426.6640625 307.33203125 425.331054688 318.999023438 423.998046875 330.999023438 c 0
 422.665039062 342.33203125 420.33203125 353.665039062 416.999023438 364.998046875 c 0
 412.999023438 375.665039062 408.666015625 385.998046875 403.999023438 395.998046875 c 0
 399.999023438 406.665039062 394.33203125 415.998046875 386.999023438 423.998046875 c 0
 380.33203125 431.998046875 372.665039062 439.331054688 363.998046875 445.998046875 c 0
 354.665039062 452.665039062 344.33203125 457.665039062 332.999023438 460.998046875 c 0
 320.999023438 464.331054688 307.999023438 465.998046875 293.999023438 465.998046875 c 0
 279.33203125 465.998046875 265.999023438 464.331054688 253.999023438 460.998046875 c 0
 241.999023438 457.665039062 231.666015625 452.665039062 222.999023438 445.998046875 c 0
 214.33203125 439.331054688 206.665039062 431.998046875 199.998046875 423.998046875 c 0
 192.665039062 415.998046875 186.665039062 406.665039062 181.998046875 395.998046875 c 0
 177.331054688 385.998046875 173.6640625 375.665039062 170.997070312 364.998046875 c 0
 167.6640625 353.665039062 165.331054688 342.33203125 163.998046875 330.999023438 c 0
 162.665039062 318.999023438 161.33203125 307.33203125 159.999023438 295.999023438 c 0
 159.33203125 284.666015625 158.999023438 273.666015625 158.999023438 262.999023438 c 0
 158.999023438 252.33203125 159.33203125 241.33203125 159.999023438 229.999023438 c 2
 163.999023438 195.999023438 l 2
 165.33203125 183.999023438 167.665039062 172.33203125 170.998046875 160.999023438 c 0
 173.665039062 149.666015625 177.33203125 138.999023438 181.999023438 128.999023438 c 0
 186.666015625 118.999023438 192.666015625 109.666015625 199.999023438 100.999023438 c 0
 206.666015625 92.9990234375 214.333007812 85.666015625 223 78.9990234375 c 0
EndSplineSet
EndChar

StartChar: e
Encoding: 101 101 72
Width: 614
GlyphClass: 1
Flags: W
LayerCount: 2
Fore
SplineSet
438 -3 m 0
 422 -6.3330078125 405.666015625 -9.0009765625 388.999023438 -11.0009765625 c 0
 372.33203125 -12.333984375 355.665039062 -13.0009765625 338.998046875 -13.0009765625 c 0
 295.665039062 -13.0009765625 257.33203125 -7.0009765625 223.999023438 4.9990234375 c 0
 189.999023438 16.9990234375 160.666015625 34.9990234375 135.999023438 58.9990234375 c 0
 111.33203125 83.666015625 92.9990234375 112.666015625 80.9990234375 145.999023438 c 0
 68.33203125 179.33203125 61.9990234375 216.999023438 61.9990234375 258.999023438 c 0
 61.9990234375 284.999023438 64.666015625 309.999023438 69.9990234375 333.999023438 c 0
 74.666015625 357.999023438 81.666015625 380.33203125 90.9990234375 400.999023438 c 0
 100.999023438 422.33203125 113.33203125 441.33203125 127.999023438 457.999023438 c 0
 142.666015625 474.666015625 159.333007812 489.333007812 178 502 c 0
 197.333007812 514 219 523 243 529 c 0
 266.333007812 535.666992188 292.333007812 539 321 539 c 0
 358.333007812 539 391.333007812 533.333007812 420 522 c 0
 449.333007812 511.333007812 474.333007812 494.666015625 495 471.999023438 c 0
 515 449.33203125 530.333007812 422.33203125 541 390.999023438 c 0
 551 360.33203125 556 324.999023438 556 284.999023438 c 2
 556 242.999023438 l 1
 158 242.999023438 l 1
 158 239.999023438 l 2
 158 211.999023438 161.666992188 187.33203125 169 165.999023438 c 0
 177 143.999023438 188.666992188 124.999023438 204 108.999023438 c 0
 219.333007812 92.33203125 238.333007812 79.9990234375 261 71.9990234375 c 0
 283.666992188 63.33203125 310 58.9990234375 340 58.9990234375 c 0
 357.333007812 58.9990234375 374.333007812 60.33203125 391 62.9990234375 c 0
 407.666992188 65.666015625 424 69.666015625 440 74.9990234375 c 0
 456.666992188 79.666015625 472.666992188 85.3330078125 488 92 c 0
 503.333007812 98.6669921875 519 105.666992188 535 113 c 1
 535 27 l 1
 519 20.3330078125 503 14.666015625 487 9.9990234375 c 0
 471 4.666015625 454.666992188 0.3330078125 438 -3 c 0
161.999023438 309.999023438 m 1
 464.998046875 309.999023438 l 1
 464.998046875 324.666015625 463.665039062 338.666015625 460.998046875 351.999023438 c 0
 458.331054688 364.666015625 454.998046875 376.999023438 450.998046875 388.999023438 c 0
 446.331054688 400.999023438 439.998046875 411.666015625 431.998046875 420.999023438 c 0
 424.665039062 430.33203125 415.998046875 438.33203125 405.998046875 444.999023438 c 0
 395.331054688 451.666015625 383.331054688 456.999023438 369.998046875 460.999023438 c 0
 356.665039062 464.33203125 341.665039062 465.999023438 324.998046875 465.999023438 c 0
 307.665039062 465.999023438 291.998046875 464.33203125 277.998046875 460.999023438 c 0
 263.998046875 456.999023438 251.331054688 451.33203125 239.998046875 443.999023438 c 0
 228.665039062 437.33203125 218.33203125 429.33203125 208.999023438 419.999023438 c 0
 199.666015625 411.33203125 191.666015625 400.999023438 184.999023438 388.999023438 c 0
 178.999023438 376.999023438 173.999023438 364.666015625 169.999023438 351.999023438 c 0
 165.999023438 338.666015625 163.33203125 324.666015625 161.999023438 309.999023438 c 1
EndSplineSet
EndChar

StartChar: f
Encoding: 102 102 73
Width: 614
GlyphClass: 1
Flags: W
LayerCount: 2
Fore
SplineSet
231 0 m 1
 231 399.000976562 l 1
 66 399.000976562 l 1
 66 477.000976562 l 1
 231 477.000976562 l 1
 231 548.000976562 l 2
 231 576.66796875 234.666992188 605.000976562 242 633.000976562 c 0
 249.333007812 661.000976562 260 681.66796875 274 695.000976562 c 0
 288.666992188 709.000976562 306.666992188 719.333984375 328 726.000976562 c 0
 350 732.66796875 376 736.000976562 406 736.000976562 c 2
 552 736.000976562 l 1
 552 663.000976562 l 1
 412 663.000976562 l 2
 395.333007812 663.000976562 381.333007812 661.333984375 370 658.000976562 c 0
 358.666992188 655.333984375 349.666992188 650.666992188 343 644 c 0
 336.333007812 638 331.333007812 629.666992188 328 619 c 0
 325.333007812 608.333007812 324 595 324 579 c 2
 324 477 l 1
 493 477 l 1
 493 399 l 1
 324 399 l 1
 324 0 l 1
 231 0 l 1
EndSplineSet
EndChar

StartChar: g
Encoding: 103 103 74
Width: 614
GlyphClass: 1
Flags: W
LayerCount: 2
Fore
SplineSet
478 -187 m 0
 461.333007812 -205 443.001953125 -220.333007812 423.001953125 -233 c 0
 403.001953125 -245 378.001953125 -251 348.001953125 -251 c 0
 322.001953125 -251 287.668945312 -251.333007812 245.001953125 -252 c 0
 203.001953125 -252.666992188 163.334960938 -253 126.001953125 -253 c 1
 126.001953125 -175 l 1
 228.001953125 -175 l 2
 263.334960938 -174.333007812 293.001953125 -173.666015625 317.001953125 -172.999023438 c 0
 361.001953125 -171.666015625 394.334960938 -155.666015625 417.001953125 -124.999023438 c 0
 439.001953125 -94.33203125 450.334960938 -58.9990234375 451.001953125 -18.9990234375 c 2
 451.001953125 22.0009765625 l 1
 451.001953125 58.0009765625 l 1
 439.668945312 44.66796875 428.001953125 33.66796875 416.001953125 25.0009765625 c 0
 404.001953125 17.0009765625 392.001953125 11.0009765625 380.001953125 7.0009765625 c 0
 367.334960938 3.66796875 354.001953125 1.0009765625 340.001953125 -0.9990234375 c 0
 325.334960938 -2.9990234375 309.334960938 -3.9990234375 292.001953125 -3.9990234375 c 0
 272.001953125 -3.9990234375 253.668945312 -1.9990234375 237.001953125 2.0009765625 c 0
 219.668945312 6.0009765625 204.001953125 12.0009765625 190.001953125 20.0009765625 c 0
 176.668945312 28.66796875 164.3359375 38.0009765625 153.002929688 48.0009765625 c 0
 142.3359375 58.66796875 132.668945312 70.66796875 124.001953125 84.0009765625 c 0
 116.001953125 97.333984375 108.668945312 111.333984375 102.001953125 126.000976562 c 0
 95.3349609375 140.66796875 90.3349609375 156.000976562 87.001953125 172.000976562 c 0
 83.6689453125 188.000976562 81.001953125 204.000976562 79.001953125 220.000976562 c 0
 77.001953125 236.000976562 76.001953125 252.000976562 76.001953125 268.000976562 c 0
 76.001953125 284.000976562 77.001953125 300.000976562 79.001953125 316.000976562 c 0
 81.001953125 332.000976562 83.6689453125 348.000976562 87.001953125 364.000976562 c 0
 90.3349609375 379.333984375 95.3349609375 394.333984375 102.001953125 409.000976562 c 0
 108.001953125 424.333984375 115.334960938 438.666992188 124.001953125 452 c 0
 132.668945312 465.333007812 142.668945312 477 154.001953125 487 c 0
 165.334960938 497.666992188 177.66796875 507 191.000976562 515 c 0
 205.000976562 523 220.66796875 529 238.000976562 533 c 0
 254.66796875 537 273.000976562 539 293.000976562 539 c 0
 309.66796875 539 325.66796875 537.666992188 341.000976562 535 c 0
 355.66796875 532.333007812 370.000976562 528 384.000976562 522 c 0
 398.000976562 516.666992188 410.66796875 509.666992188 422.000976562 501 c 0
 433.333984375 493 443.666992188 483.333007812 453 472 c 1
 453 480.666992188 452.666992188 490 452 500 c 2
 452 524 l 1
 535 524 l 1
 534.333007812 501.333007812 534 475 534 445 c 2
 534 350 l 2
 533.333007812 288 533 224.666992188 533 160 c 0
 533 96 532.666992188 42.6669921875 532 -0 c 0
 532 -32.6669921875 529.333007812 -65.6669921875 524 -99 c 0
 518 -131.666992188 502.666992188 -161 478 -187 c 0
206.001953125 120 m 0
 218.668945312 102.666992188 233.668945312 89.66796875 251.001953125 81.0009765625 c 0
 268.334960938 73.0009765625 288.001953125 69.0009765625 310.001953125 69.0009765625 c 0
 332.001953125 69.0009765625 351.334960938 73.333984375 368.001953125 82.0009765625 c 0
 384.668945312 90.0009765625 398.668945312 102.66796875 410.001953125 120.000976562 c 0
 420.668945312 136.66796875 429.001953125 157.334960938 435.001953125 182.001953125 c 0
 440.334960938 206.668945312 443.001953125 235.3359375 443.001953125 268.002929688 c 0
 443.001953125 278.669921875 442.668945312 289.669921875 442.001953125 301.002929688 c 0
 441.334960938 311.669921875 440.001953125 322.669921875 438.001953125 334.002929688 c 0
 436.668945312 345.3359375 434.3359375 356.3359375 431.002929688 367.002929688 c 0
 427.669921875 378.3359375 423.669921875 388.668945312 419.002929688 398.001953125 c 0
 414.3359375 408.668945312 408.668945312 417.668945312 402.001953125 425.001953125 c 0
 395.334960938 433.001953125 387.66796875 440.001953125 379.000976562 446.001953125 c 0
 370.333984375 452.668945312 360.000976562 457.668945312 348.000976562 461.001953125 c 0
 336.66796875 464.334960938 323.66796875 466.001953125 309.000976562 466.001953125 c 0
 287.000976562 466.001953125 267.333984375 461.668945312 250.000976562 453.001953125 c 0
 232.66796875 444.334960938 218.000976562 432.001953125 206.000976562 416.001953125 c 0
 193.333984375 399.334960938 184.000976562 378.66796875 178.000976562 354.000976562 c 0
 171.333984375 330.000976562 168.000976562 301.66796875 168.000976562 269.000976562 c 0
 168.000976562 236.333984375 171.000976562 207.666992188 177.000976562 183 c 0
 183.66796875 158.333007812 193.334960938 137.333007812 206.001953125 120 c 0
EndSplineSet
EndChar

StartChar: h
Encoding: 104 104 75
Width: 614
GlyphClass: 1
Flags: W
LayerCount: 2
Fore
SplineSet
97 0 m 1
 97 757.000976562 l 1
 189 757.000976562 l 1
 189 463.000976562 l 1
 207 491.66796875 229.333007812 512.334960938 256 525.001953125 c 0
 281.333007812 537.001953125 311 543.001953125 345 543.001953125 c 2
 355 543.001953125 l 2
 378.333007812 543.001953125 398.666015625 540.334960938 415.999023438 535.001953125 c 0
 433.33203125 529.668945312 448.33203125 521.668945312 460.999023438 511.001953125 c 0
 472.999023438 500.334960938 483.33203125 488.334960938 491.999023438 475.001953125 c 0
 500.666015625 461.668945312 507.333007812 446.668945312 512 430.001953125 c 0
 516.666992188 414.001953125 520 397.334960938 522 380.001953125 c 0
 524 362.668945312 525 345.001953125 525 327.001953125 c 2
 525 0.001953125 l 1
 433 0.001953125 l 1
 433 327.001953125 l 2
 433 350.334960938 431 370.66796875 427 388.000976562 c 0
 423 404.66796875 417 418.66796875 409 430.000976562 c 0
 400.333007812 441.333984375 389.333007812 449.666992188 376 455 c 0
 362.666992188 461 347 464 329 464 c 0
 311.666992188 464 296 462 282 458 c 0
 268.666992188 454 256.666992188 447.666992188 246 439 c 0
 235.333007812 431 226.333007812 422 219 412 c 0
 211.666992188 402 206 390.666992188 202 378 c 0
 198 365.333007812 195 352.333007812 193 339 c 0
 190.333007812 325.666992188 189 312 189 298 c 2
 189 0 l 1
 97 0 l 1
EndSplineSet
EndChar

StartChar: i
Encoding: 105 105 76
Width: 614
GlyphClass: 1
Flags: W
LayerCount: 2
Fore
SplineSet
369 622 m 2
 298 622 l 2
 292.666992188 622 288.666992188 623 286 625 c 0
 283.333007812 627.666992188 282 631.333984375 282 636.000976562 c 2
 282 717.000976562 l 2
 282 721.66796875 283.333007812 725.000976562 286 727.000976562 c 0
 288.666992188 729.66796875 292.666992188 731.000976562 298 731.000976562 c 2
 369 731.000976562 l 2
 374.333007812 731.000976562 378 729.66796875 380 727.000976562 c 0
 382.666992188 725.000976562 384 721.66796875 384 717.000976562 c 2
 384 636.000976562 l 2
 384 631.333984375 382.666992188 627.666992188 380 625 c 0
 378 623 374.333007812 622 369 622 c 2
384 0 m 1
 292 0.0009765625 l 1
 292 77.0009765625 l 1
 292 114.000976562 l 2
 292.666992188 132.66796875 293 157.000976562 293 187.000976562 c 2
 293 449.000976562 l 1
 166 449.000976562 l 1
 166 526.000976562 l 1
 384 526.000976562 l 1
 384 462.000976562 l 2
 384 451.333984375 383.666992188 440.333984375 383 429.000976562 c 2
 383 390.000976562 l 1
 383 318.000976562 l 1
 383 274.000976562 l 1
 383 248.000976562 l 2
 383.666992188 240.66796875 384 225.000976562 384 201.000976562 c 2
 384 174.000976562 l 2
 384.666992188 163.333984375 385 151.000976562 385 137.000976562 c 2
 385 119.000976562 l 1
 385 74.0009765625 l 2
 385 63.333984375 384.666992188 51.6669921875 384 39 c 2
 384 0 l 1
EndSplineSet
EndChar

StartChar: j
Encoding: 106 106 77
Width: 614
GlyphClass: 1
Flags: W
LayerCount: 2
Fore
SplineSet
422 622 m 2
 349 622 l 2
 343.666992188 622 340 623 338 625 c 0
 336 627.666992188 335 631.333984375 335 636.000976562 c 2
 335 717.000976562 l 2
 335 721.66796875 336 725.000976562 338 727.000976562 c 0
 340 729.66796875 343.666992188 731.000976562 349 731.000976562 c 2
 422 731.000976562 l 2
 427.333007812 731.000976562 431 729.66796875 433 727.000976562 c 0
 435 725.000976562 436 721.66796875 436 717.000976562 c 2
 436 636.000976562 l 2
 436 631.333984375 435 627.666992188 433 625 c 0
 431 623 427.333007812 622 422 622 c 2
118 -252 m 1
 117.997070312 -172 l 1
 260.997070312 -172 l 2
 291.6640625 -172 314.331054688 -158.666992188 328.998046875 -132 c 0
 343.665039062 -105.333007812 350.998046875 -72.666015625 350.998046875 -33.9990234375 c 2
 350.998046875 449.000976562 l 1
 206.998046875 449.000976562 l 1
 206.998046875 526.000976562 l 1
 442.998046875 526.000976562 l 1
 442.998046875 -33.9990234375 l 2
 442.998046875 -64.666015625 439.331054688 -95.9990234375 431.998046875 -127.999023438 c 0
 424.665039062 -159.999023438 413.33203125 -184.33203125 397.999023438 -200.999023438 c 0
 383.33203125 -217.666015625 365.33203125 -230.333007812 343.999023438 -239 c 0
 322.666015625 -247.666992188 298.333007812 -252 271 -252 c 2
 118 -252 l 1
EndSplineSet
EndChar

StartChar: k
Encoding: 107 107 78
Width: 614
GlyphClass: 1
Flags: W
LayerCount: 2
Fore
SplineSet
113 0 m 1
 113 730.00390625 l 1
 208 730.00390625 l 1
 208 308.00390625 l 1
 227.333007812 326.00390625 252 348.336914062 282 375.00390625 c 0
 311.333007812 401.670898438 340.333007812 428.00390625 369 454.00390625 c 0
 384.333007812 468.00390625 399 481.00390625 413 493.00390625 c 0
 427 505.670898438 439.333007812 516.670898438 450 526.00390625 c 1
 561 526.00390625 l 1
 543 510.00390625 520.666992188 490.00390625 494 466.00390625 c 0
 466.666992188 441.336914062 440 417.336914062 414 394.00390625 c 0
 400 381.336914062 386.666992188 369.336914062 374 358.00390625 c 0
 361.333007812 346.670898438 350.333007812 336.670898438 341 328.00390625 c 1
 361.666992188 301.336914062 387.666992188 268.00390625 419 228.00390625 c 0
 450.333007812 187.336914062 481 147.669921875 511 109.002929688 c 0
 527 88.3359375 542.333007812 68.6689453125 557 50.001953125 c 0
 571.666992188 31.3349609375 584.666992188 14.66796875 596 0.0009765625 c 1
 483 0.0009765625 l 1
 466.333007812 22.0009765625 445.333007812 49.66796875 420 83.0009765625 c 0
 394.666992188 116.333984375 369.666992188 149.000976562 345 181.000976562 c 0
 332.333007812 198.333984375 320 214.666992188 308 230 c 0
 296 246 285.333007812 259.666992188 276 271 c 1
 267.333007812 263.666992188 256 253.666992188 242 241 c 0
 228 228.333007812 216.666992188 218.333007812 208 211 c 1
 208 0 l 1
 113 0 l 1
EndSplineSet
EndChar

StartChar: l
Encoding: 108 108 79
Width: 614
GlyphClass: 1
Flags: W
LayerCount: 2
Fore
SplineSet
322 0 m 1
 281 0 l 1
 281 207 l 1
 281 385 l 1
 281 462 l 1
 281 521 l 2
 281 547.666992188 280.666992188 582 280 624 c 1
 141 624 l 1
 141 702 l 1
 375 702 l 1
 375 677.333007812 374.666992188 645.333007812 374 606 c 0
 373.333007812 566 373 534 373 510 c 2
 373 433 l 1
 373 366 l 1
 373 280 l 1
 373 135 l 1
 373 0 l 1
 322 0 l 1
EndSplineSet
EndChar

StartChar: m
Encoding: 109 109 80
Width: 614
GlyphClass: 1
Flags: W
LayerCount: 2
Fore
SplineSet
41 0 m 1
 41.0029296875 525.999023438 l 1
 118.002929688 525.999023438 l 1
 118.002929688 520.666015625 117.669921875 512.999023438 117.002929688 502.999023438 c 2
 117.002929688 479.999023438 l 1
 128.3359375 499.33203125 144.002929688 513.999023438 164.002929688 523.999023438 c 0
 184.669921875 533.33203125 209.669921875 538.33203125 239.002929688 538.999023438 c 0
 259.002929688 538.999023438 276.3359375 533.33203125 291.002929688 521.999023438 c 0
 305.669921875 511.33203125 317.669921875 494.999023438 327.002929688 472.999023438 c 1
 342.3359375 494.999023438 361.002929688 511.33203125 383.002929688 521.999023438 c 0
 404.3359375 533.33203125 429.3359375 538.999023438 458.002929688 538.999023438 c 0
 480.669921875 538.999023438 499.669921875 534.999023438 515.002929688 526.999023438 c 0
 531.002929688 518.999023438 543.669921875 507.33203125 553.002929688 491.999023438 c 0
 562.3359375 475.33203125 569.3359375 451.33203125 574.002929688 419.999023438 c 0
 578.669921875 389.33203125 581.002929688 350.999023438 581.002929688 304.999023438 c 2
 581.002929688 -0.0009765625 l 1
 497.002929688 -0.0009765625 l 1
 497.002929688 300.999023438 l 2
 497.002929688 320.999023438 496.3359375 338.666015625 495.002929688 353.999023438 c 0
 494.3359375 369.33203125 493.668945312 382.33203125 493.001953125 392.999023438 c 0
 491.668945312 403.666015625 490.3359375 413.333007812 489.002929688 422 c 0
 487.002929688 430 484.669921875 436.333007812 482.002929688 441 c 0
 478.002929688 449.666992188 472.002929688 456.333984375 464.002929688 461.000976562 c 0
 455.3359375 465.000976562 444.3359375 467.000976562 431.002929688 467.000976562 c 0
 418.3359375 467.000976562 406.668945312 464.66796875 396.001953125 460.000976562 c 0
 385.334960938 454.66796875 376.001953125 447.334960938 368.001953125 438.001953125 c 0
 364.668945312 432.668945312 362.001953125 426.001953125 360.001953125 418.001953125 c 0
 358.668945312 410.001953125 357.3359375 400.668945312 356.002929688 390.001953125 c 0
 355.3359375 379.334960938 354.668945312 366.66796875 354.001953125 352.000976562 c 0
 352.668945312 337.333984375 352.001953125 320.333984375 352.001953125 301.000976562 c 2
 352.001953125 0.0009765625 l 1
 268.001953125 0.0009765625 l 1
 268.001953125 301.000976562 l 1
 268.001953125 352.000976562 l 2
 267.334960938 366.66796875 266.334960938 379.66796875 265.001953125 391.000976562 c 0
 264.334960938 402.333984375 263.001953125 412.000976562 261.001953125 420.000976562 c 0
 259.001953125 428.66796875 256.668945312 435.334960938 254.001953125 440.001953125 c 0
 249.334960938 448.668945312 243.001953125 455.3359375 235.001953125 460.002929688 c 0
 226.334960938 464.669921875 216.001953125 467.002929688 204.001953125 467.002929688 c 0
 187.334960938 467.002929688 173.66796875 464.669921875 163.000976562 460.002929688 c 0
 152.333984375 455.3359375 144.666992188 448.3359375 140 439.002929688 c 0
 137.333007812 434.3359375 135.333007812 427.668945312 134 419.001953125 c 0
 132 410.334960938 130.333007812 400.66796875 129 390.000976562 c 0
 127.666992188 379.333984375 126.666992188 366.666992188 126 352 c 0
 125.333007812 336.666992188 125 319.666992188 125 301 c 2
 125 0 l 1
 41 0 l 1
EndSplineSet
EndChar

StartChar: n
Encoding: 110 110 81
Width: 614
GlyphClass: 1
Flags: W
LayerCount: 2
Fore
SplineSet
97 0 m 1
 97 526.002929688 l 1
 180 526.002929688 l 1
 181.333007812 516.669921875 183 503.669921875 185 487.002929688 c 0
 187 470.3359375 188.333007812 457.002929688 189 447.002929688 c 1
 206.333007812 478.3359375 228.666015625 501.3359375 255.999023438 516.002929688 c 0
 283.33203125 531.3359375 315.999023438 539.002929688 353.999023438 539.002929688 c 0
 411.33203125 539.002929688 454.33203125 521.3359375 482.999023438 486.002929688 c 0
 510.999023438 450.669921875 524.999023438 397.669921875 524.999023438 327.002929688 c 2
 524.999023438 0.0029296875 l 1
 432.999023438 0.0029296875 l 1
 432.999023438 327.002929688 l 2
 432.999023438 350.3359375 430.666015625 370.668945312 425.999023438 388.001953125 c 0
 421.999023438 404.668945312 415.666015625 418.668945312 406.999023438 430.001953125 c 0
 397.666015625 441.334960938 386.333007812 449.66796875 373 455.000976562 c 0
 359.666992188 461.000976562 344 464.000976562 326 464.000976562 c 0
 304 464.000976562 284.333007812 460.333984375 267 453.000976562 c 0
 250.333007812 445.66796875 236 435.000976562 224 421.000976562 c 0
 212.666992188 406.333984375 204 389.000976562 198 369.000976562 c 0
 192 348.333984375 189 324.666992188 189 298 c 2
 189 0 l 1
 97 0 l 1
EndSplineSet
EndChar

StartChar: o
Encoding: 111 111 82
Width: 614
GlyphClass: 1
Flags: W
LayerCount: 2
Fore
SplineSet
486 57 m 0
 466 33.6669921875 441.333007812 16 412 4 c 0
 382.666992188 -7.3330078125 348.333984375 -13 309.000976562 -13 c 0
 270.333984375 -13 236.000976562 -7.3330078125 206.000976562 4 c 0
 176.000976562 16 150.66796875 33.6669921875 130.000976562 57 c 0
 109.333984375 81 94.0009765625 110 84.0009765625 144 c 0
 74.0009765625 178 69.0009765625 217.333007812 69.0009765625 262 c 0
 69.0009765625 306.666992188 74.0009765625 346 84.0009765625 380 c 0
 94.0009765625 414.666992188 109.333984375 444 130.000976562 468 c 0
 150.66796875 492 175.66796875 509.666992188 205.000976562 521 c 0
 235.000976562 533 269.333984375 539 308.000976562 539 c 0
 347.333984375 539 381.666992188 533 411 521 c 0
 441 509 466 491.333007812 486 468 c 0
 506.666992188 444.666992188 522 415.666992188 532 381 c 0
 542.666992188 347 548 307.333007812 548 262 c 0
 548 217.333007812 542.666992188 178 532 144 c 0
 522 110 506.666992188 81 486 57 c 0
203 113 m 0
 215 95.6669921875 229.666992188 82.333984375 247 73.0009765625 c 0
 265 63.66796875 285.333007812 59.0009765625 308 59.0009765625 c 0
 331.333007812 59.0009765625 351.666015625 63.66796875 368.999023438 73.0009765625 c 0
 386.33203125 82.333984375 401.33203125 95.6669921875 413.999023438 113 c 0
 425.999023438 130.333007812 434.999023438 151.333007812 440.999023438 176 c 0
 447.666015625 201.333007812 450.999023438 230.333007812 450.999023438 263 c 0
 450.999023438 295.666992188 447.666015625 324.666992188 440.999023438 350 c 0
 434.999023438 375.333007812 425.999023438 396.666015625 413.999023438 413.999023438 c 0
 401.33203125 431.33203125 386.33203125 444.33203125 368.999023438 452.999023438 c 0
 351.666015625 461.666015625 331.333007812 465.999023438 308 465.999023438 c 0
 285.333007812 465.999023438 265 461.666015625 247 452.999023438 c 0
 229.666992188 444.33203125 215 431.33203125 203 413.999023438 c 0
 190.333007812 396.666015625 181 375.333007812 175 350 c 0
 169 324.666992188 166 295.666992188 166 263 c 0
 166 230.333007812 169 201.333007812 175 176 c 0
 181 151.333007812 190.333007812 130.333007812 203 113 c 0
EndSplineSet
EndChar

StartChar: p
Encoding: 112 112 83
Width: 614
GlyphClass: 1
Flags: W
LayerCount: 2
Fore
SplineSet
95 -253 m 1
 94.998046875 526 l 1
 177.998046875 526 l 1
 179.331054688 518 180.998046875 507 182.998046875 493 c 0
 184.998046875 478.333007812 186.331054688 467 186.998046875 459 c 1
 202.998046875 485.666992188 223.665039062 505.666992188 248.998046875 519 c 0
 273.665039062 532.333007812 303.33203125 539 337.999023438 539 c 0
 371.33203125 539 401.33203125 532.666992188 427.999023438 520 c 0
 453.999023438 508 476.999023438 489.666992188 496.999023438 465 c 0
 516.33203125 440.333007812 530.665039062 411 539.998046875 377 c 0
 549.331054688 343.666992188 553.998046875 305.666992188 553.998046875 263 c 0
 553.998046875 220.333007812 548.998046875 182 538.998046875 148 c 0
 529.665039062 114 515.33203125 84.6669921875 495.999023438 60 c 0
 475.999023438 36 452.999023438 17.6669921875 426.999023438 5 c 0
 400.999023438 -7 371.33203125 -13 337.999023438 -13 c 0
 303.33203125 -13 273.33203125 -6.3330078125 247.999023438 7 c 0
 222.666015625 20.3330078125 202.333007812 40.3330078125 187 67 c 1
 187 -253 l 1
 95 -253 l 1
234.998046875 113 m 0
 246.998046875 95.6669921875 261.665039062 82.3330078125 278.998046875 73 c 0
 295.665039062 63.6669921875 315.33203125 59 337.999023438 59 c 0
 381.999023438 59 414.999023438 76.3330078125 436.999023438 111 c 0
 458.999023438 145 469.999023438 195.666992188 469.999023438 263 c 0
 469.999023438 331 458.999023438 381.666992188 436.999023438 415 c 0
 414.999023438 449 381.999023438 466 337.999023438 466 c 0
 315.33203125 466 295.665039062 461.333007812 278.998046875 452 c 0
 261.665039062 443.333007812 246.998046875 430.333007812 234.998046875 413 c 0
 223.665039062 395.666992188 214.998046875 374.333984375 208.998046875 349.000976562 c 0
 202.998046875 324.333984375 199.998046875 295.666992188 199.998046875 263 c 0
 199.998046875 230.333007812 202.998046875 201.333007812 208.998046875 176 c 0
 214.998046875 151.333007812 223.665039062 130.333007812 234.998046875 113 c 0
EndSplineSet
EndChar

StartChar: q
Encoding: 113 113 84
Width: 614
GlyphClass: 1
Flags: W
LayerCount: 2
Fore
SplineSet
435 -252 m 1
 434.998046875 66 l 1
 418.998046875 38.6669921875 398.665039062 18.333984375 373.998046875 5.0009765625 c 0
 348.665039062 -8.33203125 318.33203125 -14.9990234375 282.999023438 -14.9990234375 c 0
 262.999023438 -14.9990234375 244.33203125 -13.33203125 226.999023438 -9.9990234375 c 0
 210.33203125 -5.9990234375 194.999023438 0.0009765625 180.999023438 8.0009765625 c 0
 167.666015625 16.0009765625 155.333007812 25.66796875 144 37.0009765625 c 0
 133.333007812 47.66796875 124 59.66796875 116 73.0009765625 c 0
 107.333007812 86.333984375 100 100.333984375 94 115.000976562 c 0
 88 129.66796875 83.3330078125 145.000976562 80 161.000976562 c 0
 76 177.000976562 73.3330078125 193.000976562 72 209.000976562 c 0
 70 225.000976562 69 241.333984375 69 258.000976562 c 0
 69 301.333984375 73.6669921875 339.666992188 83 373 c 0
 93 407 107.666992188 436.666992188 127 462 c 0
 146.333007812 486.666992188 169.333007812 505.666992188 196 519 c 0
 222.666992188 531.666992188 252.666992188 538 286 538 c 0
 320 538 349.333007812 531.333007812 374 518 c 0
 398.666992188 504.666992188 419 484.666992188 435 458 c 1
 437 469.333007812 438.666992188 481 440 493 c 0
 442 505.666992188 443.333007812 516 444 524 c 1
 527 524 l 1
 527 -252 l 1
 435 -252 l 1
189.998046875 111 m 0
 201.331054688 93 215.331054688 79.666015625 231.998046875 70.9990234375 c 0
 248.665039062 61.666015625 267.665039062 56.9990234375 288.998046875 56.9990234375 c 0
 310.331054688 56.9990234375 329.331054688 61.666015625 345.998046875 70.9990234375 c 0
 363.331054688 79.666015625 377.6640625 92.9990234375 388.997070312 110.999023438 c 0
 400.997070312 128.33203125 409.6640625 149.33203125 414.997070312 173.999023438 c 0
 420.997070312 199.33203125 423.997070312 228.33203125 423.997070312 260.999023438 c 0
 423.997070312 293.666015625 420.997070312 322.666015625 414.997070312 347.999023438 c 0
 409.6640625 373.33203125 400.997070312 394.665039062 388.997070312 411.998046875 c 0
 377.6640625 429.331054688 363.331054688 442.331054688 345.998046875 450.998046875 c 0
 329.331054688 459.665039062 310.331054688 463.998046875 288.998046875 463.998046875 c 0
 267.665039062 463.998046875 248.665039062 459.665039062 231.998046875 450.998046875 c 0
 215.331054688 442.331054688 201.331054688 429.331054688 189.998046875 411.998046875 c 0
 177.998046875 394.665039062 168.998046875 373.33203125 162.998046875 347.999023438 c 0
 157.665039062 322.666015625 154.998046875 293.666015625 154.998046875 260.999023438 c 0
 154.998046875 228.999023438 157.665039062 200.33203125 162.998046875 174.999023438 c 0
 168.998046875 149.666015625 177.998046875 128.333007812 189.998046875 111 c 0
EndSplineSet
EndChar

StartChar: r
Encoding: 114 114 85
Width: 614
GlyphClass: 1
Flags: W
LayerCount: 2
Fore
SplineSet
129 0 m 1
 129.000976562 526.000976562 l 1
 219.000976562 526.000976562 l 1
 219.66796875 522.000976562 220.000976562 517.000976562 220.000976562 511.000976562 c 0
 220.000976562 505.000976562 219.66796875 498.000976562 219.000976562 490.000976562 c 0
 218.333984375 482.000976562 218.000976562 470.333984375 218.000976562 455.000976562 c 1
 227.333984375 469.000976562 238.000976562 481.333984375 250.000976562 492.000976562 c 0
 262.66796875 502.66796875 277.000976562 511.66796875 293.000976562 519.000976562 c 0
 308.333984375 525.66796875 325.000976562 530.66796875 343.000976562 534.000976562 c 0
 361.000976562 537.333984375 380.333984375 539.000976562 401.000976562 539.000976562 c 2
 406.000976562 539.000976562 l 2
 432.000976562 538.333984375 456.000976562 534.666992188 478.000976562 528 c 0
 500.000976562 522 519.66796875 512.333007812 537.000976562 499 c 1
 537.000976562 411 l 1
 519.000976562 426.333007812 498.333984375 438 475.000976562 446 c 0
 449.66796875 454.666992188 423.66796875 459 397.000976562 459 c 2
 358.000976562 459 l 2
 351.333984375 459 339.333984375 455.666992188 322.000976562 449 c 0
 297.333984375 439.666992188 278.666992188 428.666992188 266 416 c 0
 250.666992188 400.666992188 239 385.666992188 231 371 c 0
 223 356.333007812 219 341.333007812 219 326 c 2
 219 284 l 2
 219 264 219.333007812 241 220 215 c 2
 220 94 l 2
 220.666992188 52 221 20.6669921875 221 0 c 1
 129 0 l 1
EndSplineSet
EndChar

StartChar: s
Encoding: 115 115 86
Width: 614
GlyphClass: 1
Flags: W
LayerCount: 2
Fore
SplineSet
456 32 m 0
 436 16.6669921875 412.671875 5.3369140625 386.004882812 -1.99609375 c 0
 359.337890625 -9.3291015625 329.004882812 -12.99609375 295.004882812 -12.99609375 c 0
 268.337890625 -12.99609375 239.337890625 -10.3291015625 208.004882812 -4.99609375 c 0
 176.004882812 0.3369140625 142.004882812 8.3369140625 106.004882812 19.00390625 c 1
 106.004882812 109.00390625 l 1
 141.337890625 92.3369140625 174.670898438 79.669921875 206.00390625 71.0029296875 c 0
 237.336914062 62.3359375 266.669921875 58.0029296875 294.002929688 58.0029296875 c 0
 313.3359375 58.0029296875 330.668945312 60.0029296875 346.001953125 64.0029296875 c 0
 361.334960938 68.0029296875 375.001953125 74.0029296875 387.001953125 82.0029296875 c 0
 399.001953125 89.3359375 407.668945312 98.3359375 413.001953125 109.002929688 c 0
 419.001953125 119.002929688 422.001953125 130.3359375 422.001953125 143.002929688 c 0
 422.001953125 154.3359375 419.668945312 164.668945312 415.001953125 174.001953125 c 0
 410.334960938 183.334960938 403.001953125 191.334960938 393.001953125 198.001953125 c 0
 383.668945312 204.668945312 371.001953125 210.668945312 355.001953125 216.001953125 c 0
 339.001953125 221.334960938 320.334960938 226.001953125 299.001953125 230.001953125 c 0
 292.334960938 231.334960938 287.66796875 232.334960938 285.000976562 233.001953125 c 0
 281.66796875 233.668945312 273.66796875 235.3359375 261.000976562 238.002929688 c 0
 235.000976562 242.669921875 212.333984375 249.336914062 193.000976562 258.00390625 c 0
 173.66796875 266.670898438 157.66796875 276.670898438 145.000976562 288.00390625 c 0
 133.000976562 299.336914062 124.000976562 312.669921875 118.000976562 328.002929688 c 0
 112.000976562 344.002929688 109.000976562 362.002929688 109.000976562 382.002929688 c 0
 109.000976562 407.3359375 113.333984375 429.668945312 122.000976562 449.001953125 c 0
 131.333984375 468.334960938 145.333984375 485.001953125 164.000976562 499.001953125 c 0
 182.000976562 512.334960938 204.000976562 522.334960938 230.000976562 529.001953125 c 0
 256.000976562 535.668945312 285.66796875 539.001953125 319.000976562 539.001953125 c 0
 347.66796875 539.001953125 376.000976562 536.334960938 404.000976562 531.001953125 c 0
 432.000976562 525.668945312 459.333984375 518.001953125 486.000976562 508.001953125 c 1
 486.000976562 424.001953125 l 1
 460.000976562 438.001953125 433.333984375 448.668945312 406.000976562 456.001953125 c 0
 379.333984375 463.334960938 351.666992188 467.001953125 323 467.001953125 c 0
 282.333007812 467.001953125 252 460.334960938 232 447.001953125 c 0
 212 434.334960938 202 415.001953125 202 389.001953125 c 0
 202 380.334960938 202.666992188 372.66796875 204 366.000976562 c 0
 206 360.000976562 208.666992188 354.333984375 212 349.000976562 c 0
 215.333007812 344.333984375 220.333007812 339.666992188 227 335 c 0
 233.666992188 331 242 327.333007812 252 324 c 0
 261.333007812 320.666992188 273.666015625 317.333984375 288.999023438 314.000976562 c 0
 303.666015625 310.000976562 320.333007812 306.333984375 339 303.000976562 c 0
 355.666992188 300.333984375 368 298.333984375 376 297.000976562 c 0
 422 288.333984375 456.666992188 272.000976562 480 248.000976562 c 0
 503.333007812 224.66796875 515 193.66796875 515 155.000976562 c 0
 515 128.333984375 510 105.000976562 500 85.0009765625 c 0
 490 64.333984375 475.333007812 46.6669921875 456 32 c 0
EndSplineSet
EndChar

StartChar: t
Encoding: 116 116 87
Width: 614
GlyphClass: 1
Flags: W
LayerCount: 2
Fore
SplineSet
486 -2 m 1
 317 -2 l 2
 282.333007812 -2 253 1 229 7 c 0
 205 13.6669921875 185.666992188 23.6669921875 171 37 c 0
 157 50.3330078125 146.333007812 68.3330078125 139 91 c 0
 131.666992188 113 128 140 128 172 c 2
 128 246 l 1
 128 686 l 1
 169 686 l 1
 185 686 l 1
 220 686 l 1
 220 526 l 1
 441 526 l 1
 441 447 l 1
 220 447 l 1
 220 172 l 2
 220 152.666992188 222 136.666992188 226 124 c 0
 230 110.666992188 236 101 244 95 c 0
 251.333007812 89 262 84.3330078125 276 81 c 0
 290 78.3330078125 306.666992188 77 326 77 c 2
 486 77 l 1
 486 -2 l 1
EndSplineSet
EndChar

StartChar: u
Encoding: 117 117 88
Width: 614
GlyphClass: 1
Flags: W
LayerCount: 2
Fore
SplineSet
286 -14 m 2
 277.001953125 -13.9990234375 l 2
 274.334960938 -13.33203125 271.334960938 -12.9990234375 268.001953125 -12.9990234375 c 0
 206.668945312 -12.9990234375 160.668945312 4.66796875 130.001953125 40.0009765625 c 0
 99.3349609375 75.333984375 84.001953125 128.666992188 84.001953125 200 c 2
 84.001953125 525 l 1
 175.001953125 525 l 1
 175.001953125 200 l 2
 175.001953125 154 185.334960938 119.333007812 206.001953125 96 c 0
 227.334960938 72.6669921875 258.334960938 61 299.001953125 61 c 0
 322.334960938 63.6669921875 342.66796875 68.333984375 360.000976562 75.0009765625 c 0
 377.333984375 82.333984375 391.333984375 92.333984375 402.000976562 105.000976562 c 0
 413.333984375 118.333984375 422.000976562 133.000976562 428.000976562 149.000976562 c 0
 433.333984375 165.000976562 436.000976562 182.66796875 436.000976562 202.000976562 c 0
 436.66796875 255.333984375 437.334960938 312.666992188 438.001953125 374 c 0
 438.668945312 434.666992188 439.001953125 485 439.001953125 525 c 1
 531.001953125 525 l 1
 531.001953125 483 531.334960938 429.666992188 532.001953125 365 c 2
 532.001953125 175 l 1
 532.001953125 80 l 1
 532.001953125 0 l 1
 446.001953125 0 l 1
 446.001953125 57 l 1
 433.334960938 33 413.66796875 15 387.000976562 3 c 0
 360.333984375 -8.3330078125 326.666992188 -14 286 -14 c 2
EndSplineSet
EndChar

StartChar: v
Encoding: 118 118 89
Width: 614
GlyphClass: 1
Flags: W
LayerCount: 2
Fore
SplineSet
249 0 m 1
 232.333007812 42.6669921875 212.001953125 96.3330078125 188.001953125 161 c 0
 164.001953125 225.666992188 140.001953125 289 116.001953125 351 c 0
 103.334960938 384.333007812 91.3349609375 416 80.001953125 446 c 0
 68.6689453125 476.666992188 58.6689453125 503.333984375 50.001953125 526.000976562 c 1
 145.001953125 526.000976562 l 1
 195.001953125 391.000976562 l 2
 215.001953125 337.000976562 234.668945312 284.000976562 254.001953125 232.000976562 c 0
 264.001953125 204.000976562 273.668945312 177.333984375 283.001953125 152.000976562 c 0
 292.334960938 126.66796875 300.66796875 104.334960938 308.000976562 85.001953125 c 1
 315.333984375 104.334960938 323.666992188 126.66796875 333 152.000976562 c 0
 342.333007812 177.333984375 352 204.000976562 362 232.000976562 c 0
 381.333007812 284.000976562 401 337.000976562 421 391.000976562 c 2
 471 526.000976562 l 1
 566 526.000976562 l 1
 550 483.333984375 529.666992188 429.666992188 505 365 c 0
 481 300.333007812 457.333007812 237 434 175 c 0
 421.333007812 141.666992188 409.333007812 110 398 80 c 0
 386.666992188 50 376.666992188 23.3330078125 368 0 c 1
 249 0 l 1
EndSplineSet
EndChar

StartChar: w
Encoding: 119 119 90
Width: 614
GlyphClass: 1
Flags: W
LayerCount: 2
Fore
SplineSet
131 0 m 1
 120.333007812 42.6669921875 107.001953125 96.333984375 91.001953125 161.000976562 c 0
 75.001953125 225.66796875 59.3349609375 289.000976562 44.001953125 351.000976562 c 0
 35.3349609375 384.333984375 27.3349609375 416.000976562 20.001953125 446.000976562 c 0
 12.6689453125 476.66796875 6.001953125 503.334960938 0.001953125 526.001953125 c 1
 91.001953125 526.001953125 l 1
 99.001953125 492.668945312 108.668945312 451.001953125 120.001953125 401.001953125 c 0
 131.334960938 350.334960938 142.334960938 300.66796875 153.001953125 252.000976562 c 0
 159.001953125 226.000976562 164.668945312 201.333984375 170.001953125 178.000976562 c 0
 175.334960938 154.66796875 180.001953125 134.000976562 184.001953125 116.000976562 c 1
 187.334960938 127.333984375 191.001953125 140.333984375 195.001953125 155.000976562 c 0
 199.001953125 169.66796875 203.334960938 185.334960938 208.001953125 202.001953125 c 0
 216.668945312 232.668945312 225.3359375 264.001953125 234.002929688 296.001953125 c 0
 242.669921875 328.001953125 250.002929688 354.668945312 256.002929688 376.001953125 c 1
 358.002929688 376.001953125 l 1
 383.002929688 296.001953125 l 2
 393.669921875 264.001953125 403.669921875 232.668945312 413.002929688 202.001953125 c 0
 418.3359375 185.334960938 423.3359375 169.66796875 428.002929688 155.000976562 c 0
 432.669921875 140.333984375 436.669921875 127.333984375 440.002929688 116.000976562 c 1
 447.3359375 149.333984375 456.002929688 191.000976562 466.002929688 241.000976562 c 0
 476.669921875 291.66796875 487.002929688 341.334960938 497.002929688 390.001953125 c 0
 502.3359375 416.001953125 507.3359375 440.668945312 512.002929688 464.001953125 c 0
 517.3359375 487.334960938 521.668945312 508.001953125 525.001953125 526.001953125 c 1
 616.001953125 526.001953125 l 1
 605.334960938 483.334960938 592.001953125 429.66796875 576.001953125 365.000976562 c 0
 560.001953125 300.333984375 544.334960938 237.000976562 529.001953125 175.000976562 c 0
 520.334960938 141.66796875 512.334960938 110.000976562 505.001953125 80.0009765625 c 0
 497.668945312 50.0009765625 491.001953125 23.333984375 485.001953125 0.0009765625 c 1
 397.001953125 0.0009765625 l 1
 389.668945312 23.333984375 380.668945312 52.6669921875 370.001953125 88 c 0
 359.334960938 124 348.66796875 159 338.000976562 193 c 0
 332.000976562 211 326.66796875 228.333007812 322.000976562 245 c 0
 316.66796875 261.666992188 312.000976562 276.333984375 308.000976562 289.000976562 c 1
 300.66796875 265.66796875 291.66796875 236.000976562 281.000976562 200.000976562 c 0
 270.333984375 164.66796875 259.666992188 130.000976562 249 96.0009765625 c 0
 243 77.333984375 237.666992188 60.0009765625 233 44.0009765625 c 0
 227.666992188 27.333984375 223 12.6669921875 219 0 c 1
 131 0 l 1
EndSplineSet
EndChar

StartChar: x
Encoding: 120 120 91
Width: 614
GlyphClass: 1
Flags: W
LayerCount: 2
Fore
SplineSet
38 0 m 1
 56 22 78.328125 50 104.995117188 84 c 0
 132.328125 117.333007812 158.995117188 150.333007812 184.995117188 183 c 0
 198.995117188 200.333007812 212.328125 217 224.995117188 233 c 0
 237.662109375 248.333007812 248.662109375 262 257.995117188 274 c 1
 241.995117188 294.666992188 221.662109375 320.666992188 196.995117188 352 c 0
 172.328125 382.666992188 147.995117188 412.666992188 123.995117188 442 c 0
 111.328125 458 99.328125 473.333007812 87.9951171875 488 c 0
 76.662109375 502.666992188 66.3291015625 515.333984375 56.99609375 526.000976562 c 1
 159.99609375 526.000976562 l 1
 171.99609375 510.66796875 186.99609375 491.334960938 204.99609375 468.001953125 c 0
 223.663085938 444.668945312 241.663085938 421.668945312 258.99609375 399.001953125 c 0
 268.329101562 387.001953125 277.329101562 375.668945312 285.99609375 365.001953125 c 0
 294.663085938 353.668945312 301.99609375 344.001953125 307.99609375 336.001953125 c 1
 319.99609375 351.334960938 334.99609375 370.66796875 352.99609375 394.000976562 c 0
 371.663085938 417.333984375 389.663085938 440.333984375 406.99609375 463.000976562 c 0
 416.329101562 475.000976562 424.99609375 486.66796875 432.99609375 498.000976562 c 0
 441.663085938 508.66796875 449.330078125 518.000976562 455.997070312 526.000976562 c 1
 558.997070312 526.000976562 l 1
 542.997070312 505.333984375 522.6640625 479.666992188 497.997070312 449 c 0
 473.330078125 418.333007812 448.997070312 388 424.997070312 358 c 0
 412.330078125 342 400.330078125 327 388.997070312 313 c 0
 377.6640625 298.333007812 367.331054688 285.333007812 357.998046875 274 c 1
 367.998046875 262 379.331054688 248.333007812 391.998046875 233 c 0
 404.665039062 217 417.998046875 200.333007812 431.998046875 183 c 0
 457.998046875 150.333007812 484.331054688 117.333007812 510.998046875 84 c 0
 538.331054688 50 560.998046875 22 578.998046875 0 c 1
 471.998046875 0 l 1
 421.998046875 65 l 2
 401.998046875 90.3330078125 382.331054688 115.666015625 362.998046875 140.999023438 c 0
 352.331054688 154.33203125 342.331054688 166.999023438 332.998046875 178.999023438 c 0
 323.665039062 190.999023438 315.33203125 201.666015625 307.999023438 210.999023438 c 1
 257.999023438 145.999023438 l 2
 237.999023438 120.666015625 218.33203125 95.3330078125 198.999023438 70 c 0
 188.33203125 56.6669921875 178.33203125 44 168.999023438 32 c 0
 159.666015625 20 151.333007812 9.3330078125 144 0 c 1
 38 0 l 1
EndSplineSet
EndChar

